<svg xmlns="http://www.w3.org/2000/svg" xmlns:xlink="http://www.w3.org/1999/xlink" width="300" height="90" viewBox="0 0 300 90">
  <defs>
    <clipPath id="clip-path">
      <rect id="Rectangle_5" data-name="Rectangle 5" width="300" height="90" fill="none"/>
    </clipPath>
    <clipPath id="clip-path-2">
      <rect id="Rectangle_3" data-name="Rectangle 3" width="14.004" height="15.914" fill="none"/>
    </clipPath>
    <clipPath id="clip-path-5">
      <rect id="Rectangle_4" data-name="Rectangle 4" width="10.593" height="17.544" fill="none"/>
    </clipPath>
  </defs>
  <g id="Logo" transform="translate(30 -0.467)">
    <g id="Group_13" data-name="Group 13" transform="translate(-30 0.467)" clip-path="url(#clip-path)">
      <path id="Path_1" data-name="Path 1" d="M135.982,18.961a1.853,1.853,0,0,1,.744.564,1.1,1.1,0,0,1,.245.7,1.064,1.064,0,0,1-.276.664,1.657,1.657,0,0,1-.819.474,2.537,2.537,0,0,1-.595.07c-.255.007-.61.01-1.062.01H132.5q-1.042,0-2.572.02-.382.021-.785.021a1.026,1.026,0,0,1-.7-.262,1.151,1.151,0,0,1-.372-.615,4.225,4.225,0,0,1-.149-.866c-.022-.3-.029-.6-.022-.906s.011-.554.011-.755q0-.6.01-1.39t.022-1.6q.01-.816.01-1.6v-1.39q0-1.067.021-1.722a6.514,6.514,0,0,1,.1-1.028,1.051,1.051,0,0,1,.245-.544,1.382,1.382,0,0,1,.467-.292,1.188,1.188,0,0,1,.563-.07,1.653,1.653,0,0,1,.574.161,1.272,1.272,0,0,1,.447.362.821.821,0,0,1,.18.514q.042,2.418,0,4.795t-.042,4.754q1.338,0,2.667-.03t2.687-.071Z" transform="translate(-49.227 -3.747)" fill="#cf001c"/>
      <path id="Path_2" data-name="Path 2" d="M153.055,21.951a1.171,1.171,0,0,1-.063.967,1.146,1.146,0,0,1-.648.514,1.446,1.446,0,0,1-.9-.03,1.743,1.743,0,0,1-.849-.645,4.071,4.071,0,0,1-1.159.594,4.889,4.889,0,0,1-1.286.191,5.64,5.64,0,0,1-1.933-.231,3.733,3.733,0,0,1-1.435-.816,3.229,3.229,0,0,1-.86-1.359,4.676,4.676,0,0,1-.192-1.884,5.025,5.025,0,0,1,.16-.866c.078-.283.166-.557.266-.826a5.779,5.779,0,0,1,.478-.947,6.193,6.193,0,0,1,.626-.866,6.459,6.459,0,0,1,2.869-1.914,5.117,5.117,0,0,1,.807-.181,5.952,5.952,0,0,1,1.031-.071,4.447,4.447,0,0,1,1,.132,1.251,1.251,0,0,1,.712.422,2.254,2.254,0,0,1,.276.423,1.042,1.042,0,0,1,.1.383c.007.134.007.279,0,.433s-.01.346-.01.574c0,.377,0,.742-.011,1.1s0,.715.011,1.078V18.6q0,.292.021.614c.014.215.031.42.053.615a2.239,2.239,0,0,0,.1.473Zm-4.5-.906q.233-.141.531-.312a2.787,2.787,0,0,0,.531-.393,14.523,14.523,0,0,1-.223-2.135q-.031-1.067.01-2.155a3.629,3.629,0,0,0-1.72.785,3.3,3.3,0,0,0-1.064,1.471,5.824,5.824,0,0,0-.212.705,2.423,2.423,0,0,0-.063.705,1.358,1.358,0,0,0,.255.775,1.536,1.536,0,0,0,.563.473,1.785,1.785,0,0,0,.7.182,1.66,1.66,0,0,0,.69-.1" transform="translate(-55.313 -5.67)" fill="#cf001c"/>
      <path id="Path_3" data-name="Path 3" d="M169.868,22.25a1.358,1.358,0,0,1-.393.826,1.443,1.443,0,0,1-.744.4,1.254,1.254,0,0,1-.8-.1,1.1,1.1,0,0,1-.552-.705,2.961,2.961,0,0,1-.149-1.179q.041-.614.042-1.138,0-1.089.01-2.166a20.326,20.326,0,0,0-.1-2.166.626.626,0,0,0-.043-.07.614.614,0,0,0-.084-.091,1.862,1.862,0,0,0-1.041.06,3.306,3.306,0,0,0-.936.464,3.462,3.462,0,0,0-.669.715,1.5,1.5,0,0,0-.329.876v2.78q0,.322.021.706a3.73,3.73,0,0,1-.032.745,1.687,1.687,0,0,1-.244.665,1.1,1.1,0,0,1-.616.443,1.035,1.035,0,0,1-.436.061,1.956,1.956,0,0,1-.436-.1.928.928,0,0,1-.552-.413,1.957,1.957,0,0,1-.234-.624,2.844,2.844,0,0,1-.053-.645c.007-.208.01-.373.01-.493q0-.463-.01-1.339c-.008-.585-.01-1.2-.01-1.844V14.736a1.024,1.024,0,0,1,.276-.735,1.305,1.305,0,0,1,.648-.383,1.446,1.446,0,0,1,.787.041,1.306,1.306,0,0,1,.69.533,5.282,5.282,0,0,1,1.871-.7,4.379,4.379,0,0,1,1.923.06,3.068,3.068,0,0,1,1.509.906,2.7,2.7,0,0,1,.626,1.833c0,.027.008.108.022.242a5.539,5.539,0,0,1,.021.563Z" transform="translate(-62.16 -5.606)" fill="#cf001c"/>
      <path id="Path_4" data-name="Path 4" d="M178.888,27.168a1.45,1.45,0,0,1-.383-.876,1.143,1.143,0,0,1,.882-1.219,1.4,1.4,0,0,1,.966.121,2.487,2.487,0,0,0,.426.242c.127.053.3.134.531.242a3.14,3.14,0,0,0,.722.211,2.7,2.7,0,0,0,.766.03,3.015,3.015,0,0,0,1.116-.231,1.225,1.225,0,0,0,.563-.5,1.86,1.86,0,0,0,.2-.765q.03-.454.031-1.018a9.085,9.085,0,0,1-1.359.333,5.13,5.13,0,0,1-1.4.03,4.143,4.143,0,0,1-2.306-.946,4.648,4.648,0,0,1-1.317-1.874,5.519,5.519,0,0,1-.34-2.327,5.763,5.763,0,0,1,.606-2.286,4.208,4.208,0,0,1,.871-1.118,4.98,4.98,0,0,1,1.243-.846,4.761,4.761,0,0,1,1.445-.433,3.315,3.315,0,0,1,1.456.121q.4.141.787.282a4.248,4.248,0,0,1,.744.362,1.416,1.416,0,0,1,.945-.342,1.147,1.147,0,0,1,.925.483c.055.081.12.172.191.272a.507.507,0,0,1,.106.292q.02,2.156.01,4.3t-.01,4.3a5.141,5.141,0,0,1-.245,1.611,3.774,3.774,0,0,1-1.944,2.256,4.841,4.841,0,0,1-1.679.463q-.489.04-.956.041a4.734,4.734,0,0,1-.956-.1,5.543,5.543,0,0,1-1.307-.4q-.626-.283-1.242-.625Zm2.508-6.144a2.856,2.856,0,0,0,1.722.272,4.51,4.51,0,0,0,1.593-.675v-3.2a3.847,3.847,0,0,0-1.2-.816,2.812,2.812,0,0,0-1.391-.132c-.1.055-.195.1-.287.142s-.188.08-.287.12a4.364,4.364,0,0,0-.68.937,2.5,2.5,0,0,0-.277.927,3.005,3.005,0,0,0,.075.967,7.434,7.434,0,0,0,.351,1.077.834.834,0,0,0,.191.2,1.175,1.175,0,0,1,.192.181" transform="translate(-68.503 -5.79)" fill="#cf001c"/>
      <path id="Path_5" data-name="Path 5" d="M204.69,21.361a1.213,1.213,0,0,1,.223.614,1.5,1.5,0,0,1-.085.665,1.133,1.133,0,0,1-.383.514,1.037,1.037,0,0,1-.691.181,1.407,1.407,0,0,1-.893-.363,5.44,5.44,0,0,1-.638-.725,5.043,5.043,0,0,1-1.71.9,3.919,3.919,0,0,1-1.732.111,3.764,3.764,0,0,1-1.594-.675,4.379,4.379,0,0,1-1.254-1.44,4.268,4.268,0,0,1-.52-1.873q-.054-1.028-.032-1.954c0-.214.007-.426.02-.634s.028-.426.044-.655c.013-.174.021-.345.021-.513a3.292,3.292,0,0,1,.032-.474,1.7,1.7,0,0,1,.127-.443,1.439,1.439,0,0,1,.287-.423,1.043,1.043,0,0,1,.616-.312,1.407,1.407,0,0,1,.69.07,1.525,1.525,0,0,1,.574.373.942.942,0,0,1,.266.614,15.854,15.854,0,0,1-.054,2.075,10.51,10.51,0,0,0,.01,2.055,3.082,3.082,0,0,0,.266.987,1.377,1.377,0,0,0,.712.725,1.18,1.18,0,0,0,.988-.03,2.782,2.782,0,0,0,.818-.554,3.854,3.854,0,0,0,.287-.352,1.749,1.749,0,0,1,.308-.333q-.085-.7-.106-1.41t0-1.41q0-.383.032-.836a3.465,3.465,0,0,1,.169-.866,2.073,2.073,0,0,1,.415-.725,1.274,1.274,0,0,1,.786-.393.887.887,0,0,1,.457.04,1.313,1.313,0,0,1,.392.221,1.238,1.238,0,0,1,.4.544,1.936,1.936,0,0,1,.106.645,4.705,4.705,0,0,1-.052.7c-.036.235-.06.453-.075.654q-.042.565-.063,1.189a9.219,9.219,0,0,0,.041,1.249,6.339,6.339,0,0,0,.244,1.208,3.5,3.5,0,0,0,.543,1.068" transform="translate(-75.201 -5.764)" fill="#cf001c"/>
      <path id="Path_6" data-name="Path 6" d="M222.01,21.951a1.173,1.173,0,0,1-.064.967,1.147,1.147,0,0,1-.648.514,1.448,1.448,0,0,1-.9-.03,1.745,1.745,0,0,1-.85-.645,4.049,4.049,0,0,1-1.158.594,4.89,4.89,0,0,1-1.286.191,5.642,5.642,0,0,1-1.933-.231,3.735,3.735,0,0,1-1.434-.816,3.236,3.236,0,0,1-.861-1.359,4.677,4.677,0,0,1-.191-1.884,5.082,5.082,0,0,1,.159-.866c.078-.283.167-.557.266-.826a5.829,5.829,0,0,1,.479-.947,6.248,6.248,0,0,1,.627-.866,6.463,6.463,0,0,1,2.868-1.914,5.171,5.171,0,0,1,.808-.181,5.945,5.945,0,0,1,1.03-.071,4.438,4.438,0,0,1,1,.132,1.249,1.249,0,0,1,.712.422,2.291,2.291,0,0,1,.277.423,1.028,1.028,0,0,1,.1.383c.007.134.007.279,0,.433s-.011.346-.011.574c0,.377,0,.742-.011,1.1s0,.715.011,1.078V18.6q0,.292.021.614c.014.215.032.42.054.615a2.16,2.16,0,0,0,.1.473Zm-4.5-.906q.234-.141.531-.312a2.783,2.783,0,0,0,.531-.393,14.528,14.528,0,0,1-.223-2.135q-.032-1.067.01-2.155a3.636,3.636,0,0,0-1.722.785,3.3,3.3,0,0,0-1.062,1.471,5.712,5.712,0,0,0-.212.705,2.38,2.38,0,0,0-.064.705,1.358,1.358,0,0,0,.255.775,1.538,1.538,0,0,0,.563.473,1.79,1.79,0,0,0,.7.182,1.66,1.66,0,0,0,.69-.1" transform="translate(-81.854 -5.67)" fill="#cf001c"/>
      <path id="Path_7" data-name="Path 7" d="M230.741,27.168a1.443,1.443,0,0,1-.383-.876,1.142,1.142,0,0,1,.882-1.219,1.4,1.4,0,0,1,.967.121,2.455,2.455,0,0,0,.424.242q.191.08.531.242a3.118,3.118,0,0,0,.723.211,2.7,2.7,0,0,0,.765.03,3.009,3.009,0,0,0,1.115-.231,1.23,1.23,0,0,0,.563-.5,1.868,1.868,0,0,0,.2-.765q.031-.454.032-1.018a9.116,9.116,0,0,1-1.361.333,5.127,5.127,0,0,1-1.4.03,4.137,4.137,0,0,1-2.305-.946,4.645,4.645,0,0,1-1.318-1.874,5.529,5.529,0,0,1-.34-2.327,5.763,5.763,0,0,1,.606-2.286,4.218,4.218,0,0,1,.871-1.118,4.976,4.976,0,0,1,1.244-.846A4.741,4.741,0,0,1,234,13.932a3.314,3.314,0,0,1,1.455.121q.4.141.787.282a4.242,4.242,0,0,1,.743.362,1.419,1.419,0,0,1,.946-.342,1.145,1.145,0,0,1,.924.483l.191.272a.508.508,0,0,1,.107.292q.02,2.156.01,4.3t-.01,4.3a5.16,5.16,0,0,1-.244,1.611,3.9,3.9,0,0,1-.733,1.32,3.832,3.832,0,0,1-1.211.936,4.851,4.851,0,0,1-1.68.463q-.489.04-.956.041a4.743,4.743,0,0,1-.956-.1,5.538,5.538,0,0,1-1.306-.4q-.627-.283-1.243-.625Zm2.507-6.144a2.856,2.856,0,0,0,1.722.272,4.518,4.518,0,0,0,1.594-.675v-3.2a3.854,3.854,0,0,0-1.2-.816,2.814,2.814,0,0,0-1.392-.132c-.1.055-.2.1-.287.142s-.188.08-.287.12a4.319,4.319,0,0,0-.68.937,2.49,2.49,0,0,0-.276.927,2.972,2.972,0,0,0,.074.967,7.75,7.75,0,0,0,.351,1.077.828.828,0,0,0,.192.2,1.161,1.161,0,0,1,.191.181" transform="translate(-88.461 -5.79)" fill="#cf001c"/>
      <path id="Path_8" data-name="Path 8" d="M255.568,20.159a1.8,1.8,0,0,1,.9-.01,1.163,1.163,0,0,1,.605.373.9.9,0,0,1,.191.644,1.436,1.436,0,0,1-.361.806,2.236,2.236,0,0,1-.765.584,7.188,7.188,0,0,1-.914.383,11.072,11.072,0,0,1-1.976.5,5.473,5.473,0,0,1-1.752,0,4.239,4.239,0,0,1-1.531-.584,5.063,5.063,0,0,1-1.328-1.249,3.656,3.656,0,0,1-.627-1.239,5.692,5.692,0,0,1-.223-1.42,6.059,6.059,0,0,1,.128-1.43,5.4,5.4,0,0,1,.425-1.269,3.782,3.782,0,0,1,1.147-1.289,6.683,6.683,0,0,1,1.743-.927,6.778,6.778,0,0,1,1.955-.392,3.794,3.794,0,0,1,1.763.291,3.058,3.058,0,0,1,1.094.816,2.98,2.98,0,0,1,.627,1.158,2.62,2.62,0,0,1,.032,1.259,2.259,2.259,0,0,1-.69,1.159,4.694,4.694,0,0,1-1.169.815,10.987,10.987,0,0,1-1.318.544,13.693,13.693,0,0,1-1.391.393q-.712.162-1.37.362a1.97,1.97,0,0,0,1.019.614,3.4,3.4,0,0,0,1.2.051,5.213,5.213,0,0,0,1.264-.333,10.323,10.323,0,0,0,1.19-.554Zm-4.292-3.465a1.8,1.8,0,0,0-.723.654,3.065,3.065,0,0,0-.34,1.1q.552-.161,1.243-.342t1.306-.383a5.731,5.731,0,0,0,1.042-.443c.284-.161.424-.335.424-.524a.946.946,0,0,0-.052-.312.344.344,0,0,0-.223-.211,2.392,2.392,0,0,0-1.233-.081,3.891,3.891,0,0,0-1.063.342Z" transform="translate(-95.374 -5.691)" fill="#cf001c"/>
      <path id="Path_9" data-name="Path 9" d="M286.837,20.029a1.507,1.507,0,0,1-.319.755,1.353,1.353,0,0,1-.584.433,1.185,1.185,0,0,1-.7.03,1.318,1.318,0,0,1-.691-.474,1.226,1.226,0,0,1-.308-.715,5.767,5.767,0,0,0-.117-.775,16.516,16.516,0,0,0-.616-2.276q-1.317.021-2.614.02t-2.593.02a10.989,10.989,0,0,0-.329,1.068q-.138.544-.266,1.067-.107.4-.191.836a1.529,1.529,0,0,1-.383.755,1.256,1.256,0,0,1-.776.454,1.207,1.207,0,0,1-.744-.131,1.337,1.337,0,0,1-.53-.554,1.368,1.368,0,0,1-.138-.856,6.05,6.05,0,0,1,.255-1.229q.191-.6.361-1.208a42.946,42.946,0,0,1,2.464-6.709c.085-.187.174-.369.266-.544s.181-.348.266-.523.2-.39.3-.6a3.252,3.252,0,0,1,.351-.594,2.018,2.018,0,0,1,.478-.464,1.167,1.167,0,0,1,.68-.191,1.3,1.3,0,0,1,.892.322,12.382,12.382,0,0,1,2.38,3.093,37.488,37.488,0,0,1,1.679,3.516q.447-.02.872,0a1.132,1.132,0,0,1,.765.363,1.073,1.073,0,0,1,.351.6,1.187,1.187,0,0,1-.063.624,1.282,1.282,0,0,1-.382.524,1.467,1.467,0,0,1-.649.3q.212.705.372,1.44t.266,1.48Zm-4.335-5.48q-.4-.907-.861-1.8a13.681,13.681,0,0,0-1.031-1.7q-.425.887-.8,1.762t-.692,1.783q1-.02,1.754-.02t1.626-.02" transform="translate(-105.818 -3.445)" fill="#cf001c"/>
      <path id="Path_10" data-name="Path 10" d="M302.051,20.112a1.671,1.671,0,0,1,1.009-.282,1.321,1.321,0,0,1,.786.312,1.018,1.018,0,0,1,.34.726,1.475,1.475,0,0,1-.329.956,2.306,2.306,0,0,1-.669.624,4.966,4.966,0,0,1-.84.444,4.278,4.278,0,0,1-1.891.362,4.39,4.39,0,0,1-1.774-.443,4.272,4.272,0,0,1-1.414-1.118,3.887,3.887,0,0,1-.807-1.662,6.054,6.054,0,0,1,.17-3.485,7.955,7.955,0,0,1,.563-1.168,4.96,4.96,0,0,1,.8-1.028,5.806,5.806,0,0,1,1.041-.816,3.574,3.574,0,0,1,1.254-.473,4.142,4.142,0,0,1,1.19.01,6.1,6.1,0,0,1,1.413.352,4.364,4.364,0,0,1,1.211.685,1.481,1.481,0,0,1,.584,1.007,1.054,1.054,0,0,1-.084.594,1.218,1.218,0,0,1-.362.453,1.368,1.368,0,0,1-.542.252,1.308,1.308,0,0,1-.626-.01,1.7,1.7,0,0,1-.606-.272c-.149-.113-.344-.265-.585-.453a1.108,1.108,0,0,1-.319-.131.485.485,0,0,0-.318-.07l-.575.06c-.1.053-.191.1-.276.141l-.255.121a4.351,4.351,0,0,0-1.063,1.521,3.215,3.215,0,0,0-.17,1.8,2.292,2.292,0,0,0,.414,1.028,1.6,1.6,0,0,0,.723.553,1.548,1.548,0,0,0,.913.03,2.372,2.372,0,0,0,.988-.544Z" transform="translate(-114.041 -5.462)" fill="#cf001c"/>
      <path id="Path_11" data-name="Path 11" d="M320.4,21.951a1.173,1.173,0,0,1-.064.967,1.147,1.147,0,0,1-.648.514,1.448,1.448,0,0,1-.9-.03,1.744,1.744,0,0,1-.85-.645,4.052,4.052,0,0,1-1.158.594,4.89,4.89,0,0,1-1.286.191,5.649,5.649,0,0,1-1.934-.231,3.739,3.739,0,0,1-1.434-.816,3.235,3.235,0,0,1-.86-1.359,4.674,4.674,0,0,1-.191-1.884,5.068,5.068,0,0,1,.159-.866c.078-.283.167-.557.266-.826a5.834,5.834,0,0,1,.479-.947,6.245,6.245,0,0,1,.627-.866,6.463,6.463,0,0,1,2.868-1.914,5.175,5.175,0,0,1,.808-.181,5.945,5.945,0,0,1,1.03-.071,4.438,4.438,0,0,1,1,.132,1.248,1.248,0,0,1,.712.422,2.291,2.291,0,0,1,.277.423,1.03,1.03,0,0,1,.1.383c.007.134.007.279,0,.433s-.011.346-.011.574c0,.377,0,.742-.01,1.1s0,.715.01,1.078V18.6q0,.292.022.614c.014.215.032.42.053.615a2.168,2.168,0,0,0,.1.473Zm-4.5-.906q.234-.141.531-.312a2.781,2.781,0,0,0,.531-.393,14.52,14.52,0,0,1-.223-2.135q-.032-1.067.011-2.155a3.636,3.636,0,0,0-1.722.785,3.3,3.3,0,0,0-1.062,1.471,5.712,5.712,0,0,0-.212.705,2.376,2.376,0,0,0-.064.705,1.358,1.358,0,0,0,.255.775,1.538,1.538,0,0,0,.563.473,1.792,1.792,0,0,0,.7.182,1.66,1.66,0,0,0,.69-.1" transform="translate(-119.724 -5.67)" fill="#cf001c"/>
      <path id="Path_12" data-name="Path 12" d="M338.885,18.815a1.362,1.362,0,0,1,.245,1.047,1.112,1.112,0,0,1-.478.7,1.361,1.361,0,0,1-.883.181,1.719,1.719,0,0,1-1.009-.514,4.583,4.583,0,0,1-1.062.533,11.227,11.227,0,0,1-1.169.333,3.949,3.949,0,0,1-1.838-.03,4.323,4.323,0,0,1-1.562-.756,4.109,4.109,0,0,1-1.105-1.3,3.814,3.814,0,0,1-.467-1.682,6.474,6.474,0,0,1,.159-1.934,5.523,5.523,0,0,1,.712-1.692,4.54,4.54,0,0,1,1.286-1.309,5.108,5.108,0,0,1,1.88-.766,6.929,6.929,0,0,1,1.286-.121,8.232,8.232,0,0,1,1.286.1q-.02-.443-.032-1.017t-.01-1.118q0-.543.042-.977a2.988,2.988,0,0,1,.106-.614,1.145,1.145,0,0,1,.458-.554,1.286,1.286,0,0,1,.648-.2,1.356,1.356,0,0,1,.67.162,1.247,1.247,0,0,1,.52.514,1.041,1.041,0,0,0,.107.191.326.326,0,0,1,.063.191q.021,2.64.011,5.218t-.011,5.217c.056.081.106.148.149.2m-2.954-1.108a.437.437,0,0,1,.159-.12.181.181,0,0,0,.117-.162V15.763q0-.816-.021-1.662a6.8,6.8,0,0,0-1.062-.121,4.067,4.067,0,0,0-1.073.1,2.984,2.984,0,0,0-.957.4,1.956,1.956,0,0,0-.691.806q-.127.383-.234.766a3.115,3.115,0,0,0-.117.745,2.231,2.231,0,0,0,.1.715,2.048,2.048,0,0,0,.362.675,1.612,1.612,0,0,0,.2.161c.077.053.229.148.456.282a4.272,4.272,0,0,0,1.5-.141,2.752,2.752,0,0,0,1.264-.786" transform="translate(-126.842 -3.258)" fill="#cf001c"/>
      <path id="Path_13" data-name="Path 13" d="M356.064,20.159a1.8,1.8,0,0,1,.9-.01,1.163,1.163,0,0,1,.605.373.9.9,0,0,1,.191.644,1.436,1.436,0,0,1-.361.806,2.236,2.236,0,0,1-.764.584,7.2,7.2,0,0,1-.914.383,11.077,11.077,0,0,1-1.976.5,5.474,5.474,0,0,1-1.752,0,4.238,4.238,0,0,1-1.531-.584,5.064,5.064,0,0,1-1.328-1.249,3.656,3.656,0,0,1-.627-1.239,5.682,5.682,0,0,1-.223-1.42,6.051,6.051,0,0,1,.128-1.43,5.393,5.393,0,0,1,.425-1.269,3.782,3.782,0,0,1,1.147-1.289,6.684,6.684,0,0,1,1.743-.927,6.778,6.778,0,0,1,1.955-.392,3.794,3.794,0,0,1,1.763.291,3.058,3.058,0,0,1,1.094.816,2.981,2.981,0,0,1,.627,1.158,2.62,2.62,0,0,1,.032,1.259,2.258,2.258,0,0,1-.69,1.159,4.694,4.694,0,0,1-1.169.815,10.991,10.991,0,0,1-1.318.544,13.687,13.687,0,0,1-1.391.393q-.712.162-1.37.362a1.97,1.97,0,0,0,1.019.614,3.4,3.4,0,0,0,1.2.051,5.212,5.212,0,0,0,1.264-.333,10.319,10.319,0,0,0,1.19-.554Zm-4.292-3.465a1.8,1.8,0,0,0-.723.654,3.063,3.063,0,0,0-.34,1.1q.552-.161,1.243-.342t1.306-.383a5.73,5.73,0,0,0,1.042-.443c.284-.161.424-.335.424-.524a.942.942,0,0,0-.052-.312.343.343,0,0,0-.223-.211,2.392,2.392,0,0,0-1.233-.081,3.888,3.888,0,0,0-1.063.342Z" transform="translate(-134.056 -5.691)" fill="#cf001c"/>
      <path id="Path_14" data-name="Path 14" d="M370.633,16.934v-.282a1.176,1.176,0,0,0-.616-.654,2.758,2.758,0,0,0-.913-.232,1.979,1.979,0,0,0-.446.181,1.626,1.626,0,0,0-.3.222,1.779,1.779,0,0,0-.234.272,3.089,3.089,0,0,1-.255.312v5.278a1.245,1.245,0,0,1-.393.977,1.525,1.525,0,0,1-.871.4,1.293,1.293,0,0,1-.882-.222,1.068,1.068,0,0,1-.425-.916q-.042-1.551-.031-3.526t.01-4.412a.988.988,0,0,1,.266-.705,1.34,1.34,0,0,1,.638-.383,1.418,1.418,0,0,1,.765.01,1.2,1.2,0,0,1,.648.453,3.845,3.845,0,0,1,2.369-.352,4.34,4.34,0,0,1,2.136,1.057,6.641,6.641,0,0,1,.914-.725,2.8,2.8,0,0,1,1.062-.423,3.544,3.544,0,0,1,1.328.051,4.218,4.218,0,0,1,1.243.493,4.131,4.131,0,0,1,1.01.846,3.477,3.477,0,0,1,.648,1.087,2.884,2.884,0,0,1,.106.726V21.95a1.651,1.651,0,0,1-.063.464,1.269,1.269,0,0,1-.605.735,1.409,1.409,0,0,1-.85.151,1.285,1.285,0,0,1-.755-.382,1.181,1.181,0,0,1-.319-.867V16.632a1.391,1.391,0,0,0-.553-.705,1.27,1.27,0,0,0-.744-.2,1.407,1.407,0,0,0-.733.262,1.727,1.727,0,0,0-.563.664v5.279a1.214,1.214,0,0,1-.372.906,1.705,1.705,0,0,1-.818.464,1.28,1.28,0,0,1-.84-.081.83.83,0,0,1-.456-.725Z" transform="translate(-140.592 -5.528)" fill="#cf001c"/>
      <path id="Path_15" data-name="Path 15" d="M396.06,13.787a1.337,1.337,0,0,1,.637-.554,1.276,1.276,0,0,1,.755-.07,1.33,1.33,0,0,1,.659.362,1.258,1.258,0,0,1,.351.746,2.612,2.612,0,0,1-.138.966q-.181.625-.446,1.289t-.542,1.269q-.276.6-.446.947-.723,1.511-1.572,2.962t-1.743,2.881c-.084.148-.184.329-.3.544l-.351.664c-.121.229-.244.443-.372.645a1.889,1.889,0,0,1-.362.443,1.517,1.517,0,0,1-.786.4,1.217,1.217,0,0,1-.733-.1,1.241,1.241,0,0,1-.531-.5,1.353,1.353,0,0,1-.159-.826,1.508,1.508,0,0,1,.17-.473q.149-.292.34-.6t.383-.595q.191-.282.3-.463.424-.665.818-1.33t.8-1.329a13.651,13.651,0,0,1-2.433-2.468,10.485,10.485,0,0,1-1.583-2.992l-.212-.564a1.159,1.159,0,0,1-.063-.584,1.588,1.588,0,0,1,.2-.615,1.342,1.342,0,0,1,.415-.443,1.153,1.153,0,0,1,.584-.191,1.361,1.361,0,0,1,.669.141,1.09,1.09,0,0,1,.436.393,2.789,2.789,0,0,1,.266.544,5.766,5.766,0,0,1,.18.594,3.324,3.324,0,0,0,.182.544,8.816,8.816,0,0,0,2.57,3.4q.616-1.209,1.1-2.428t.872-2.488Z" transform="translate(-149.528 -5.504)" fill="#cf001c"/>
      <path id="Path_16" data-name="Path 16" d="M73.326,80.321c-.124,0-.246,0-.368,0a2.659,2.659,0,0,1-1.305-.361l-1.008-.58.131,5.931.806-.214c.285-.076.57-.159.853-.244l1.047-.3-.06-.622a1.791,1.791,0,0,1,.145-.709,4.908,4.908,0,0,0,.185-.6A7.747,7.747,0,0,0,74,81.018l.027-.711Z" transform="translate(-27.191 -30.228)" fill="#124b88"/>
      <path id="Path_17" data-name="Path 17" d="M71.427,43.06a6.616,6.616,0,0,1,1.111-.591l.495-.211-.1-.537c-.063-.33-.117-.641-.16-.939l-.031-.209c-.051-.345-.1-.7-.13-1.071l-.042-.448-.423-.131a1.013,1.013,0,0,1-.653-.6l-.109-.291c-.091-.239-.179-.479-.266-.72l-1.34-3.677.178,10.631,1.053-.884a5.011,5.011,0,0,1,.421-.322" transform="translate(-26.857 -13.154)" fill="#124b88"/>
      <path id="Path_18" data-name="Path 18" d="M163.97,79.642c-1-5.992-6.987-10.025-13.373-8.995-6.742,1.227-11.908,6.421-14.548,14.627-3.106,9.655-1.792,20.85,3.058,26.043a14.806,14.806,0,0,0,10.732,4.9,13.119,13.119,0,0,0,4.586-.829c5.2-1.937,8.667-6.874,9.042-12.873a2.152,2.152,0,0,0-.952-2.031,3.012,3.012,0,0,0-3.012-.089,2.264,2.264,0,0,0-1.218,2c-.359,3.795-3.24,7.924-5.816,8.337-2.173.347-3.613-1.911-4.442-3.865a31.365,31.365,0,0,1-1.9-11.117c14.645-2.873,18.831-10.179,17.838-16.109M146.424,90.893a51.453,51.453,0,0,1,1.344-7.815c1.276-4.849,3.58-7.67,6.22-7.67a3.841,3.841,0,0,1,.431.024c2.295.263,4.172,2.6,4.273,5.317.066,1.768-.646,7.622-12.268,10.144" transform="translate(-51.72 -26.909)" fill="#124b88"/>
      <path id="Path_19" data-name="Path 19" d="M220.949,103.416l-.241-.039-.207.13c-.354.222-.523.227-.551.216-.667-.321-.265-4.831.028-8.124.508-5.7,1.139-12.8-.132-18.871a11.051,11.051,0,0,0-6.75-8.592c-3.783-1.5-8.286-.854-12.264,1.7.178-5.612.328-7.234.631-10.518.15-1.633.338-3.667.584-6.8a4.828,4.828,0,0,0-2.236-4.758,8.138,8.138,0,0,0-8.062.352,4.191,4.191,0,0,0-2.147,3.98c.079,17.707.427,28.041.763,38.036.145,4.284.281,8.33.4,12.9a4.105,4.105,0,0,0,4.222,4.48c2.167.049,4.579-1.2,4.645-3.342,0-5.991.266-12.154.524-18.114.124-2.877.248-5.74.343-8.572,1.327-2.88,3.414-4.416,5.614-4.117a4.375,4.375,0,0,1,3.629,3.764c.661,5.128.538,12.3.429,18.633-.017,1.012-.034,2-.047,2.953-.073,4,1.012,6.792,3.227,8.305a7.382,7.382,0,0,0,4.206,1.2,10.058,10.058,0,0,0,3.741-.713,2.3,2.3,0,0,0,1.047-2.4,1.779,1.779,0,0,0-1.394-1.692" transform="translate(-72.969 -18.089)" fill="#124b88"/>
      <path id="Path_20" data-name="Path 20" d="M278.965,79.495c-4.536-2.694-11.749-1.967-17.319,1.605.076-.56.152-1.147.2-1.736a4.715,4.715,0,0,0-2.152-4.631,8.237,8.237,0,0,0-8.106.342,4.342,4.342,0,0,0-2.284,4.072c.463,12.515.808,19.409,1.085,24.949.182,3.637.325,6.51.442,9.785a4.157,4.157,0,0,0,1.9,3.831,4.869,4.869,0,0,0,2.51.655,5.531,5.531,0,0,0,2.749-.721,3.076,3.076,0,0,0,1.7-2.589c.186-3.345.337-6.123.472-8.613.349-6.416.6-11.067,1.085-18.637,3.253-4.289,10.7-6.857,14.123-4.827,2.6,1.541,1.709,5.185.5,7.971l-.049.113-.006.124a3.591,3.591,0,0,0,3.455,3.823,3.875,3.875,0,0,0,4.342-3.427c.865-7.192-2.056-10.544-4.659-12.089" transform="translate(-95.953 -28.154)" fill="#124b88"/>
      <path id="Path_21" data-name="Path 21" d="M339.011,48.092a8.081,8.081,0,0,0-8.028-.332,4.965,4.965,0,0,0-2.309,4.827c.213,2.311.388,4.073.538,5.572.358,3.59.569,5.7.763,10.316a12.233,12.233,0,0,0-11.842-.818A19.211,19.211,0,0,0,307,80.951a24.381,24.381,0,0,0,4.4,20.415c2.553,3.275,5.668,4.926,9.007,4.753,3.752-.186,7.652-2.636,10.713-6.658.008.481.017.968.028,1.454.024,1.191.049,2.382.049,3.5a3.086,3.086,0,0,0,1.708,2.622,5.856,5.856,0,0,0,2.859.731,4.856,4.856,0,0,0,2.518-.656,4.046,4.046,0,0,0,1.877-3.715c.109-5.4.256-10.165.413-15.215.282-9.106.6-19.428.747-35.882a4.466,4.466,0,0,0-2.3-4.211m-14.988,52.535H324c-1.949,0-3.365-2.9-4.21-5.341-2.285-6.641-.521-16.116,3.932-21.121l.009-.011a3.227,3.227,0,0,1,2.439-1.319h.067c1.235.033,2.611.971,3.992,2.717l.038,1.131c.179,5.232.347,10.176.436,15.312-1.146,3.5-4.025,8.6-6.68,8.632" transform="translate(-117.913 -18.086)" fill="#124b88"/>
      <path id="Path_22" data-name="Path 22" d="M467.4,48.092a8.081,8.081,0,0,0-8.028-.332,4.965,4.965,0,0,0-2.309,4.827c.213,2.313.388,4.078.538,5.577.357,3.589.568,5.7.762,10.311a12.233,12.233,0,0,0-11.842-.818,19.207,19.207,0,0,0-11.135,13.294,24.373,24.373,0,0,0,4.4,20.414c2.553,3.275,5.668,4.926,9.008,4.753,3.752-.186,7.652-2.637,10.712-6.658.008.481.018.968.027,1.454.025,1.192.049,2.382.049,3.5a3.087,3.087,0,0,0,1.708,2.622,5.853,5.853,0,0,0,2.858.731,4.859,4.859,0,0,0,2.519-.656,4.047,4.047,0,0,0,1.877-3.715c.108-5.394.257-10.163.412-15.212.283-9.106.6-19.428.747-35.884a4.467,4.467,0,0,0-2.3-4.211M452.41,100.627h-.024c-1.948,0-3.364-2.9-4.209-5.341-2.285-6.641-.521-16.116,3.931-21.121l.009-.011a3.226,3.226,0,0,1,2.439-1.319h.067c1.235.033,2.611.971,3.992,2.717l.038,1.131c.178,5.232.347,10.176.436,15.311-1.147,3.5-4.025,8.6-6.68,8.632" transform="translate(-167.329 -18.085)" fill="#124b88"/>
      <path id="Path_23" data-name="Path 23" d="M407,113.674a2.08,2.08,0,0,0-2.149.046c-1.386-1.684-1.084-18.073-.09-27.378.3-2.836-2.562-4.944-5.407-5.488-2.377-.454-5.392.1-6.77,2.938a2.912,2.912,0,0,0-.2-.387c-2.769-4.926-6.972-7.188-11.538-6.2-6.48,1.4-11.831,8.811-12.723,17.613-.785,6.379.84,12.337,4.349,15.938a9.459,9.459,0,0,0,7.817,3.054c3.523-.334,6.934-2.611,9.367-6.259.717-1.136,1.852-3.292,2.767-5.2.388,8.666,1.244,13.57,4,15.7a6.654,6.654,0,0,0,4.219,1.244,24.55,24.55,0,0,0,5.748-.9l.158-.063a2.893,2.893,0,0,0,1.482-2.5A2.42,2.42,0,0,0,407,113.674m-21.737-8.546c-1.1,1.7-2.144,2.568-2.921,2.445-1.008-.161-1.745-1.914-2-2.851a24.346,24.346,0,0,1-.645-8.928c.24-3.333,2.457-10.658,4.985-12.321a1.648,1.648,0,0,1,.916-.315,1.453,1.453,0,0,1,.5.1c.4.129,1.139.369,2.235,2.4l.018.032a2.5,2.5,0,0,0,2.207,1.277,2.346,2.346,0,0,0,1.262-.414c-1.643,7.737-3.851,13.987-6.557,18.577" transform="translate(-141.615 -29.331)" fill="#124b88"/>
      <path id="Path_24" data-name="Path 24" d="M50.862,3.691l2.944-1.022-3.1-.282c-2.827-.256-6.2.909-7.152,3.635C38.863,19.227,32.672,36.579,28.875,47.083c-3.139-8.166-6.1-16.265-9.224-24.808-2-5.476-4.072-11.138-6.234-16.917C11.88,2.349,8.226,1.87,5.29,2.731,2.483,3.552-.236,5.842.017,9.051c0,20.481.515,40.184,1.012,59.238.154,5.879.306,11.663.438,17.315-.065,3.873,2.585,5.311,4.875,5.364l.138,0c2.434,0,5.047-1.479,5.115-3.951.068-14.4.6-28.938,1.106-42.994.3-8.128.6-16.5.818-24.9l.3.794c4.379,11.729,8.516,22.808,13.015,34.423A2.224,2.224,0,0,0,29,55.756a1.939,1.939,0,0,0,1.852-1.306c3.155-8.62,6.8-18.968,10.323-28.976l1.725-4.9.035,2.468,1.228-4.178a10.892,10.892,0,0,1,1.853-3.583,12.04,12.04,0,0,1,1.508-1.625,8.88,8.88,0,0,1,1.213-.918,7.931,7.931,0,0,1,1.593-.783l.33-.117,1.024-3.384.206-.534-1.072-.989c-.171-.157-.34-.317-.5-.481a1.988,1.988,0,0,1-.5-.874,1.476,1.476,0,0,1,.044-.937,1.605,1.605,0,0,1,1-.953" transform="translate(0 -1.478)" fill="#124b88"/>
      <path id="Path_25" data-name="Path 25" d="M428.375,7.015a4.338,4.338,0,0,1,.416,1.255,5.715,5.715,0,0,1,.028,2.328,5.02,5.02,0,0,1-.8,1.872A6.472,6.472,0,0,1,426.551,14a13.961,13.961,0,0,1-1.981,1.264,16.06,16.06,0,0,1-1.564.753l-.014.006a1.355,1.355,0,0,1-1.827-1.02L419.076,4.252a2.336,2.336,0,0,1,.979-2.386l.014-.009c.469-.314,1.032-.629,1.668-.968a9.5,9.5,0,0,1,1.74-.734,3.493,3.493,0,0,1,1.515-.117A2,2,0,0,1,426.155.7a3.449,3.449,0,0,1,.693,1.653,4.542,4.542,0,0,1-.015,1.837,4.877,4.877,0,0,1-.416,1.244.256.256,0,0,0,.2.368,2.943,2.943,0,0,1,.4.073,2.046,2.046,0,0,1,.748.372,2.785,2.785,0,0,1,.613.765m-2.47,3.53a2.205,2.205,0,0,0,0-.883c-.121-.626-.371-.958-.756-1.026a2.355,2.355,0,0,0-1.377.348l-.494.263a.258.258,0,0,0-.13.277l.536,2.762a.251.251,0,0,0,.344.187l.02-.009.422-.225a3.37,3.37,0,0,0,.611-.406,3.183,3.183,0,0,0,.514-.563,1.934,1.934,0,0,0,.309-.726m-3.887-6.837.491,2.529a.251.251,0,0,0,.363.177l.158-.085a2.4,2.4,0,0,0,1-.9,1.964,1.964,0,0,0,.156-1.383,1.258,1.258,0,0,0-.262-.6.759.759,0,0,0-.434-.251.982.982,0,0,0-.508.046,2.36,2.36,0,0,0-.5.2l-.228.122Z" transform="translate(-161.287 -0.601)" fill="#124b88"/>
      <g id="Group_9" data-name="Group 9" transform="translate(274.046 7.799)">
        <g id="Group_8" data-name="Group 8">
          <g id="Group_7" data-name="Group 7" clip-path="url(#clip-path-2)">
            <g id="Group_6" data-name="Group 6" style="isolation: isolate">
              <g id="Group_5" data-name="Group 5">
                <g id="Group_4" data-name="Group 4" clip-path="url(#clip-path-2)">
                  <g id="Group_3" data-name="Group 3">
                    <g id="Group_2" data-name="Group 2">
                      <g id="Group_1" data-name="Group 1" clip-path="url(#clip-path-2)">
                        <path id="Path_26" data-name="Path 26" d="M456.523,13.737a9.009,9.009,0,0,1,1.682.686,6.763,6.763,0,0,1,.966.607.934.934,0,0,1,.215,1.252,6.883,6.883,0,0,1-.6.8q-.294.336-.568.629a.9.9,0,0,1-1.162.128l-.006,0c-.164-.115-.329-.231-.5-.333-.022-.013-.044-.025-.066-.037-.154-.077-.308-.154-.472-.235-.021-.01-.042-.019-.064-.028-.172-.069-.357-.141-.561-.2a3.459,3.459,0,0,0-2.93.372,6.733,6.733,0,0,0-2.338,3.047q-1.928,4.3,1.5,5.344a4.988,4.988,0,0,0,1.226.235c.171.015.364.023.577.026a.913.913,0,0,1,.889,1.006,11.275,11.275,0,0,1-.271,1.595.906.906,0,0,1-.843.689c-.187.008-.367.009-.543.005a8.012,8.012,0,0,1-1.022-.069c-.3-.041-.6-.1-.892-.154l-.048-.011c-.289-.071-.591-.147-.887-.237A6.706,6.706,0,0,1,447.17,27.4a4.99,4.99,0,0,1-1.386-2.19,6.792,6.792,0,0,1-.192-2.762,11.437,11.437,0,0,1,.928-3.131,12.3,12.3,0,0,1,1.788-2.886,9.267,9.267,0,0,1,2.368-2.016,7.374,7.374,0,0,1,2.78-.955,7.237,7.237,0,0,1,3.067.276" transform="translate(-445.533 -13.403)" fill="#cf001c"/>
                      </g>
                    </g>
                  </g>
                </g>
              </g>
            </g>
          </g>
        </g>
      </g>
      <g id="Group_12" data-name="Group 12" transform="translate(261.63 24.849)" style="isolation: isolate">
        <g id="Group_11" data-name="Group 11">
          <g id="Group_10" data-name="Group 10" clip-path="url(#clip-path-5)">
            <path id="Path_27" data-name="Path 27" d="M432.859,41.132l.008,0a1.8,1.8,0,0,1,1.009,1.384l2.056,14.72a.787.787,0,0,1-.947.889c-.234-.056-.452-.118-.651-.185-.23-.088-.447-.177-.664-.267l-.047-.021c-.112-.055-.229-.117-.349-.182a.8.8,0,0,1-.405-.61l-.24-2.139a.788.788,0,0,0-.7-.7c-.117-.012-.231-.027-.342-.045a3.711,3.711,0,0,1-.87-.2,5.34,5.34,0,0,1-.806-.349l-.054-.029a.777.777,0,0,0-1.117.439l-.394,1.175a.781.781,0,0,1-.873.527l-.071-.013a3.663,3.663,0,0,1-.649-.178c-.206-.078-.444-.169-.706-.292l-.273-.144a.8.8,0,0,1-.372-1l4.8-12.638a1.031,1.031,0,0,1,1.162-.652h.009a5.033,5.033,0,0,1,.791.229c.22.076.445.169.7.275M432.223,51l-.366-3.922a.424.424,0,0,0-.827-.1l-.871,2.649a.793.793,0,0,0,.343.929,2.414,2.414,0,0,0,.493.251c.022.009.045.016.068.023a3.928,3.928,0,0,0,.559.122,2.938,2.938,0,0,0,.6.045" transform="translate(-425.348 -40.606)" fill="#cf001c"/>
          </g>
        </g>
      </g>
      <path id="Path_28" data-name="Path 28" d="M128.152,45.25a1.51,1.51,0,0,0,.2.733,1.3,1.3,0,0,0,1.192.528,2,2,0,0,0,.7-.115.812.812,0,0,0,.608-.8.707.707,0,0,0-.258-.618,2.521,2.521,0,0,0-.818-.315l-.683-.162a2.994,2.994,0,0,1-.948-.35,1.129,1.129,0,0,1-.481-.994,1.566,1.566,0,0,1,.473-1.175,1.843,1.843,0,0,1,1.338-.459,2.255,2.255,0,0,1,1.355.4,1.483,1.483,0,0,1,.557,1.288h-.664a1.364,1.364,0,0,0-.218-.654,1.225,1.225,0,0,0-1.05-.416,1.169,1.169,0,0,0-.861.268.861.861,0,0,0-.261.621.614.614,0,0,0,.309.571,4.363,4.363,0,0,0,.918.289l.708.17a2.125,2.125,0,0,1,.79.336,1.285,1.285,0,0,1,.481,1.081,1.366,1.366,0,0,1-.614,1.261,2.652,2.652,0,0,1-1.426.379,2.071,2.071,0,0,1-1.483-.506,1.743,1.743,0,0,1-.527-1.362Z" transform="translate(-49.07 -16.098)" fill="#124b88"/>
      <path id="Path_29" data-name="Path 29" d="M135.318,41.735h.648v.737h-.648Zm0,1.456h.648v3.852h-.648Z" transform="translate(-52.084 -16.178)" fill="#124b88"/>
      <path id="Path_30" data-name="Path 30" d="M137.7,43.977h.607v.549a1.712,1.712,0,0,1,.571-.488,1.491,1.491,0,0,1,.669-.148,1.1,1.1,0,0,1,1.093.574,2.076,2.076,0,0,1,.156.9v2.482h-.649V45.408a1.338,1.338,0,0,0-.1-.571.62.62,0,0,0-.616-.362,1.247,1.247,0,0,0-.372.047,1.051,1.051,0,0,0-.669.714,2.71,2.71,0,0,0-.048.584v2.027H137.7Z" transform="translate(-53.003 -16.983)" fill="#124b88"/>
      <path id="Path_31" data-name="Path 31" d="M146.382,44.169a1.538,1.538,0,0,1,.484,1.095h-.621a1.171,1.171,0,0,0-.259-.595.811.811,0,0,0-.649-.236.9.9,0,0,0-.872.606,2.454,2.454,0,0,0-.17.972,1.849,1.849,0,0,0,.241.978.926.926,0,0,0,1.388.15,1.367,1.367,0,0,0,.321-.675h.621a1.707,1.707,0,0,1-.532,1.126,1.64,1.64,0,0,1-1.088.356,1.442,1.442,0,0,1-1.188-.555A2.148,2.148,0,0,1,143.614,46a2.365,2.365,0,0,1,.486-1.586,1.558,1.558,0,0,1,1.238-.567,1.635,1.635,0,0,1,1.044.318" transform="translate(-55.278 -16.968)" fill="#124b88"/>
      <path id="Path_32" data-name="Path 32" d="M151.913,44.085a1.448,1.448,0,0,1,.574.5,1.759,1.759,0,0,1,.254.684,4.516,4.516,0,0,1,.057.852h-2.762a1.7,1.7,0,0,0,.271.948.9.9,0,0,0,.785.357,1,1,0,0,0,.792-.337,1.153,1.153,0,0,0,.234-.454h.628a1.377,1.377,0,0,1-.165.474,1.728,1.728,0,0,1-.312.429,1.459,1.459,0,0,1-.715.39,2.1,2.1,0,0,1-.517.058,1.573,1.573,0,0,1-1.2-.525,2.084,2.084,0,0,1-.49-1.474,2.26,2.26,0,0,1,.493-1.514,1.61,1.61,0,0,1,1.29-.582,1.679,1.679,0,0,1,.779.194m.228,1.519a1.71,1.71,0,0,0-.18-.675.913.913,0,0,0-.868-.47.95.95,0,0,0-.732.323,1.243,1.243,0,0,0-.312.822Z" transform="translate(-57.486 -16.983)" fill="#124b88"/>
      <path id="Path_33" data-name="Path 33" d="M158.956,45.948a2.225,2.225,0,0,1,.92-.9l.681-.4a3.206,3.206,0,0,0,.642-.463.959.959,0,0,0-.685-1.673.923.923,0,0,0-.908.508,1.865,1.865,0,0,0-.149.753h-.65a2.372,2.372,0,0,1,.245-1.1,1.527,1.527,0,0,1,1.465-.752,1.572,1.572,0,0,1,1.274.48,1.628,1.628,0,0,1,.4,1.07,1.466,1.466,0,0,1-.429,1.062,4.216,4.216,0,0,1-.889.622l-.487.274a3.206,3.206,0,0,0-.546.372,1.363,1.363,0,0,0-.447.7h2.773v.614h-3.486a3.064,3.064,0,0,1,.271-1.163" transform="translate(-61.078 -16.247)" fill="#124b88"/>
      <path id="Path_34" data-name="Path 34" d="M168.179,42.775a3.76,3.76,0,0,1,.341,1.752,4.3,4.3,0,0,1-.309,1.746,1.51,1.51,0,0,1-1.461.99,1.46,1.46,0,0,1-1.362-.809,3.771,3.771,0,0,1-.372-1.814,4.561,4.561,0,0,1,.223-1.514,1.534,1.534,0,0,1,1.514-1.178,1.5,1.5,0,0,1,1.426.828m-.642,3.447a3.3,3.3,0,0,0,.295-1.67,4.194,4.194,0,0,0-.213-1.451.812.812,0,0,0-.828-.568.864.864,0,0,0-.825.54,3.788,3.788,0,0,0-.261,1.592,3.987,3.987,0,0,0,.167,1.272.9.9,0,0,0,1.666.286" transform="translate(-63.515 -16.257)" fill="#124b88"/>
      <path id="Path_35" data-name="Path 35" d="M174.509,42.775a3.753,3.753,0,0,1,.341,1.752,4.3,4.3,0,0,1-.309,1.746,1.51,1.51,0,0,1-1.461.99,1.459,1.459,0,0,1-1.362-.809,3.771,3.771,0,0,1-.372-1.814,4.561,4.561,0,0,1,.223-1.514,1.533,1.533,0,0,1,1.514-1.178,1.5,1.5,0,0,1,1.425.828m-.642,3.447a3.291,3.291,0,0,0,.295-1.67,4.2,4.2,0,0,0-.213-1.451.811.811,0,0,0-.827-.568.864.864,0,0,0-.826.54,3.787,3.787,0,0,0-.261,1.592,3.967,3.967,0,0,0,.167,1.272.9.9,0,0,0,1.666.286" transform="translate(-65.952 -16.257)" fill="#124b88"/>
      <path id="Path_36" data-name="Path 36" d="M178,46.755a1.891,1.891,0,0,1-.407-1.227h.667a1.7,1.7,0,0,0,.185.73.962.962,0,0,0,.9.408,1.159,1.159,0,0,0,.809-.275.908.908,0,0,0,.306-.708.831.831,0,0,0-.322-.748,1.6,1.6,0,0,0-.892-.213h-.129l-.133.006v-.574c.066.007.122.012.167.014s.093,0,.145,0a1.312,1.312,0,0,0,.589-.115.738.738,0,0,0,.4-.723.711.711,0,0,0-.269-.6,1,1,0,0,0-.628-.209.924.924,0,0,0-.883.433,1.509,1.509,0,0,0-.153.679h-.632a1.975,1.975,0,0,1,.228-.983,1.423,1.423,0,0,1,1.372-.723,1.838,1.838,0,0,1,1.2.352,1.25,1.25,0,0,1,.426,1.021,1.151,1.151,0,0,1-.252.773,1.045,1.045,0,0,1-.4.29,1.1,1.1,0,0,1,.626.432,1.32,1.32,0,0,1,.225.782,1.608,1.608,0,0,1-.479,1.207,1.864,1.864,0,0,1-1.358.466,1.58,1.58,0,0,1-1.306-.5" transform="translate(-68.355 -16.253)" fill="#124b88"/>
      <path id="Path_37" data-name="Path 37" d="M79.892,122.268H98.415c.231,0,.461,0,.692,0,.1,0,.2,0,.307-.007.051,0,.1-.017.151-.024a.18.18,0,0,0,.117-.17c-.165-.656-.379-1.3-.5-1.967A12.82,12.82,0,0,1,98.927,118c-.009-.523-.012-1.044.017-1.566.009-.156.014-.313.038-.468.09-.592.177-1.186.323-1.769.019-.076.046-.15.064-.226.012-.05.015-.1.024-.154a.217.217,0,0,0-.182-.281c-.307-.009-.614-.019-.921-.019q-18.484,0-36.969,0c-.231,0-.461,0-.692,0-.076,0-.153.012-.229.018a.191.191,0,0,0-.145.229c.017.076.03.154.052.228a19.22,19.22,0,0,1,.472,1.895c.073.36.081.726.145,1.086a5.349,5.349,0,0,1,.066.858,11.522,11.522,0,0,1-.094,1.64,11.131,11.131,0,0,1-.484,2.13c-.033.1-.065.2-.1.3-.015.049-.026.1-.04.15a.169.169,0,0,0,.1.181,4.072,4.072,0,0,0,.842.031q9.338,0,18.677,0" transform="translate(-23.19 -42.97)" fill="#fff"/>
      <path id="Path_38" data-name="Path 38" d="M83.852,106.67H87.7q4.881,0,9.762,0c.256,0,.512-.01.768-.016a.159.159,0,0,0,.131-.161c-.041-.178-.078-.356-.125-.532a12,12,0,0,1-.411-2.147c-.01-.13-.036-.259-.047-.389-.023-.259-.056-.52-.06-.78-.008-.522,0-1.044,0-1.566a5.441,5.441,0,0,1,.046-.625c.081-.621.087-1.25.212-1.866a.935.935,0,0,0,0-.155.244.244,0,0,0-.181-.219,1.568,1.568,0,0,0-.458-.039c-.487.009-.974.031-1.46.036q-3.574.037-7.149.066c-.307,0-.614-.011-.922-.019a6.2,6.2,0,0,1-1.07-.1,2.6,2.6,0,0,0-.381-.046c-.742-.033-1.485-.05-2.229-.031a2.514,2.514,0,0,0-.964.233c-.141.063-.276.139-.416.2a6.378,6.378,0,0,1-1.93.484c-.076.009-.153.007-.23.009a5.028,5.028,0,0,1-1.367-.189,4.286,4.286,0,0,1-1.463-.671c-.125-.09-.252-.179-.377-.27a.5.5,0,0,0-.287-.1,8.615,8.615,0,0,0-1.381.056,13.368,13.368,0,0,1-1.379.1c-.358.014-.717.028-1.074.063-.383.037-.766.063-1.15.071-.563.011-1.127.014-1.691.029-.384.01-.77.016-1.151.055-.485.051-.97.08-1.457.1a7.445,7.445,0,0,0-.765.06,9.6,9.6,0,0,1-1.072.09,5.828,5.828,0,0,0-.842.066,6.866,6.866,0,0,1-.995.09,5.912,5.912,0,0,0-.842.066,8.408,8.408,0,0,1-1.071.094c-.281.014-.564.026-.842.065-.382.054-.765.073-1.149.091-.307.014-.615.028-.92.066-.357.044-.714.074-1.072.086-.154.005-.307.011-.461.018-.051,0-.1.016-.152.021a.26.26,0,0,0-.169.233,1.445,1.445,0,0,0,.073.382,10.62,10.62,0,0,1,.44,2.458,2.869,2.869,0,0,1,.012.391c-.036.416-.065.834-.132,1.245-.1.617-.21,1.233-.351,1.843a5.783,5.783,0,0,0-.088.62.33.33,0,0,0,.3.38c.153.007.307.013.461.013l7.994,0c.128,0,.256,0,.384,0a.559.559,0,0,0,.152-.019.256.256,0,0,0,.173-.141c.061-.143.11-.291.176-.431a.653.653,0,0,1,.322-.323,1.23,1.23,0,0,1,.516-.138h.461a1.07,1.07,0,0,1,.508.162.59.59,0,0,1,.263.277,4.939,4.939,0,0,1,.188.512.172.172,0,0,0,.175.121c.281.013.563.019.845.019H83.852" transform="translate(-22.096 -37.095)" fill="#fff"/>
      <path id="Path_39" data-name="Path 39" d="M110.964,94.527c.466,0,.979-.014,1.491-.014,1.23,0,2.459,0,3.689,0,.487,0,.973,0,1.46,0a2.8,2.8,0,0,0,.582-.05.46.46,0,0,0,.2-.1.494.494,0,0,0,.2-.325,4.05,4.05,0,0,0-.014-1.246.182.182,0,0,0-.038-.068.174.174,0,0,0-.052-.052,1.334,1.334,0,0,0-.435-.147,3.334,3.334,0,0,1-.425-.082,5.578,5.578,0,0,0-.76-.113,2.5,2.5,0,0,1-.378-.063,3.546,3.546,0,0,0-.531-.082,3.172,3.172,0,0,1-.456-.063,4.505,4.505,0,0,0-.683-.1,2.492,2.492,0,0,1-.379-.058,4.076,4.076,0,0,0-.607-.093,3.493,3.493,0,0,1-.456-.068,3.45,3.45,0,0,0-.531-.083,3.686,3.686,0,0,1-.607-.092c-.149-.034-.3-.044-.456-.066-.178-.024-.357-.039-.532-.077a3.547,3.547,0,0,0-.531-.079,3.631,3.631,0,0,1-.608-.091,2.277,2.277,0,0,0-.379-.059c-.487-.034-.956-.184-1.444-.206-.469-.139-.965-.119-1.438-.244-.2-.051-.41-.028-.61-.071a6.59,6.59,0,0,0-.989-.132,1.653,1.653,0,0,1-.3-.04,5.5,5.5,0,0,0-.992-.108c-.255-.015-.511-.037-.766-.066a6.335,6.335,0,0,0-1.533,0,4.667,4.667,0,0,1-.535.052,12.145,12.145,0,0,0-1.442.214,14.208,14.208,0,0,0-2.752.963c-.278.134-.551.279-.82.429a1.346,1.346,0,0,0-.237.195.283.283,0,0,0-.055.289,1.111,1.111,0,0,0,.077.135,7.777,7.777,0,0,0,1.13,1.17,2.047,2.047,0,0,0,1.564.515,2.433,2.433,0,0,0,.456-.058,1.8,1.8,0,0,1,.835-.037,6.159,6.159,0,0,0,.688.066,9.04,9.04,0,0,1,1.147.112,4.982,4.982,0,0,0,.612.049c.359.016.715.043,1.072.092a6.527,6.527,0,0,0,.766.058c2.075.036,4.15.047,6.224-.076.179-.011.359-.016.584-.026" transform="translate(-36.871 -34.318)" fill="#fff"/>
      <path id="Path_40" data-name="Path 40" d="M128.471,110.979a9.565,9.565,0,0,0-.068-1.326c-.042-.283-.093-.565-.144-.847a1.167,1.167,0,0,0-.05-.147.141.141,0,0,0-.239-.063c-.3.318-.607.633-.9.956q-.628.685-1.244,1.383c-.137.154-.264.318-.387.484a2.046,2.046,0,0,0-.365.767c-.063.279-.145.553-.208.832a17.784,17.784,0,0,0-.307,2.005c-.014.129-.011.26-.017.39a8.233,8.233,0,0,0,.175,1.785c.129.742.3,1.477.463,2.214a.312.312,0,0,0,.09.121.088.088,0,0,0,.134,0,.668.668,0,0,0,.146-.176c.138-.278.274-.558.4-.844.376-.856.765-1.7,1.185-2.539.058-.115.114-.233.169-.35a14.081,14.081,0,0,0,.73-1.887,8.971,8.971,0,0,0,.44-2.763" transform="translate(-47.933 -41.116)" fill="#fff"/>
      <path id="Path_41" data-name="Path 41" d="M127.777,101.127h-.009c0-.651,0-1.3,0-1.954,0-.13-.012-.26-.021-.389a.342.342,0,0,0-.24-.273,1.561,1.561,0,0,0-.228-.028q-1.035.01-2.07.028a.4.4,0,0,0-.149.029.221.221,0,0,0-.116.088,3.1,3.1,0,0,0-.157.439c-.092.352-.165.709-.259,1.061a3.76,3.76,0,0,0-.116.77,19.984,19.984,0,0,0,.016,2.343,12,12,0,0,0,.536,2.75,1.817,1.817,0,0,0,.128.283.093.093,0,0,0,.129.038.373.373,0,0,0,.124-.088q1.1-1.251,2.2-2.506a1.1,1.1,0,0,0,.137-.188.644.644,0,0,0,.081-.214,3.161,3.161,0,0,0,.017-.39q0-.9,0-1.8" transform="translate(-47.876 -37.358)" fill="#fff"/>
      <path id="Path_42" data-name="Path 42" d="M93.847,97.082a3.039,3.039,0,0,0,.829-.061.9.9,0,0,0,.469-.238.107.107,0,0,0,.015-.142.636.636,0,0,0-.082-.129q-.7-.664-1.4-1.322c-.018-.018-.041-.03-.061-.047a.191.191,0,0,0-.212-.014c-.508.389-1,.8-1.482,1.221a.671.671,0,0,0-.046.062c-.047.049-.015.142.05.185a2.26,2.26,0,0,0,.57.216,4.388,4.388,0,0,0,1.346.27" transform="translate(-35.357 -36.096)" fill="#fff"/>
      <path id="Path_43" data-name="Path 43" d="M91.355,55.909a.142.142,0,0,1-.117-.052q-.082-.109-.157-.222a.6.6,0,0,0-.263-.206.322.322,0,0,0-.4.144,2.423,2.423,0,0,0-.155.378c-.106.372-.2.748-.3,1.123-.029.11-.055.221-.081.332-.017.066-.034.133-.047.2a2.185,2.185,0,0,0,.413,1.808c.138.179.287.35.437.521.224.256.454.506.677.762a9.456,9.456,0,0,1,.707.915,5.8,5.8,0,0,1,.886,2.128,5.742,5.742,0,0,1,.069,1.773,4.626,4.626,0,0,1-.653,1.928,4.113,4.113,0,0,1-1.379,1.379c-.154.093-.312.181-.471.263s-.321.164-.485.235c-1.359.594-2.675,1.282-4.018,1.911-.122.058-.239.123-.359.187a.332.332,0,0,0-.143.139c-.064.12-.123.244-.194.36a.641.641,0,0,1-.444.28.307.307,0,0,1-.133,0,3.945,3.945,0,0,1-.576-.182,8.188,8.188,0,0,0-1.542-.465c-.437-.112-.885-.135-1.326-.221a2.89,2.89,0,0,0-.536-.035q-.908,0-1.816,0a4.012,4.012,0,0,0-.8.074.756.756,0,0,1-.133.023c-.495.013-.976.138-1.466.186-.156.015-.307.074-.462.085-.4.029-.793.146-1.2.186-.155.016-.307.063-.461.088a1.189,1.189,0,0,1-.267.013.089.089,0,0,1-.074-.1.853.853,0,0,1,.077-.33,5.754,5.754,0,0,0,.223-.718,8.384,8.384,0,0,0,.279-2.167c0-.16,0-.32.009-.479a.352.352,0,0,1,.118-.238.766.766,0,0,1,.154-.13c.175-.1.352-.2.531-.294.6-.314,1.2-.624,1.793-.94.4-.21.792-.426,1.188-.641a7.133,7.133,0,0,0,1.576-1.159c.1-.095.2-.189.295-.281a4.974,4.974,0,0,1,.587-.458,3.051,3.051,0,0,1,1.251-.467,1.5,1.5,0,0,1,.536.007c.22.044.439.093.654.154a2.638,2.638,0,0,0,1.783.071,4.35,4.35,0,0,0,.579-.175c.378-.141.752-.3,1.127-.443a3.583,3.583,0,0,0,1.323-.917c.108-.116.211-.238.309-.362a3.423,3.423,0,0,0,.723-1.672c.022-.158.06-.314.076-.473a.521.521,0,0,0-.154-.436.533.533,0,0,0-.428-.165,7.736,7.736,0,0,0-.929.144c-.22.05-.446.057-.662.118a3.9,3.9,0,0,1-.661.115c-.456.131-.936.106-1.394.221a1.012,1.012,0,0,1-.2.023,8.887,8.887,0,0,0-1.07.108c-.088.015-.179.014-.268.022a.792.792,0,0,1-.706-.32.327.327,0,0,1-.057-.321.947.947,0,0,1,.21-.347,1.712,1.712,0,0,1,.36-.306c.151-.1.308-.188.456-.29a2.476,2.476,0,0,0,.319-.251,1.217,1.217,0,0,0,.393-.913,1.26,1.26,0,0,0-.183-.718.717.717,0,0,0-.569-.316.4.4,0,0,0-.133.012,3.28,3.28,0,0,0-1.1.486,4.446,4.446,0,0,0-.627.515c-.144.144-.285.291-.417.447a4.257,4.257,0,0,1-1.823,1.244c-.105.039-.208.083-.316.116a7.548,7.548,0,0,0-1.238.526c-.361.184-.719.373-1.083.55a5.864,5.864,0,0,1-1.2.432c-.061.014-.134-.066-.127-.122,0-.023,0-.046.006-.068.038-.179.074-.357.114-.535a3.545,3.545,0,0,0,.02-1.361,11.181,11.181,0,0,0-.28-1.269c-.093-.328-.188-.657-.253-.994-.025-.135-.051-.269-.071-.4-.054-.361-.1-.723-.159-1.084a.728.728,0,0,0-.219-.416c-.193-.186-.306-.125-.431.068a.609.609,0,0,0-.075.188,1.885,1.885,0,0,0-.038.545,7.823,7.823,0,0,0,.271,1.756,10.441,10.441,0,0,1,.249,1.135,5.588,5.588,0,0,1,.068.75c0,.48,0,.96-.006,1.439a.251.251,0,0,1-.137.221,1.08,1.08,0,0,1-.439.163c-.292.023-.567.138-.86.154-.27.015-.523.126-.793.15a2.608,2.608,0,0,0-.388.106.511.511,0,0,0-.3.253,1.472,1.472,0,0,0-.085.185.134.134,0,0,0,.075.164c.062.026.124.054.188.075a.738.738,0,0,0,.4.024c.219-.048.439-.093.654-.157a1.861,1.861,0,0,1,.53-.074c.336,0,.673,0,1.009,0a4.269,4.269,0,0,0,.869-.085,5.966,5.966,0,0,0,.856-.172,7.037,7.037,0,0,0,1.927-.782c.156-.09.308-.187.462-.281a3.555,3.555,0,0,1,1.117-.454,3.188,3.188,0,0,0,1.32-.647,9.106,9.106,0,0,0,.8-.735A11.242,11.242,0,0,1,83.291,57.1a.38.38,0,0,1,.123-.048.08.08,0,0,1,.1.059.438.438,0,0,1-.111.441,1.132,1.132,0,0,1-.208.172,10.628,10.628,0,0,0-.848.674,2.994,2.994,0,0,0-.288.287,1.318,1.318,0,0,0-.27.471.852.852,0,0,0,.031.666,1.22,1.22,0,0,0,.284.379,2.015,2.015,0,0,0,.507.332,2.426,2.426,0,0,0,.968.255,8.631,8.631,0,0,0,.873-.019,1.821,1.821,0,0,0,.266-.039c.568-.127,1.134-.267,1.7-.415.39-.1.779-.209,1.167-.317a1.609,1.609,0,0,1,.533-.046c.154.009.231.1.213.274a.783.783,0,0,1-.034.2,3.779,3.779,0,0,1-1.185,1.632,3.587,3.587,0,0,1-1.715.735c-.111.016-.223.027-.333.048a3.979,3.979,0,0,1-1.273.024c-.423-.056-.848-.077-1.274-.1-.178-.009-.358,0-.538,0a2.536,2.536,0,0,0-.971.244,4.544,4.544,0,0,0-.874.508c-.237.173-.468.354-.7.532-.359.274-.717.55-1.076.822-.467.355-.947.693-1.444,1a10.634,10.634,0,0,1-2.693,1.217c-.237.069-.483.1-.718.177a.991.991,0,0,1-.266.033c-.179.006-.359.01-.538.008a1.813,1.813,0,0,1-1.269-.545,2.406,2.406,0,0,1-.381-.478,5.237,5.237,0,0,1-.314-.6,9.98,9.98,0,0,1-.75-2.622,3.511,3.511,0,0,1-.033-.41c-.009-.274-.016-.548-.014-.822q.009-1.166.026-2.331c.007-.5.03-1,.057-1.506.035-.639.048-1.279.067-1.918.016-.548.033-1.1.076-1.643.036-.456.049-.913.061-1.37.015-.549.074-1.095.141-1.638a3.454,3.454,0,0,1,.7-1.683,3.928,3.928,0,0,1,.938-.876,5.778,5.778,0,0,1,1.073-.562.712.712,0,0,1,.2-.037.117.117,0,0,1,.114.058,2.13,2.13,0,0,1,.124.243c.14.337.273.675.415,1.011a7.354,7.354,0,0,0,.642,1.2A5.953,5.953,0,0,0,78.219,53.4c.34.127.707.115,1.054.211.223.013.447.034.671.039.314.007.627,0,.941,0a7.386,7.386,0,0,0,1.4-.179,7.225,7.225,0,0,0,2.6-1.229,8.284,8.284,0,0,0,.719-.619,3.891,3.891,0,0,0,.771-1.031c.105-.2.206-.406.3-.614q.292-.654.571-1.315a3.049,3.049,0,0,0,.218-.718c.028-.181.072-.358.111-.536a.535.535,0,0,1,.044-.128.352.352,0,0,1,.253-.2.845.845,0,0,1,.4.018c.217.067.441.081.659.132s.442.08.659.132c.567.134,1.141.229,1.711.352.481.1.964.2,1.444.312a3.935,3.935,0,0,1,1.005.377,2.87,2.87,0,0,1,1.327,1.49c.05.127.093.257.135.387.244.76.443,1.533.662,2.3.239.833.478,1.665.783,2.476a81.629,81.629,0,0,1,4.292,12.415,1.13,1.13,0,0,1,.013.137c.017.595.114,1.181.17,1.773.012.136.039.271.065.406a1.62,1.62,0,0,0,.4.777,2.9,2.9,0,0,0,.456.4c.328.241.669.459,1.012.676.285.181.57.364.849.555a2.269,2.269,0,0,1,.626.612.085.085,0,0,1-.023.117.834.834,0,0,1-.38.125,3.076,3.076,0,0,1-.937-.036c-.153-.033-.309-.053-.463-.082a6.742,6.742,0,0,1-1.909-.631,4.963,4.963,0,0,1-1.25-.917c-.111-.113-.219-.229-.332-.341a1.563,1.563,0,0,0-.5-.335,1.2,1.2,0,0,0-.386-.112c-.157-.011-.313-.028-.47-.028a2.765,2.765,0,0,0-1.235.283c-.142.069-.285.133-.423.21a6.37,6.37,0,0,1-.737.33.28.28,0,0,1-.131,0,.092.092,0,0,1-.055-.038.115.115,0,0,1-.014-.123.407.407,0,0,1,.084-.105,1.549,1.549,0,0,1,.332-.231c.161-.08.322-.16.479-.248a2.72,2.72,0,0,0,.7-.531,1.9,1.9,0,0,0,.522-1.23,3.849,3.849,0,0,0-.111-1.155q-.113-.431-.241-.856c-.073-.239-.146-.479-.217-.72a5.563,5.563,0,0,1-.249-1.48,3.432,3.432,0,0,0-.5-1.684,4.314,4.314,0,0,0-.569-.762c-.138-.149-.282-.294-.428-.436a5.27,5.27,0,0,1-.862-1.134,6.907,6.907,0,0,1-.449-.919q-.579-1.461-1.168-2.917a9,9,0,0,1-.442-1.508c-.1-.468-.184-.94-.274-1.411-.056-.291-.109-.583-.164-.874a1.821,1.821,0,0,0-.156-.451,1.3,1.3,0,0,0-.149-.226.343.343,0,0,0-.426-.09.288.288,0,0,0-.1.09.379.379,0,0,0-.074.258c.03.3.063.59.113.883.1.607.221,1.212.325,1.819.034.2.045.408.066.612Z" transform="translate(-26.92 -18.166)" fill="#cf001c"/>
      <path id="Path_44" data-name="Path 44" d="M79.892,122.268q-9.338,0-18.677,0a4.072,4.072,0,0,1-.842-.031.169.169,0,0,1-.1-.181c.014-.05.025-.1.04-.15.031-.1.062-.2.1-.3a11.131,11.131,0,0,0,.484-2.13,11.522,11.522,0,0,0,.094-1.64,5.349,5.349,0,0,0-.066-.858c-.063-.36-.072-.726-.145-1.086A19.22,19.22,0,0,0,60.306,114c-.023-.074-.035-.152-.052-.228a.191.191,0,0,1,.145-.229c.076-.006.153-.017.229-.018.231,0,.461,0,.692,0q18.484,0,36.969,0c.308,0,.614.01.921.019a.217.217,0,0,1,.182.281c-.009.051-.012.1-.024.154-.018.076-.045.15-.064.226-.146.582-.233,1.176-.323,1.769-.023.155-.029.312-.038.468-.028.522-.025,1.044-.017,1.566a12.82,12.82,0,0,0,.255,2.094c.121.668.335,1.311.5,1.967a.18.18,0,0,1-.117.17c-.05.007-.1.021-.151.024-.1.006-.2.006-.307.007-.231,0-.461,0-.692,0H79.892" transform="translate(-23.19 -42.97)" fill="#124b88"/>
      <path id="Path_45" data-name="Path 45" d="M83.852,106.67H70.323c-.282,0-.563-.006-.845-.019a.17.17,0,0,1-.175-.12,4.852,4.852,0,0,0-.189-.512.59.59,0,0,0-.263-.278,1.092,1.092,0,0,0-.508-.162h-.461a1.233,1.233,0,0,0-.516.137.659.659,0,0,0-.322.323c-.066.14-.115.289-.176.432a.258.258,0,0,1-.173.14.556.556,0,0,1-.152.019c-.128,0-.256,0-.384,0l-7.994.005c-.153,0-.307-.007-.46-.014a.33.33,0,0,1-.3-.38,5.772,5.772,0,0,1,.088-.619c.14-.61.249-1.227.351-1.844.068-.411.1-.829.132-1.245a2.858,2.858,0,0,0-.012-.39,10.592,10.592,0,0,0-.439-2.459,1.445,1.445,0,0,1-.073-.382.26.26,0,0,1,.169-.233c.051-.006.1-.018.153-.021.153-.008.307-.013.461-.019q.538-.018,1.072-.086c.3-.038.613-.051.92-.066.384-.018.766-.036,1.148-.09.279-.039.561-.051.843-.065a8.393,8.393,0,0,0,1.071-.093,5.83,5.83,0,0,1,.843-.066,7.052,7.052,0,0,0,.994-.09,5.836,5.836,0,0,1,.843-.066,9.752,9.752,0,0,0,1.071-.091,7.437,7.437,0,0,1,.766-.06c.487-.019.972-.048,1.457-.1.381-.041.767-.046,1.151-.056.564-.015,1.127-.018,1.691-.029.384-.008.768-.033,1.151-.07.357-.035.715-.049,1.074-.063a13.547,13.547,0,0,0,1.379-.1,8.467,8.467,0,0,1,1.381-.056.5.5,0,0,1,.288.094c.125.092.251.181.377.27a4.282,4.282,0,0,0,1.463.672,5.048,5.048,0,0,0,1.366.189c.077,0,.154,0,.231-.009a6.415,6.415,0,0,0,1.93-.483c.14-.065.275-.14.416-.2a2.511,2.511,0,0,1,.964-.232c.743-.019,1.485,0,2.228.031a2.5,2.5,0,0,1,.381.045,6.2,6.2,0,0,0,1.071.1c.307.007.614.021.922.018q3.574-.029,7.149-.066c.487-.005.973-.026,1.46-.036a1.566,1.566,0,0,1,.458.039.245.245,0,0,1,.182.219.882.882,0,0,1,0,.156c-.125.615-.131,1.245-.212,1.866a5.572,5.572,0,0,0-.045.624c-.007.522-.012,1.044,0,1.566,0,.261.037.52.06.78.012.13.036.258.047.388a11.969,11.969,0,0,0,.411,2.148c.047.175.084.354.125.532a.159.159,0,0,1-.131.162c-.256.006-.512.016-.768.016H83.852m-10.227-1.4v-.013h.307a.446.446,0,0,0,.076-.008c.074-.017.15-.033.223-.056a.78.78,0,0,0,.137-.069.259.259,0,0,0,.07-.343.548.548,0,0,0-.536-.234,1.162,1.162,0,0,0-.749.355.269.269,0,0,0-.079.207.2.2,0,0,0,.168.136l.383.024m-.992-3.46c.29,0,.442,0,.594,0a.942.942,0,0,0,.148-.028.1.1,0,0,0,.093-.107.239.239,0,0,0-.035-.139,1.241,1.241,0,0,0-.446-.287.683.683,0,0,0-.869.256.427.427,0,0,0-.028.071.17.17,0,0,0,.081.189,1.2,1.2,0,0,0,.463.045m-5.771.325c-.093.008-.268.021-.441.042a.512.512,0,0,0-.138.054.188.188,0,0,0-.094.187.261.261,0,0,0,.137.167c.025,0,.049.01.074.011a2.936,2.936,0,0,0,.966-.093.122.122,0,0,0,.066-.036.4.4,0,0,0,.076-.123c.017-.052-.07-.162-.117-.177a1.771,1.771,0,0,0-.529-.031m18.113-3.01c-.144.015-.27.025-.394.044a.439.439,0,0,0-.139.053.244.244,0,0,0-.114.187.234.234,0,0,0,.18.213.741.741,0,0,0,.074.013,2.369,2.369,0,0,0,.809-.152.121.121,0,0,0,.074-.123c0-.148-.092-.268-.209-.259l-.282.023M91.807,102c.145-.012.271-.018.4-.033.048-.006.094-.036.142-.045s.112-.112.118-.18a.217.217,0,0,0-.184-.207.747.747,0,0,0-.149-.006c-.222.041-.443.088-.664.134a.152.152,0,0,0-.1.179.18.18,0,0,0,.157.138c.1.013.2.016.28.021m-30.728,1.376c-.228,0-.379,0-.53,0a.585.585,0,0,0-.143.035.081.081,0,0,0-.06.118.179.179,0,0,0,.154.14,4.291,4.291,0,0,0,.9,0,.2.2,0,0,0,.165-.131c.028-.061.012-.1-.047-.125a1.026,1.026,0,0,0-.441-.043m18.58.8c.145,0,.22,0,.3,0a.863.863,0,0,0,.15-.015.1.1,0,0,0,.09-.095.1.1,0,0,0-.077-.117,1.716,1.716,0,0,0-.747-.014.257.257,0,0,0-.12.079.094.094,0,0,0-.012.073.082.082,0,0,0,.043.047.856.856,0,0,0,.376.042m-1.207-3.4c.116-.007.267-.013.418-.026a.475.475,0,0,0,.141-.045.153.153,0,0,0,.084-.116A.2.2,0,0,0,79,100.4a.51.51,0,0,0-.145-.036c-.277.014-.554.032-.83.052a.2.2,0,0,0-.068.028.147.147,0,0,0-.085.113c-.013.07.038.177.092.188a.924.924,0,0,0,.146.033c.1,0,.2,0,.338,0m7.079,2.342c.088-.008.211-.015.332-.033a.119.119,0,0,0,.027-.221.436.436,0,0,0-.135-.053,1.077,1.077,0,0,0-.507.083.112.112,0,0,0-.054.043.128.128,0,0,0-.016.072.079.079,0,0,0,.032.051c.087.062.189.046.322.058" transform="translate(-22.096 -37.095)" fill="#124b88"/>
      <path id="Path_46" data-name="Path 46" d="M77.145,131.033h22.1c.265,0,.53,0,.795.006a1.679,1.679,0,0,1,.235.036.306.306,0,0,1,.188.238c0,.161,0,.325-.017.485-.06.51-.078,1.022-.1,1.535-.023.567-.041,1.133-.071,1.7a5.973,5.973,0,0,0,.213,2c.052.181.1.363.148.546a1.362,1.362,0,0,1,.026.241.374.374,0,0,1-.277.35,2.539,2.539,0,0,1-.315.029c-.556,0-1.113,0-1.669,0H56.348c-.556,0-1.113,0-1.669,0a1.808,1.808,0,0,1-.395-.032.455.455,0,0,1-.347-.3,2.2,2.2,0,0,1-.116-.552,6.12,6.12,0,0,0-.14-1.042.875.875,0,0,1-.022-.16c-.049-.7-.125-1.4-.135-2.1-.009-.729-.009-1.458-.013-2.187,0-.081,0-.162.006-.243.019-.379.211-.473.5-.521a2.683,2.683,0,0,1,.4-.029c.265,0,.53,0,.795,0H77.145" transform="translate(-20.597 -49.506)" fill="#124b88"/>
      <path id="Path_47" data-name="Path 47" d="M91.124,26.358c-.008.266-.014.532-.025.8a6.524,6.524,0,0,1-.073.672c-.079.548-.2,1.089-.332,1.628-.141.579-.264,1.162-.4,1.742-.052.22-.113.438-.178.655a3.19,3.19,0,0,1-.464.95c-.159.223-.319.446-.482.665a.11.11,0,0,1-.123.022.1.1,0,0,1-.073-.09c0-.081,0-.164,0-.246.01-.266.025-.532.033-.8.007-.226.012-.451.01-.676a3.435,3.435,0,0,0-.023-.429,1.37,1.37,0,0,0-.834-1.116.7.7,0,0,0-.125-.044.392.392,0,0,0-.261.024.957.957,0,0,0-.316.226c-.247.266-.489.534-.734.8-.085.094-.172.188-.261.279a.12.12,0,0,1-.2-.073,1.527,1.527,0,0,1-.007-.184c0-.123.014-.246.018-.369.006-.2.006-.409.014-.614a3.361,3.361,0,0,0-.133-.972,1.692,1.692,0,0,0-.2-.455,1.173,1.173,0,0,0-.457-.44.789.789,0,0,0-.18-.081,1.875,1.875,0,0,0-.8-.055,5.261,5.261,0,0,0-.714.167,8.154,8.154,0,0,0-3.147,1.828,7.279,7.279,0,0,0-.766.855,2.423,2.423,0,0,0-.4.773c-.1.316-.15.64-.237.957-.055.2,0,.41-.065.609a.1.1,0,0,1-.1.056.709.709,0,0,1-.191-.055,4.793,4.793,0,0,1-.848-.494,2.407,2.407,0,0,1-.916-1.255c-.153-.493-.268-.993-.384-1.494-.079-.34-.16-.68-.268-1.014a2.891,2.891,0,0,0-.2-.454,1.513,1.513,0,0,0-.105-.157.368.368,0,0,0-.348-.14,3.047,3.047,0,0,0-.574.17,1.506,1.506,0,0,0-.531.368,3.841,3.841,0,0,0-.852,1.45,5.567,5.567,0,0,0-.257,1.513,1.691,1.691,0,0,1-.03.488c0,.013-.031.024-.05.028a.1.1,0,0,1-.058-.007.093.093,0,0,1-.048-.041c-.153-.407-.31-.812-.454-1.22a4.87,4.87,0,0,1-.287-1.26,11.175,11.175,0,0,1-.113-2.328,4.674,4.674,0,0,1,.077-.795,7.144,7.144,0,0,1,.164-.908,9.7,9.7,0,0,1,1.859-3.914,11.112,11.112,0,0,1,1.39-1.5,7.993,7.993,0,0,1,1.086-.823,6.991,6.991,0,0,1,2.575-1.005,1.924,1.924,0,0,1,.2-.026,10.9,10.9,0,0,1,1.746,0,1.08,1.08,0,0,1,.261.055c.209.072.417.149.621.232a5.461,5.461,0,0,0,.693.231q.452.117.9.248c.257.076.523.11.782.175a1.708,1.708,0,0,0,.467.038,8.143,8.143,0,0,1,1.266.14,5.863,5.863,0,0,1,1.482.565,5.292,5.292,0,0,1,1.673,1.489,5.983,5.983,0,0,1,.869,1.722,10.224,10.224,0,0,1,.377,1.745,9.235,9.235,0,0,1,.054,1.166" transform="translate(-27.933 -7.513)" fill="#cf001c"/>
      <path id="Path_48" data-name="Path 48" d="M89.464,39.175c0,.489,0,.923,0,1.357a2.46,2.46,0,0,1-.1.741c-.237.809-.459,1.623-.694,2.433-.133.459-.3.909-.47,1.355a4.278,4.278,0,0,1-1.867,2.175,6.3,6.3,0,0,1-1.163.533,10.755,10.755,0,0,1-1.357.385,6.053,6.053,0,0,1-1.532.182,3.661,3.661,0,0,1-.926-.1l-.012,0a4.8,4.8,0,0,1-1.4-.442,5.825,5.825,0,0,1-1.308-.832,6.568,6.568,0,0,1-2.018-2.938,8.179,8.179,0,0,1-.236-.857c-.159-.689-.3-1.382-.406-2.082a14.213,14.213,0,0,1-.2-1.769c0-.251-.031-.5-.054-.752a6.337,6.337,0,0,1,.1-1.705,3.474,3.474,0,0,1,.6-1.438c.04-.055.088-.1.132-.155a.15.15,0,0,1,.269.033c.046.128.092.257.128.389.1.352.185.705.277,1.058.121.463.243.926.4,1.38.045.129.09.258.137.386A2.943,2.943,0,0,0,78.824,39.9c.055.04.109.08.166.116a5.818,5.818,0,0,0,1.467.669.493.493,0,0,0,.39-.056.894.894,0,0,0,.446-.724c.025-.2.012-.411.016-.616a3.532,3.532,0,0,1,.608-1.9,4.239,4.239,0,0,1,.577-.69,9.251,9.251,0,0,1,1.255-1.041,5.345,5.345,0,0,1,1.64-.769,2.13,2.13,0,0,1,.8-.058.363.363,0,0,1,.181.085.715.715,0,0,1,.28.526,4.3,4.3,0,0,1-.056,1.228,5.721,5.721,0,0,0-.091,1.159c0,.091.01.182.019.273a.489.489,0,0,0,.392.414,2.156,2.156,0,0,0,.8-.034,1.753,1.753,0,0,0,1.036-.713c.09-.13.166-.271.245-.409.056-.1.1-.2.159-.3a.083.083,0,0,1,.053-.039.108.108,0,0,1,.113.057,1.09,1.09,0,0,1,.161.516c.006.183.007.365,0,.548-.006.365-.015.731-.022,1.042m-9.781,5.661v0c.008-.239.012-.352.016-.466a.165.165,0,0,0-.1-.158.184.184,0,0,0-.186.034.433.433,0,0,0-.046.05,1.319,1.319,0,0,0-.186.529,1.045,1.045,0,0,0,.093.788,1.218,1.218,0,0,0,.327.32,2.681,2.681,0,0,0,.621.263,6.556,6.556,0,0,0,.713.186,3.837,3.837,0,0,0,.853.067,1.276,1.276,0,0,0,.275-.039,2.755,2.755,0,0,0,.32-.1.563.563,0,0,0,.367-.369.443.443,0,0,0,.015-.134c0-.079-.063-.127-.122-.107-.169.058-.314.169-.488.223a1.366,1.366,0,0,1-.46.076,2.036,2.036,0,0,1-.333-.033c-.393-.083-.654-.121-1.055-.223a.726.726,0,0,1-.614-.622c-.01-.129-.01-.259-.011-.28m5.4-1.438c.2-.04.394-.072.589-.117a.437.437,0,0,0,.309-.234.17.17,0,0,0-.046-.18.4.4,0,0,0-.316-.079,2.875,2.875,0,0,1-.794.076H84.1c-.312,0-.623,0-.934,0a1.884,1.884,0,0,0-.263.035.189.189,0,0,0-.1.271.275.275,0,0,0,.089.1,1.517,1.517,0,0,0,.3.136,4.089,4.089,0,0,0,1.9-.006m-.38-1.32h.008a2.486,2.486,0,0,1,.958.144c.19.06.372.147.558.222a.273.273,0,0,0,.334-.147.182.182,0,0,0-.017-.192.472.472,0,0,0-.139-.142,1.588,1.588,0,0,0-.362-.169,3.652,3.652,0,0,0-1.118-.168,3.136,3.136,0,0,0-.63.066,2.138,2.138,0,0,1-.244.045,9.337,9.337,0,0,0-1.286.3c-.051.014-.083.036-.086.088a.079.079,0,0,0,.076.083,3.386,3.386,0,0,0,1-.056,4.832,4.832,0,0,1,.952-.072m-7.2-1.034a2.55,2.55,0,0,0-.6.049.369.369,0,0,0-.221.142c-.037.05-.037.078.023.1a.362.362,0,0,0,.058.03c.241.051.482.1.724.149.132.026.268.031.4.066a4.192,4.192,0,0,0,.8.109.09.09,0,0,0,.092-.077.114.114,0,0,0-.038-.122,1.648,1.648,0,0,0-1.1-.451c-.044,0-.089,0-.134,0m.871,1.581h.008c.17.016.347.034.523.048a.406.406,0,0,0,.132-.014.143.143,0,0,0,.091-.087.089.089,0,0,0-.028-.121.455.455,0,0,0-.239-.112c-.528-.086-1.053-.192-1.58-.286a.472.472,0,0,0-.133,0,.293.293,0,0,0-.223.129.1.1,0,0,0-.014.122.3.3,0,0,0,.2.168,5.992,5.992,0,0,0,1.263.154" transform="translate(-29.139 -13.592)" fill="#cf001c"/>
      <path id="Path_49" data-name="Path 49" d="M110.964,94.527c-.225.01-.4.016-.584.026-2.073.123-4.148.112-6.224.076a6.527,6.527,0,0,1-.766-.058c-.356-.05-.713-.076-1.072-.092a4.982,4.982,0,0,1-.612-.049,9.04,9.04,0,0,0-1.147-.112,6.159,6.159,0,0,1-.688-.066,1.8,1.8,0,0,0-.835.037,2.433,2.433,0,0,1-.456.058,2.047,2.047,0,0,1-1.564-.515,7.777,7.777,0,0,1-1.13-1.17,1.111,1.111,0,0,1-.077-.135.283.283,0,0,1,.055-.289,1.346,1.346,0,0,1,.237-.195c.269-.15.542-.3.82-.429a14.208,14.208,0,0,1,2.752-.963,12.145,12.145,0,0,1,1.442-.214,4.667,4.667,0,0,0,.535-.052,6.335,6.335,0,0,1,1.533,0c.255.029.511.051.766.066a5.5,5.5,0,0,1,.992.108,1.653,1.653,0,0,0,.3.04,6.59,6.59,0,0,1,.989.132c.2.043.413.019.61.071.473.125.969.1,1.438.244.488.023.958.172,1.444.206a2.277,2.277,0,0,1,.379.059,3.631,3.631,0,0,0,.608.091,3.547,3.547,0,0,1,.531.079c.175.038.354.053.532.077.152.021.307.031.456.066a3.686,3.686,0,0,0,.607.092,3.45,3.45,0,0,1,.531.083,3.493,3.493,0,0,0,.456.068,4.076,4.076,0,0,1,.607.093,2.492,2.492,0,0,0,.379.058,4.505,4.505,0,0,1,.683.1,3.172,3.172,0,0,0,.456.063,3.546,3.546,0,0,1,.531.082,2.5,2.5,0,0,0,.378.063,5.578,5.578,0,0,1,.76.113,3.334,3.334,0,0,0,.425.082,1.334,1.334,0,0,1,.435.147.174.174,0,0,1,.052.052.182.182,0,0,1,.038.068,4.05,4.05,0,0,1,.014,1.246.494.494,0,0,1-.2.325.46.46,0,0,1-.2.1,2.8,2.8,0,0,1-.582.05c-.487,0-.974,0-1.46,0-1.23,0-2.46,0-3.689,0-.512,0-1.025.009-1.491.014" transform="translate(-36.871 -34.318)" fill="#124b88"/>
      <path id="Path_50" data-name="Path 50" d="M54.171,94.7c.588-.016.614-.029,1.2-.051.234-.009-.092-.032.14-.068a7.772,7.772,0,0,1,.843-.08,5.067,5.067,0,0,0,.633-.052c.349-.062.7-.082,1.052-.116.609-.058,1.214-.154,1.824-.2a4.38,4.38,0,0,1,.911-.112A1.454,1.454,0,0,0,61.057,94c.53-.131,1.078-.1,1.61-.211a2.98,2.98,0,0,1,.419-.06,5.514,5.514,0,0,0,.91-.116,2.625,2.625,0,0,1,.421-.048,4.551,4.551,0,0,0,.7-.09,2.806,2.806,0,0,1,.42-.06,5.2,5.2,0,0,0,.91-.12,1.992,1.992,0,0,1,.28-.036c.07-.007.141-.012.211-.012.332,0,.651-.11.979-.138A6.469,6.469,0,0,0,68.9,93a1.141,1.141,0,0,1,.209-.034c.962-.056,1.917-.231,2.885-.2.564.018,1.129.009,1.693.014a3.308,3.308,0,0,1,.7.075,3.917,3.917,0,0,0,.489.073,4.433,4.433,0,0,1,.557.093c.207.045.419.06.629.093a.916.916,0,0,1,.4.14.121.121,0,0,1,.037.135.237.237,0,0,1-.026.073A3.593,3.593,0,0,1,74.96,94.82a2.735,2.735,0,0,1-.952.268c-.376.024-.752.045-1.128.039-.306,0-.611-.009-.918-.013a7.529,7.529,0,0,0-.986.053c-.3.036-.61.047-.915.061a10.118,10.118,0,0,0-1.125.095,6.441,6.441,0,0,1-.7.058,10.324,10.324,0,0,0-1.2.1,6.137,6.137,0,0,1-.7.055,11.112,11.112,0,0,0-1.125.1,7.109,7.109,0,0,1-.774.061c-.611.023-1.223.039-1.831.117-.21.027-.423.03-.634.039a7.016,7.016,0,0,0-.983.1,5.723,5.723,0,0,1-.7.062c-.329.018-.657.045-.985.088-.279.038-.562.053-.844.063-.635.021-1.27.046-1.9.107-.374.036-.752.043-1.128.046-2.023.014-2.922.024-4.945.034a1.9,1.9,0,0,1-.491-.029.159.159,0,0,1-.1-.176,2.624,2.624,0,0,1,.148-.353A1.938,1.938,0,0,1,50.892,95a2.325,2.325,0,0,1,.6-.207,5.769,5.769,0,0,1,1.122-.107c.518.006,1.035,0,1.553,0V94.7" transform="translate(-19.202 -35.222)" fill="#124b88"/>
      <path id="Path_51" data-name="Path 51" d="M56.236,90.3c.486-.006.972-.009,1.457-.017a10.173,10.173,0,0,0,1.453-.105,6.846,6.846,0,0,1,.726-.054,5.88,5.88,0,0,0,.8-.085,4.043,4.043,0,0,1,.506-.065,3.775,3.775,0,0,0,.793-.117.623.623,0,0,1,.143-.025c.317-.018.622-.112.934-.156s.619-.135.926-.2a5.819,5.819,0,0,0,.915-.253c.71-.172,1.4-.413,2.109-.6a15.515,15.515,0,0,1,1.7-.407c.394-.144.817-.12,1.215-.248a1.522,1.522,0,0,1,.289-.036,3.433,3.433,0,0,0,.434-.05,5.437,5.437,0,0,1,1.232-.114c.413-.006.825-.005,1.238,0a4.162,4.162,0,0,1,1.156.128,8.914,8.914,0,0,1,1.281.286c.5.121.994.238,1.487.373.212.058.423.117.634.172a.73.73,0,0,1,.313.192,1.217,1.217,0,0,1,.322.514c.025.073.038.151.058.226a.8.8,0,0,1-.068.6.212.212,0,0,1-.1.1.753.753,0,0,1-.427.068,1.966,1.966,0,0,1-.429-.085c-.253-.1-.522-.12-.778-.2a2.735,2.735,0,0,0-.357-.073c-.167-.03-.335-.06-.5-.085s-.336-.056-.506-.065a22.208,22.208,0,0,0-2.476-.031c-.17.01-.34.013-.509.019-.122,0-.244,0-.364.014-.6.056-1.206.152-1.811.2a4.442,4.442,0,0,1-.867.117,2.126,2.126,0,0,0-.36.053,3.7,3.7,0,0,1-.722.1.7.7,0,0,0-.073.006c-.288.044-.575.1-.865.13a5.325,5.325,0,0,0-.867.115.35.35,0,0,1-.071.014c-.535.024-1.057.156-1.59.2a3.121,3.121,0,0,0-.433.057,4.849,4.849,0,0,1-.722.1,2.652,2.652,0,0,0-.432.066,4.518,4.518,0,0,1-.576.088c-.145.016-.288.046-.432.071s-.286.059-.431.075a3.888,3.888,0,0,0-.575.1,2.783,2.783,0,0,1-.36.058c-.121.016-.244.011-.362.038a7.58,7.58,0,0,1-1.375.152,1.946,1.946,0,0,0-.218.018,14.681,14.681,0,0,1-1.963.119,8.672,8.672,0,0,0-1.166.1c-.217.024-.436.032-.654.037-.656.016-.731.026-1.387.038a.144.144,0,0,1-.122-.063.109.109,0,0,1,0-.145,16.258,16.258,0,0,1,1.262-1.3.7.7,0,0,1,.121-.088.415.415,0,0,1,.2-.079c.17,0-.24-.012-.07-.013.632,0,.683,0,1.314,0V90.3" transform="translate(-20.546 -33.357)" fill="#124b88"/>
      <path id="Path_52" data-name="Path 52" d="M117.221,89.156l-.036.473a.26.26,0,0,1-.185.2,2.066,2.066,0,0,1-.755-.033,9.539,9.539,0,0,0-1.1-.147c-.114-.009-.227-.043-.341-.061-.137-.022-.273-.048-.41-.058a4.867,4.867,0,0,1-.89-.121,1.948,1.948,0,0,0-.343-.042,3.416,3.416,0,0,1-.683-.1,1.906,1.906,0,0,0-.341-.053,4.756,4.756,0,0,1-.613-.1c-.338-.075-.68-.127-1.019-.2-.405-.089-.809-.189-1.217-.267-.385-.073-.763-.194-1.153-.233-.423-.135-.865-.134-1.29-.249a.643.643,0,0,0-.137-.023c-.827-.05-1.646-.2-2.478-.192s-1.656-.016-2.485-.023c-.253,0-.506.009-.759.008a6.94,6.94,0,0,0-2.618.612,7.731,7.731,0,0,1-.776.319.122.122,0,0,1-.129-.034.512.512,0,0,1,.061-.135c.065-.072.141-.133.212-.2a8.415,8.415,0,0,1,2.839-1.729,12.582,12.582,0,0,1,1.8-.5,6.964,6.964,0,0,1,.746-.151c.251-.024.5-.095.748-.135s.5-.068.754-.1a.577.577,0,0,1,.337.055.331.331,0,0,1,.194.207c.042.149.077.3.116.451a.545.545,0,0,0,.154.254,1.411,1.411,0,0,0,.346.253.76.76,0,0,0,.536.081,5.027,5.027,0,0,0,1.5-.561,2.885,2.885,0,0,1,.715-.281.609.609,0,0,1,.341.011,1.6,1.6,0,0,1,.669.391c.157.153.309.312.466.465a6.889,6.889,0,0,0,2.321,1.5,10.835,10.835,0,0,0,1.337.371.838.838,0,0,0,.137.018,11.822,11.822,0,0,0,2.137.013.624.624,0,0,0,.265-.077.938.938,0,0,0,.345-.37c.1-.18.106-.4.218-.57.022-.033.079-.039.122-.047.018,0,.044.018.06.034a.824.824,0,0,1,.248.541c.015.181.016.364.023.54" transform="translate(-37.516 -32.65)" fill="#124b88"/>
      <path id="Path_53" data-name="Path 53" d="M128.471,110.979a8.971,8.971,0,0,1-.44,2.763,14.081,14.081,0,0,1-.73,1.887c-.055.117-.111.234-.169.35-.42.835-.809,1.684-1.185,2.539-.125.285-.261.565-.4.844a.668.668,0,0,1-.146.176.088.088,0,0,1-.134,0,.312.312,0,0,1-.09-.121c-.159-.737-.334-1.472-.463-2.214a8.233,8.233,0,0,1-.175-1.785c.006-.13,0-.261.017-.39a17.784,17.784,0,0,1,.307-2.005c.063-.279.145-.553.208-.832a2.046,2.046,0,0,1,.365-.767c.123-.166.25-.33.387-.484q.616-.7,1.244-1.383c.3-.323.6-.639.9-.956a.141.141,0,0,1,.239.063,1.167,1.167,0,0,1,.05.147c.05.282.1.563.144.847a9.565,9.565,0,0,1,.068,1.326" transform="translate(-47.933 -41.116)" fill="#124b88"/>
      <path id="Path_54" data-name="Path 54" d="M127.777,101.127q0,.9,0,1.8a3.161,3.161,0,0,1-.017.39.644.644,0,0,1-.081.214,1.1,1.1,0,0,1-.137.188q-1.1,1.254-2.2,2.506a.373.373,0,0,1-.124.088.093.093,0,0,1-.129-.038,1.817,1.817,0,0,1-.128-.283,12,12,0,0,1-.536-2.75,19.984,19.984,0,0,1-.016-2.343,3.76,3.76,0,0,1,.116-.77c.093-.351.167-.708.259-1.061a3.1,3.1,0,0,1,.157-.439.221.221,0,0,1,.116-.088.4.4,0,0,1,.149-.029q1.035-.016,2.07-.028a1.561,1.561,0,0,1,.228.028.342.342,0,0,1,.24.273c.009.129.021.259.021.389,0,.651,0,1.3,0,1.954Z" transform="translate(-47.876 -37.358)" fill="#124b88"/>
      <path id="Path_55" data-name="Path 55" d="M108.282,82.968l-.545-.015c-.056,0-.087-.026-.086-.078a.087.087,0,0,1,.022-.057c.051-.043.1-.084.158-.123.183-.13.37-.254.55-.387a7.1,7.1,0,0,0,1.725-1.79.754.754,0,0,1,.209-.259.082.082,0,0,1,.116.023,1.25,1.25,0,0,1,.111.389,2.613,2.613,0,0,1,.088.673,1.884,1.884,0,0,1-.159.795.882.882,0,0,1-.388.455,2.123,2.123,0,0,1-.425.2,3.171,3.171,0,0,1-.918.165c-.133,0-.268.008-.458.014" transform="translate(-41.435 -30.55)" fill="#cf001c"/>
      <path id="Path_56" data-name="Path 56" d="M93.847,97.082a4.388,4.388,0,0,1-1.346-.27,2.26,2.26,0,0,1-.57-.216c-.065-.043-.1-.136-.05-.185a.671.671,0,0,1,.046-.062c.485-.418.974-.832,1.482-1.221a.191.191,0,0,1,.212.014c.02.017.042.029.061.047q.7.66,1.4,1.322a.636.636,0,0,1,.082.129.107.107,0,0,1-.015.142.9.9,0,0,1-.469.238,3.039,3.039,0,0,1-.829.061" transform="translate(-35.357 -36.096)" fill="#124b88"/>
      <path id="Path_57" data-name="Path 57" d="M105.724,58.425a.484.484,0,0,1,.036.052.242.242,0,0,1,.022.054c-.04.021-.062,0-.058-.06a.286.286,0,0,1,.017-.061Z" transform="translate(-40.693 -22.401)" fill="#1a1818"/>
      <path id="Path_58" data-name="Path 58" d="M83.429,109.292l-.383-.024a.193.193,0,0,1-.168-.137.263.263,0,0,1,.079-.206,1.161,1.161,0,0,1,.749-.356.547.547,0,0,1,.536.235.258.258,0,0,1-.069.342.782.782,0,0,1-.137.069c-.073.024-.148.039-.223.056a.35.35,0,0,1-.076.007h-.308v.013" transform="translate(-31.9 -41.12)" fill="#fff"/>
      <path id="Path_59" data-name="Path 59" d="M81.816,103.832a1.2,1.2,0,0,1-.463-.045.17.17,0,0,1-.081-.189.454.454,0,0,1,.028-.071.68.68,0,0,1,.869-.256,1.218,1.218,0,0,1,.445.287.238.238,0,0,1,.035.139.1.1,0,0,1-.092.105,1.025,1.025,0,0,1-.148.029c-.152,0-.3,0-.594,0" transform="translate(-31.28 -39.12)" fill="#fff"/>
      <path id="Path_60" data-name="Path 60" d="M72.357,104.72a1.833,1.833,0,0,1,.529.031c.048.016.133.125.117.177a.429.429,0,0,1-.076.124.131.131,0,0,1-.066.036,2.939,2.939,0,0,1-.966.095c-.025,0-.049-.009-.074-.012a.264.264,0,0,1-.137-.167.188.188,0,0,1,.095-.187.49.49,0,0,1,.137-.054c.174-.021.349-.034.441-.042" transform="translate(-27.591 -39.685)" fill="#fff"/>
      <path id="Path_61" data-name="Path 61" d="M101.82,99.905c.081-.007.181-.016.282-.023.117-.009.213.111.21.259a.122.122,0,0,1-.074.123,2.371,2.371,0,0,1-.81.151c-.025,0-.049-.01-.074-.012a.235.235,0,0,1-.18-.213.244.244,0,0,1,.114-.187.423.423,0,0,1,.14-.054c.124-.019.25-.029.394-.044" transform="translate(-38.941 -37.88)" fill="#fff"/>
      <path id="Path_62" data-name="Path 62" d="M113.057,104.237c-.081-.006-.181-.008-.281-.021a.181.181,0,0,1-.157-.139.153.153,0,0,1,.1-.179c.221-.046.442-.093.664-.134a.7.7,0,0,1,.149.007.217.217,0,0,1,.184.207c-.006.068-.055.167-.118.18s-.093.039-.142.046c-.125.014-.25.021-.4.033" transform="translate(-43.346 -39.328)" fill="#fff"/>
      <path id="Path_63" data-name="Path 63" d="M62.915,106.714a1,1,0,0,1,.44.043.081.081,0,0,1,.048.125.2.2,0,0,1-.165.131,4.294,4.294,0,0,1-.9,0,.18.18,0,0,1-.155-.14.081.081,0,0,1,.06-.118.588.588,0,0,1,.144-.035c.15-.005.3,0,.53,0" transform="translate(-23.931 -40.428)" fill="#fff"/>
      <path id="Path_64" data-name="Path 64" d="M93.32,107.824a.87.87,0,0,1-.376-.043.079.079,0,0,1-.043-.046.094.094,0,0,1,.012-.073.267.267,0,0,1,.12-.079,1.715,1.715,0,0,1,.747.014.1.1,0,0,1,.077.116.1.1,0,0,1-.09.095,1,1,0,0,1-.15.016c-.075,0-.151,0-.3,0" transform="translate(-35.757 -40.741)" fill="#fff"/>
      <path id="Path_65" data-name="Path 65" d="M91.26,102.315c-.137,0-.238,0-.338,0a.942.942,0,0,1-.146-.033c-.054-.012-.1-.118-.091-.189a.147.147,0,0,1,.085-.113.2.2,0,0,1,.068-.028c.277-.019.554-.038.83-.052a.517.517,0,0,1,.145.037.2.2,0,0,1,.09.192.15.15,0,0,1-.083.115.463.463,0,0,1-.141.045c-.151.013-.3.019-.418.026" transform="translate(-34.904 -38.633)" fill="#fff"/>
      <path id="Path_66" data-name="Path 66" d="M102.907,106.116c-.133-.012-.235,0-.322-.058a.079.079,0,0,1-.032-.051.128.128,0,0,1,.016-.072.112.112,0,0,1,.054-.043,1.077,1.077,0,0,1,.507-.083.437.437,0,0,1,.135.053.119.119,0,0,1-.027.221c-.121.018-.244.025-.332.033" transform="translate(-39.473 -40.091)" fill="#fff"/>
      <path id="Path_67" data-name="Path 67" d="M109.572,140.3c-.177,0-.352,0-.529,0a1.34,1.34,0,0,1-.148-.024c-.053-.007-.156-.1-.153-.152a.249.249,0,0,1,.038-.143,1.544,1.544,0,0,1,.615-.434.427.427,0,0,1,.3-.017,1.974,1.974,0,0,1,.723.4.211.211,0,0,1,.073.2.2.2,0,0,1-.161.145c-.25.021-.5.027-.753.038V140.3" transform="translate(-41.855 -52.669)" fill="#fff"/>
      <path id="Path_68" data-name="Path 68" d="M71.149,133.1a.217.217,0,0,1-.117.18.611.611,0,0,1-.14.055c-.378.043-.752.108-1.126.176a.768.768,0,0,1-.151-.008.14.14,0,0,1-.106-.169,1,1,0,0,1,.338-.411.907.907,0,0,1,1.065-.1.4.4,0,0,1,.181.135,1.2,1.2,0,0,1,.056.14" transform="translate(-26.752 -50.129)" fill="#fff"/>
      <path id="Path_69" data-name="Path 69" d="M90.478,137.058a1.623,1.623,0,0,1-.465-.029.139.139,0,0,1-.108-.1.162.162,0,0,1,.021-.144.558.558,0,0,1,.054-.055,1.288,1.288,0,0,1,.242-.189.642.642,0,0,1,.286-.1.911.911,0,0,1,.655.15,1,1,0,0,1,.234.2.127.127,0,0,1,.02.139.136.136,0,0,1-.113.094,2.15,2.15,0,0,1-.225.033c-.153.006-.306,0-.6,0" transform="translate(-34.602 -51.522)" fill="#fff"/>
      <path id="Path_70" data-name="Path 70" d="M99.921,138.366a1.775,1.775,0,0,1-.6-.06.17.17,0,0,1-.065-.192.341.341,0,0,1,.036-.066.625.625,0,0,1,.114-.1,1.181,1.181,0,0,1,.875-.169,1.121,1.121,0,0,1,.428.142.215.215,0,0,1,.01.275.554.554,0,0,1-.342.147c-.177.017-.354.02-.455.025" transform="translate(-38.199 -52.015)" fill="#fff"/>
      <path id="Path_71" data-name="Path 71" d="M80.9,135.334c-.061,0-.137-.008-.212-.011a.208.208,0,0,1-.17-.127.144.144,0,0,1,.028-.142c.017-.019.03-.051.05-.057a2.473,2.473,0,0,1,.826-.076c.052,0,.13.107.127.167a.2.2,0,0,1-.18.2l-.469.041" transform="translate(-30.987 -50.956)" fill="#fff"/>
      <path id="Path_72" data-name="Path 72" d="M55.663,126.851c-.018-.011-.348-.033-.229-.453.051-.181.1-.362.164-.541.076-.23.162-.456.238-.686a1.338,1.338,0,0,0,.044-.238c.009-.068-.019-.107-.073-.1a.1.1,0,0,0-.068.028c-.552.691-1.075,1.4-1.587,2.125-.3.422.149.606.375.606H99.994a.528.528,0,0,0,.523-.533h-.036a.166.166,0,0,0,0-.042c0-.027,0-.054,0-.081q-.051-.849-.1-1.7c-.012-.189-.023-.377-.046-.565a2.453,2.453,0,0,0-.077-.3.11.11,0,0,0-.123-.083.193.193,0,0,0-.134.07,1.192,1.192,0,0,0-.136.211l-.1.1a.148.148,0,0,0-.06.048,1.212,1.212,0,0,0-.127.195c-.256.54-.523,1.076-.742,1.633a3.669,3.669,0,0,1-.154.357c-.009.018-.018.035-.029.052a.927.927,0,0,1-.188.1H95.619c-.256-.018-.514-.032-.771-.036-1.06-.015-2.12-.03-3.179-.03q-17.131,0-34.261-.005h-.735a3.927,3.927,0,0,1-1.009-.133" transform="translate(-20.804 -46.986)" fill="#124b88"/>
      <path id="Path_73" data-name="Path 73" d="M95.732,14.319a1.332,1.332,0,0,0,.258-.038.08.08,0,0,0,.046-.105c-.037-.11-.135-.17-.213-.246-1.141-1.107-2.491-2.559-3.632-3.665q-.19-.184-.373-.375a.687.687,0,0,1-.189-.417c-.009-.088-.01-.177-.012-.265a.17.17,0,0,1,.172-.161c.1.016.2.033.3.054a.587.587,0,0,1,.269.135c.079.068.157.138.233.21q.55.528,1.1,1.058c.872.844,1.738,1.7,2.582,2.57.154.159.306.318.453.484a3.377,3.377,0,0,1,.548.828,2.655,2.655,0,0,1,.227.7,3.273,3.273,0,0,1-.862,2,2.736,2.736,0,0,0-.642,1.5,12.245,12.245,0,0,1-.032,2.139c-.086.229-.162.461-.247.69a3.487,3.487,0,0,0-.165.85,1.144,1.144,0,0,0,.008.267c.016.132.045.263.063.4a4.139,4.139,0,0,0,.481,1.378,1.311,1.311,0,0,0,.153.216.331.331,0,0,0,.226.122,6.011,6.011,0,0,0,1.282-.044.41.41,0,0,0,.351-.4c0-.008,0-.015,0-.023a1.8,1.8,0,0,0-.024-.2c-.111-.568-.228-1.135-.286-1.712a1.8,1.8,0,0,0-.026-.2,3.328,3.328,0,0,1,.429-2.708,1.381,1.381,0,0,0,.4-1.028,1.962,1.962,0,0,0-.054-.464,4.009,4.009,0,0,1-.107-.794,9.941,9.941,0,0,1,.008-1.27c.03-.378.057-.756.071-1.134a1.349,1.349,0,0,1,.035-.2.269.269,0,0,1,.191-.163c.153,0,.307,0,.458.011a8.587,8.587,0,0,0,.984.024,1.476,1.476,0,0,0,.631-.162.315.315,0,0,0,.164-.267.816.816,0,0,0-.209-.549,4.252,4.252,0,0,0-.376-.372q-.782-.715-1.567-1.425Q96.353,9.307,93.844,7.1a7.963,7.963,0,0,0-.663-.546,3.166,3.166,0,0,0-.754-.4,1.323,1.323,0,0,0-.383-.08c-.241-.012-.482-.014-.721-.039-.305-.032-.611-.036-.917-.04-.328,0-.657,0-.984-.028-.394-.033-.787-.036-1.18-.038s-.788,0-1.181-.024-.787-.033-1.18-.029c-.635.006-1.269.006-1.9-.037-.261-.017-.525-.005-.787,0a.852.852,0,0,0-.2.019.694.694,0,0,0-.543.432.509.509,0,0,0-.018.328,1.035,1.035,0,0,0,.253.461c.156.156.317.308.479.458q3.232,2.989,6.514,5.921c.1.088.2.176.3.263a1.869,1.869,0,0,0,.575.33.9.9,0,0,0,.3.056c.137,0,.274,0,.412,0,.656-.013,3.74.243,4.472.217" transform="translate(-31.722 -2.777)" fill="#124b88"/>
      <path id="Path_74" data-name="Path 74" d="M96.773,17.736a.254.254,0,0,0-.149-.121,2.71,2.71,0,0,0-.586-.051c-.393-.022-.787-.033-1.179-.071q-.49-.049-.981-.07c-.306-.013-.613-.023-.916-.061-.326-.04-.653-.062-.98-.075a7.15,7.15,0,0,1-.849-.075,3.6,3.6,0,0,0-.456-.05.688.688,0,0,1-.466-.216q-.193-.181-.389-.36-1.882-1.716-3.767-3.431c-.261-.238-.529-.467-.795-.7-.049-.043-.1-.08-.157-.12a.152.152,0,0,0-.217.073q-.463,1.5-.925,2.994a1.106,1.106,0,0,0-.037.2,2.708,2.708,0,0,0,.274,1.62,4.267,4.267,0,0,0,.645.923,6.59,6.59,0,0,0,1.044.912,19.75,19.75,0,0,0,5.308,2.31.048.048,0,0,1,.02,0c.151.026.3.043.451.081s.283.073.424.108q.325.055.65.088a18.269,18.269,0,0,0,2.142.125.739.739,0,0,0,.234-.116.383.383,0,0,0,.2-.326c0-.156,0-.312,0-.468a1.665,1.665,0,0,1,.024-.266A2.159,2.159,0,0,1,96.18,19.2a1.057,1.057,0,0,1,.108-.076,1.028,1.028,0,0,0,.519-.806,1.669,1.669,0,0,0,.029-.2,1.823,1.823,0,0,0-.017-.265.335.335,0,0,0-.047-.123" transform="translate(-32.293 -5.199)" fill="#124b88"/>
      <path id="Path_75" data-name="Path 75" d="M100.6,62.613a2.325,2.325,0,0,0,.061,1.87c.49.873,3.121,2.931,3.06,5.3s-.734,4.537-5.079,6.672-3.3,3.616-3.3,3.616a5.555,5.555,0,0,1,2.57-2.37c1.652-.624,6.976-2.805,7.465-5.923s-3.831-6.871-4.222-7.482c-.8-1.247-.55-1.683-.55-1.683" transform="translate(-36.653 -23.97)" fill="#124b88"/>
    </g>
  </g>
</svg>
