<svg id="Group_43" data-name="Group 43" xmlns="http://www.w3.org/2000/svg" xmlns:xlink="http://www.w3.org/1999/xlink" width="86.34" height="120.213" viewBox="0 0 86.34 120.213">
  <defs>
    <clipPath id="clip-path">
      <rect id="Rectangle_49" data-name="Rectangle 49" width="86.34" height="120.213" fill="none"/>
    </clipPath>
    <clipPath id="clip-path-2">
      <rect id="Rectangle_48" data-name="Rectangle 48" width="39.899" height="44.495" fill="none"/>
    </clipPath>
  </defs>
  <g id="Group_42" data-name="Group 42" clip-path="url(#clip-path)">
    <path id="Path_181" data-name="Path 181" d="M26.619,19.615a12.019,12.019,0,0,1,1.186,3.508,15.686,15.686,0,0,1,.08,6.51A13.908,13.908,0,0,1,25.6,34.867a18.239,18.239,0,0,1-4.174,4.291,39.664,39.664,0,0,1-5.646,3.534A45.743,45.743,0,0,1,11.321,44.8l-.042.016a3.867,3.867,0,0,1-5.2-2.85L.124,11.892a6.474,6.474,0,0,1,2.79-6.668l.04-.027c1.337-.878,2.938-1.76,4.752-2.709A27.554,27.554,0,0,1,12.663.436,10.153,10.153,0,0,1,16.98.109a5.735,5.735,0,0,1,3.314,1.857,9.548,9.548,0,0,1,1.972,4.623,12.431,12.431,0,0,1-.041,5.136A13.433,13.433,0,0,1,21.04,15.2a.713.713,0,0,0,.565,1.028,8.534,8.534,0,0,1,1.137.206,5.868,5.868,0,0,1,2.132,1.039,7.834,7.834,0,0,1,1.745,2.139m-7.036,9.87a6.049,6.049,0,0,0,0-2.469c-.346-1.748-1.059-2.677-2.154-2.868a6.808,6.808,0,0,0-3.925.975l-1.407.735a.717.717,0,0,0-.371.775l1.529,7.723a.718.718,0,0,0,.979.523c.02-.008.037-.017.056-.026l1.205-.63a9.6,9.6,0,0,0,1.74-1.134A8.911,8.911,0,0,0,18.7,31.516a5.31,5.31,0,0,0,.882-2.032M8.51,10.369l1.4,7.07a.717.717,0,0,0,1.036.5L11.4,17.7a6.768,6.768,0,0,0,2.861-2.528,5.4,5.4,0,0,0,.443-3.866,3.472,3.472,0,0,0-.747-1.673,2.169,2.169,0,0,0-1.234-.7,2.86,2.86,0,0,0-1.448.129,6.765,6.765,0,0,0-1.435.571l-.65.34Z" transform="translate(0 0)" fill="#124b88"/>
    <g id="Group_41" data-name="Group 41" transform="translate(46.441 23.489)">
      <g id="Group_40" data-name="Group 40">
        <g id="Group_39" data-name="Group 39" clip-path="url(#clip-path-2)">
          <g id="Group_38" data-name="Group 38" style="isolation: isolate">
            <g id="Group_37" data-name="Group 37">
              <g id="Group_36" data-name="Group 36" clip-path="url(#clip-path-2)">
                <g id="Group_35" data-name="Group 35">
                  <g id="Group_34" data-name="Group 34">
                    <g id="Group_33" data-name="Group 33" clip-path="url(#clip-path-2)">
                      <path id="Path_182" data-name="Path 182" d="M111.882,41.685a25.952,25.952,0,0,1,4.793,1.918,19.274,19.274,0,0,1,2.752,1.7,2.579,2.579,0,0,1,.612,3.5,19.184,19.184,0,0,1-1.7,2.229q-.835.939-1.616,1.759a2.588,2.588,0,0,1-3.313.357l-.016-.01c-.469-.323-.938-.646-1.424-.933-.062-.036-.126-.07-.19-.1-.437-.216-.876-.432-1.345-.658-.059-.029-.12-.055-.182-.08-.491-.192-1.019-.393-1.6-.567a10.017,10.017,0,0,0-8.347,1.039c-2.543,1.565-4.79,4.43-6.66,8.521Q88.152,72.374,97.922,75.3a14.542,14.542,0,0,0,3.495.658c.488.042,1.036.065,1.644.073a2.57,2.57,0,0,1,2.532,2.812,31.082,31.082,0,0,1-.772,4.458,2.569,2.569,0,0,1-2.4,1.929c-.533.021-1.045.027-1.548.013a23.336,23.336,0,0,1-2.911-.193c-.859-.116-1.7-.271-2.541-.429-.046-.008-.092-.018-.137-.029-.823-.2-1.684-.411-2.526-.663a19.191,19.191,0,0,1-7.523-4.043,13.926,13.926,0,0,1-3.948-6.123,18.6,18.6,0,0,1-.547-7.721,31.522,31.522,0,0,1,2.643-8.753,34.194,34.194,0,0,1,5.094-8.068,26.208,26.208,0,0,1,6.747-5.636,21.265,21.265,0,0,1,7.921-2.669,21,21,0,0,1,8.737.772" transform="translate(-80.571 -40.752)" fill="#cf001c"/>
                    </g>
                  </g>
                </g>
              </g>
            </g>
          </g>
        </g>
      </g>
    </g>
    <path id="Path_183" data-name="Path 183" d="M49.36,169.962,43.5,128.805a5.049,5.049,0,0,0-2.877-3.869l-.022-.01c-.731-.3-1.372-.557-2-.771a14.569,14.569,0,0,0-2.254-.641l-.023,0a2.95,2.95,0,0,0-3.31,1.824L19.353,160.672a2.23,2.23,0,0,0,1.058,2.785l.779.4c.744.344,1.424.6,2.012.817a10.58,10.58,0,0,0,1.849.5l.2.035a2.23,2.23,0,0,0,2.488-1.474l1.123-3.284a2.228,2.228,0,0,1,3.183-1.229l.152.082a15.262,15.262,0,0,0,2.3.976,10.771,10.771,0,0,0,2.48.564c.316.05.641.093.974.125a2.226,2.226,0,0,1,2,1.963l.684,5.981a2.224,2.224,0,0,0,1.155,1.707c.341.183.676.356,1,.509.044.021.088.04.134.059.617.251,1.236.5,1.892.748l1.855.517a2.225,2.225,0,0,0,2.7-2.488M37.079,152.4a11.393,11.393,0,0,1-1.594-.342c-.066-.019-.131-.04-.194-.064a6.894,6.894,0,0,1-1.4-.7,2.2,2.2,0,0,1-.977-2.6l2.482-7.407a1.212,1.212,0,0,1,2.356.27l1.043,10.965a8.507,8.507,0,0,1-1.712-.125" transform="translate(-8.134 -52.297)" fill="#cf001c"/>
  </g>
</svg>
