<svg id="Group_23" data-name="Group 23" xmlns="http://www.w3.org/2000/svg" width="60.68" height="96" viewBox="0 0 60.68 96">
  <path id="Path_144" data-name="Path 144" d="M413.439,300.308c-2.067,9.176-7.368,30.6-12.746,35.081a3.137,3.137,0,0,1-1.2.707c-18.9,4.605-24.962-7.142-24.962-7.142s5.066-2.469,5.195-7.295l10.217,3.17,8.906-20.042,1.311-1.223.007-.007Z" transform="translate(-369.206 -278.476)" fill="#3f3d56"/>
  <path id="Path_147" data-name="Path 147" d="M345.51,342.913l.151-54.4a4.158,4.158,0,0,1,4.165-4.142l41.087.114a4.158,4.158,0,0,1,4.142,4.165l-.151,54.4a4.158,4.158,0,0,1-4.165,4.142l-41.087-.114A4.158,4.158,0,0,1,345.51,342.913Z" transform="translate(-345.51 -265.461)" fill="#e6e6e6"/>
  <path id="Path_148" data-name="Path 148" d="M362.928,341.023l.1-34.976a3.894,3.894,0,0,1,3.9-3.879l35.311.1a3.894,3.894,0,0,1,3.879,3.9l-.134,48.412a3.894,3.894,0,0,1-3.9,3.879l-21.875-.061A17.346,17.346,0,0,1,362.928,341.023Z" transform="translate(-359.731 -279.994)" fill="#fff"/>
  <path id="Path_149" data-name="Path 149" d="M425.219,371.172H397.686a1.652,1.652,0,0,1,0-3.3h27.534a1.652,1.652,0,0,1,0,3.3Z" transform="translate(-386.76 -333.635)" fill="#2b5d95"/>
  <path id="Path_150" data-name="Path 150" d="M403.743,329.672h-6.057a1.652,1.652,0,0,1,0-3.3h6.057a1.652,1.652,0,1,1,0,3.3Z" transform="translate(-386.76 -299.752)" fill="#2b5d95"/>
  <path id="Path_151" data-name="Path 151" d="M425.219,412.672H397.686a1.652,1.652,0,0,1,0-3.3h27.534a1.652,1.652,0,0,1,0,3.3Z" transform="translate(-386.76 -367.517)" fill="#2b5d95"/>
  <path id="Path_152" data-name="Path 152" d="M425.219,454.172H397.686a1.652,1.652,0,0,1,0-3.3h27.534a1.652,1.652,0,0,1,0,3.3Z" transform="translate(-386.76 -401.4)" fill="#2b5d95"/>
  <circle id="Ellipse_2" data-name="Ellipse 2" cx="6.573" cy="6.573" r="6.573" transform="translate(29.658 59.698)" fill="#2b5d95"/>
  <path id="Path_153" data-name="Path 153" d="M526.783,530.61a.731.731,0,0,1-.585-.293l-1.793-2.391a.731.731,0,0,1,1.17-.877l1.173,1.564,3.013-4.52a.731.731,0,1,1,1.217.811l-3.587,5.38a.731.731,0,0,1-.588.325Z" transform="translate(-491.448 -460.918)" fill="#fff"/>
  <circle id="Ellipse_3" data-name="Ellipse 3" cx="3.12" cy="3.12" r="3.12" transform="translate(19.094 0)" fill="#fff"/>
  <circle id="Ellipse_4" data-name="Ellipse 4" cx="3.12" cy="3.12" r="3.12" transform="translate(7.714 89.759)" fill="#fff"/>
  <circle id="Ellipse_5" data-name="Ellipse 5" cx="3.12" cy="3.12" r="3.12" transform="translate(54.439 21.832)" fill="#fff"/>
</svg>
