<svg xmlns="http://www.w3.org/2000/svg" width="34.66" height="26" viewBox="0 0 34.66 26">
  <path id="Icon_ionic-logo-youtube" data-name="Icon ionic-logo-youtube" d="M34.435,10.241a5.263,5.263,0,0,0-5.01-5.5C25.674,4.568,21.848,4.5,17.942,4.5H16.723c-3.9,0-7.732.068-11.483.244a5.274,5.274,0,0,0-5,5.511C.068,12.665-.007,15.075,0,17.486s.068,4.821.23,7.238a5.281,5.281,0,0,0,5,5.518c3.94.183,7.982.264,12.092.257q6.175.02,12.092-.257a5.282,5.282,0,0,0,5.01-5.518c.162-2.417.237-4.827.23-7.244Q34.678,13.864,34.435,10.241ZM14.015,24.128v-13.3l9.817,6.649Z" transform="translate(0 -4.5)" fill="#e62117"/>
</svg>
