<svg xmlns="http://www.w3.org/2000/svg" width="26" height="26" viewBox="0 0 26 26">
  <path id="Icon_awesome-linkedin" data-name="Icon awesome-linkedin" d="M24.143,2.25H1.851A1.865,1.865,0,0,0,0,4.125V26.375A1.865,1.865,0,0,0,1.851,28.25H24.143A1.87,1.87,0,0,0,26,26.375V4.125A1.87,1.87,0,0,0,24.143,2.25ZM7.858,24.536H4V12.128H7.864V24.536Zm-1.927-14.1A2.234,2.234,0,1,1,8.166,8.2,2.235,2.235,0,0,1,5.931,10.433ZM22.3,24.536H18.45V18.5c0-1.439-.029-3.291-2-3.291-2.008,0-2.316,1.567-2.316,3.186v6.14H10.278V12.128h3.7v1.695h.052a4.059,4.059,0,0,1,3.65-2c3.9,0,4.625,2.571,4.625,5.914Z" transform="translate(0 -2.25)" fill="#0e76a8"/>
</svg>
