<svg id="Group_15" data-name="Group 15" xmlns="http://www.w3.org/2000/svg" xmlns:xlink="http://www.w3.org/1999/xlink" width="90" height="95.192" viewBox="0 0 90 95.192">
  <defs>
    <clipPath id="clip-path">
      <rect id="Rectangle_29" data-name="Rectangle 29" width="90" height="95.192" fill="none"/>
    </clipPath>
  </defs>
  <g id="Group_21" data-name="Group 21" clip-path="url(#clip-path)">
    <path id="Path_98" data-name="Path 98" d="M89.288,95.153c-.137,0-.271,0-.405,0a2.99,2.99,0,0,1-1.437-.388l-1.109-.623.144,6.37.887-.23c.315-.082.628-.171.94-.262L89.46,99.7l-.066-.667a1.886,1.886,0,0,1,.16-.762,5.247,5.247,0,0,0,.2-.641,8.141,8.141,0,0,0,.27-1.726l.03-.764Z" transform="translate(-38.503 -42.281)" fill="#124b88"/>
    <path id="Path_99" data-name="Path 99" d="M87.092,48.359a7.349,7.349,0,0,1,1.223-.635l.545-.227-.114-.577c-.07-.355-.129-.688-.176-1.008l-.034-.225c-.057-.37-.106-.754-.144-1.149l-.047-.481-.465-.14a1.118,1.118,0,0,1-.157-.059,1.1,1.1,0,0,1-.562-.588l-.121-.313c-.1-.257-.2-.515-.293-.773l-1.475-3.95.2,11.42,1.159-.949a5.542,5.542,0,0,1,.463-.345" transform="translate(-38.028 -17.171)" fill="#124b88"/>
    <path id="Path_100" data-name="Path 100" d="M55.99,1.442,59.23.344l-3.41-.3c-3.112-.275-6.824.976-7.873,3.9C42.781,18.13,35.966,36.768,31.786,48.051,28.331,39.28,25.071,30.58,21.632,21.4c-2.2-5.882-4.482-11.965-6.862-18.172C13.078,0,9.055-.515,5.823.41,2.733,1.293-.26,3.752.019,7.2c0,22,.567,43.163,1.115,63.631.17,6.315.336,12.528.481,18.6-.071,4.161,2.846,5.7,5.366,5.762l.152,0c2.679,0,5.555-1.588,5.631-4.243.075-15.472.655-31.084,1.217-46.182.325-8.73.66-17.722.9-26.742l.326.853c4.821,12.6,9.374,24.5,14.328,36.976a2.45,2.45,0,0,0,2.387,1.513,2.131,2.131,0,0,0,2.039-1.4c3.473-9.259,7.484-20.375,11.363-31.125l1.9-5.26.039,2.651,1.352-4.488a11.6,11.6,0,0,1,2.04-3.848,13.033,13.033,0,0,1,1.66-1.745,9.823,9.823,0,0,1,1.335-.986,8.856,8.856,0,0,1,1.754-.84l.363-.126,1.126-3.635.227-.574L55.94,4.927q-.282-.254-.553-.517a2.12,2.12,0,0,1-.547-.939,1.552,1.552,0,0,1,.048-1.006,1.748,1.748,0,0,1,1.1-1.023" transform="translate(0 0)" fill="#124b88"/>
    <path id="Path_101" data-name="Path 101" d="M95.254,145.262h21.152c.112,0,.225,0,.338-.008.056,0,.111-.018.166-.025a.194.194,0,0,0,.13-.183c-.182-.705-.417-1.4-.551-2.114a13.474,13.474,0,0,1-.281-2.249c-.009-.561-.013-1.122.018-1.682.009-.167.016-.337.041-.5.1-.637.194-1.275.356-1.9.021-.082.05-.161.07-.242.013-.055.016-.111.027-.166a.234.234,0,0,0-.2-.3c-.338-.01-.676-.021-1.014-.021h-40.7c-.254,0-.508,0-.761,0-.085,0-.168.013-.253.02a.205.205,0,0,0-.16.246c.019.082.033.165.058.245a20.255,20.255,0,0,1,.519,2.036c.08.387.09.78.16,1.166a5.644,5.644,0,0,1,.073.922,12.01,12.01,0,0,1-.1,1.761,11.707,11.707,0,0,1-.533,2.288c-.037.106-.071.213-.1.32-.017.053-.029.108-.044.161a.181.181,0,0,0,.107.194,4.538,4.538,0,0,0,.927.034q10.28,0,20.56,0" transform="translate(-32.836 -61.019)" fill="#fff"/>
    <path id="Path_102" data-name="Path 102" d="M99.27,126.178h14.977c.282,0,.564-.01.845-.018a.171.171,0,0,0,.144-.174c-.044-.191-.086-.382-.137-.571a12.585,12.585,0,0,1-.453-2.307c-.012-.14-.039-.278-.052-.418-.025-.279-.061-.559-.066-.838-.009-.561,0-1.122,0-1.682a5.663,5.663,0,0,1,.05-.671c.089-.667.1-1.343.233-2a.938.938,0,0,0,0-.167.263.263,0,0,0-.2-.235,1.785,1.785,0,0,0-.5-.042c-.536.01-1.072.033-1.607.038q-3.935.04-7.87.071c-.338,0-.676-.012-1.015-.02a7.047,7.047,0,0,1-1.178-.106,2.819,2.819,0,0,0-.419-.049c-.817-.036-1.634-.053-2.453-.033a2.818,2.818,0,0,0-1.061.25c-.155.067-.3.149-.458.218a7.171,7.171,0,0,1-2.124.519c-.084.01-.169.007-.254.01a5.669,5.669,0,0,1-1.5-.2,4.774,4.774,0,0,1-1.61-.721c-.139-.1-.278-.192-.415-.29a.557.557,0,0,0-.317-.1,9.663,9.663,0,0,0-1.52.06,15.056,15.056,0,0,1-1.518.109c-.394.015-.79.03-1.182.067-.422.04-.843.068-1.267.076-.621.012-1.241.015-1.861.031-.423.01-.847.017-1.267.06-.534.055-1.068.085-1.6.106a8.442,8.442,0,0,0-.843.064,10.717,10.717,0,0,1-1.18.1,6.61,6.61,0,0,0-.927.072,7.838,7.838,0,0,1-1.095.1,6.521,6.521,0,0,0-.927.072,9.4,9.4,0,0,1-1.18.1c-.31.015-.621.028-.927.07-.421.058-.842.078-1.265.1-.338.015-.676.03-1.012.071-.393.048-.786.079-1.181.093-.169.006-.338.011-.507.02-.057,0-.112.016-.168.023a.279.279,0,0,0-.186.25,1.523,1.523,0,0,0,.08.41,11.16,11.16,0,0,1,.484,2.641,2.961,2.961,0,0,1,.013.42c-.04.447-.071.9-.145,1.337-.112.663-.232,1.325-.386,1.98a6.208,6.208,0,0,0-.1.665.356.356,0,0,0,.325.409c.168.008.338.014.507.014l8.8,0c.141,0,.283,0,.423,0a.652.652,0,0,0,.167-.02.283.283,0,0,0,.19-.151c.067-.154.121-.313.194-.463a.713.713,0,0,1,.355-.347A1.387,1.387,0,0,1,81.69,125H82.2a1.2,1.2,0,0,1,.559.174.641.641,0,0,1,.29.3,5.05,5.05,0,0,1,.207.55.191.191,0,0,0,.193.13c.31.014.62.02.93.02H99.27" transform="translate(-31.287 -52.38)" fill="#fff"/>
    <path id="Path_103" data-name="Path 103" d="M133.771,112.033c.513,0,1.077-.014,1.641-.015q2.031,0,4.061,0c.536,0,1.072,0,1.608,0a3.094,3.094,0,0,0,.641-.053.506.506,0,0,0,.224-.11.528.528,0,0,0,.216-.349,4.255,4.255,0,0,0-.016-1.339.182.182,0,0,0-.042-.072.191.191,0,0,0-.057-.056,1.5,1.5,0,0,0-.479-.158,3.922,3.922,0,0,1-.468-.088,6.224,6.224,0,0,0-.836-.121,2.955,2.955,0,0,1-.417-.068,3.951,3.951,0,0,0-.585-.089,3.558,3.558,0,0,1-.5-.068,5.036,5.036,0,0,0-.752-.11,2.8,2.8,0,0,1-.417-.063,4.568,4.568,0,0,0-.668-.1,3.926,3.926,0,0,1-.5-.073,3.889,3.889,0,0,0-.585-.089,4.3,4.3,0,0,1-.669-.1c-.164-.037-.334-.048-.5-.071-.2-.026-.393-.042-.586-.083a4.028,4.028,0,0,0-.585-.085,4.094,4.094,0,0,1-.669-.1,2.676,2.676,0,0,0-.417-.063c-.536-.037-1.053-.2-1.59-.221-.517-.149-1.062-.128-1.583-.262-.216-.055-.452-.031-.671-.076a7.469,7.469,0,0,0-1.089-.142,1.856,1.856,0,0,1-.335-.043,6.161,6.161,0,0,0-1.091-.117c-.281-.016-.563-.039-.843-.071a7.147,7.147,0,0,0-1.688,0,5.17,5.17,0,0,1-.589.056,13.625,13.625,0,0,0-1.588.23,15.921,15.921,0,0,0-3.029,1.035c-.306.143-.606.3-.9.46a1.509,1.509,0,0,0-.26.209.3.3,0,0,0-.06.311,1.1,1.1,0,0,0,.085.145,8.411,8.411,0,0,0,1.244,1.257,2.291,2.291,0,0,0,1.721.553,2.8,2.8,0,0,0,.5-.063,2.031,2.031,0,0,1,.919-.04,6.826,6.826,0,0,0,.757.071,10.211,10.211,0,0,1,1.262.12,5.489,5.489,0,0,0,.674.053c.395.018.787.046,1.18.1a7.186,7.186,0,0,0,.843.062c2.284.039,4.569.051,6.851-.082.2-.012.394-.018.643-.028" transform="translate(-52.208 -48.295)" fill="#fff"/>
    <path id="Path_104" data-name="Path 104" d="M156.529,132.4a10.038,10.038,0,0,0-.075-1.425c-.047-.3-.1-.607-.159-.91a1.333,1.333,0,0,0-.055-.158.157.157,0,0,0-.264-.067c-.332.342-.668.68-.994,1.028q-.691.736-1.369,1.485c-.15.166-.29.343-.426.521a2.169,2.169,0,0,0-.4.825c-.07.3-.16.594-.229.894a18.847,18.847,0,0,0-.337,2.154c-.016.139-.012.279-.018.419a8.662,8.662,0,0,0,.193,1.917c.142.8.335,1.587.51,2.378.011.048.062.09.1.13a.1.1,0,0,0,.148,0,.74.74,0,0,0,.16-.188c.152-.3.3-.6.44-.906.414-.919.842-1.831,1.3-2.727.064-.124.126-.25.187-.376a15.027,15.027,0,0,0,.8-2.027,9.412,9.412,0,0,0,.485-2.968" transform="translate(-67.872 -58.291)" fill="#fff"/>
    <path id="Path_105" data-name="Path 105" d="M155.747,120.327h-.009c0-.7,0-1.4,0-2.1,0-.139-.013-.279-.024-.418a.371.371,0,0,0-.264-.294,1.75,1.75,0,0,0-.25-.029q-1.139.011-2.279.029a.45.45,0,0,0-.164.031.239.239,0,0,0-.129.094,3.269,3.269,0,0,0-.172.472c-.1.378-.183.762-.285,1.139a3.915,3.915,0,0,0-.127.827,21.073,21.073,0,0,0,.017,2.516,12.661,12.661,0,0,0,.591,2.954,1.952,1.952,0,0,0,.141.3.1.1,0,0,0,.142.04.406.406,0,0,0,.136-.095q1.212-1.344,2.418-2.691a1.182,1.182,0,0,0,.151-.2.679.679,0,0,0,.089-.231,3.4,3.4,0,0,0,.019-.419c0-.643,0-1.287,0-1.931" transform="translate(-67.791 -52.765)" fill="#fff"/>
    <path id="Path_106" data-name="Path 106" d="M114.451,115.482a3.472,3.472,0,0,0,.912-.066,1,1,0,0,0,.516-.256.113.113,0,0,0,.017-.153.733.733,0,0,0-.089-.138q-.767-.713-1.538-1.421c-.02-.019-.045-.033-.067-.05a.215.215,0,0,0-.233-.015c-.56.418-1.1.862-1.632,1.312a.778.778,0,0,0-.05.067c-.05.053-.016.152.055.2a2.55,2.55,0,0,0,.627.232,4.94,4.94,0,0,0,1.482.29" transform="translate(-50.064 -50.909)" fill="#fff"/>
    <path id="Path_107" data-name="Path 107" d="M109.049,64.148a.16.16,0,0,1-.129-.056c-.059-.078-.117-.158-.173-.239a.663.663,0,0,0-.289-.221.358.358,0,0,0-.446.154,2.5,2.5,0,0,0-.171.405c-.116.4-.221.8-.33,1.206-.032.118-.06.238-.09.357-.018.072-.038.143-.051.215a2.3,2.3,0,0,0,.454,1.942c.152.193.316.376.48.559.247.275.5.543.746.819a10.112,10.112,0,0,1,.778.983,6.144,6.144,0,0,1,.976,2.286,6.027,6.027,0,0,1,.076,1.9,4.885,4.885,0,0,1-.719,2.071,4.47,4.47,0,0,1-1.518,1.481c-.169.1-.344.193-.519.283s-.353.175-.534.252c-1.5.637-2.945,1.376-4.422,2.053-.134.061-.264.133-.4.2a.365.365,0,0,0-.157.15c-.07.129-.136.262-.213.387a.707.707,0,0,1-.489.3.336.336,0,0,1-.146,0,4.321,4.321,0,0,1-.634-.2,9.171,9.171,0,0,0-1.7-.5c-.481-.121-.975-.145-1.459-.237a3.3,3.3,0,0,0-.591-.037q-1,0-2,0a4.531,4.531,0,0,0-.884.08.827.827,0,0,1-.146.024c-.545.014-1.074.148-1.614.2-.171.016-.337.079-.509.091-.444.032-.873.157-1.316.2-.171.017-.338.068-.508.094a1.344,1.344,0,0,1-.294.015.1.1,0,0,1-.082-.1.888.888,0,0,1,.085-.355,6.205,6.205,0,0,0,.246-.771,8.783,8.783,0,0,0,.306-2.328c0-.171,0-.343.009-.515a.373.373,0,0,1,.13-.256.856.856,0,0,1,.17-.14c.192-.11.388-.214.585-.315.657-.338,1.317-.671,1.974-1.01.438-.226.872-.458,1.308-.688a7.834,7.834,0,0,0,1.735-1.245c.107-.1.215-.2.325-.3a5.483,5.483,0,0,1,.646-.491,3.424,3.424,0,0,1,1.378-.5,1.673,1.673,0,0,1,.59.008c.242.047.483.1.721.165a2.966,2.966,0,0,0,1.962.077,4.849,4.849,0,0,0,.637-.187c.417-.152.828-.318,1.242-.476a3.946,3.946,0,0,0,1.457-.985c.119-.124.232-.255.34-.388a3.626,3.626,0,0,0,.8-1.8c.024-.17.066-.338.084-.508a.553.553,0,0,0-.17-.469.6.6,0,0,0-.471-.178,8.743,8.743,0,0,0-1.023.154c-.242.054-.491.061-.728.126a4.314,4.314,0,0,1-.729.124c-.5.14-1.029.113-1.534.237a1.135,1.135,0,0,1-.221.024,10.054,10.054,0,0,0-1.178.116c-.1.017-.2.015-.3.024a.881.881,0,0,1-.777-.344.348.348,0,0,1-.063-.345,1.015,1.015,0,0,1,.232-.372,1.875,1.875,0,0,1,.4-.329c.167-.105.339-.2.5-.311a2.725,2.725,0,0,0,.351-.269,1.293,1.293,0,0,0,.433-.981,1.33,1.33,0,0,0-.2-.771.793.793,0,0,0-.627-.34.452.452,0,0,0-.146.013,3.651,3.651,0,0,0-1.216.522,4.87,4.87,0,0,0-.691.553c-.158.155-.314.313-.459.48a4.69,4.69,0,0,1-2.006,1.335c-.116.042-.23.09-.348.125a8.427,8.427,0,0,0-1.362.565c-.4.2-.791.4-1.192.591A6.542,6.542,0,0,1,91.92,69c-.067.015-.148-.071-.14-.131a.643.643,0,0,1,.007-.073c.041-.192.081-.384.126-.575a3.711,3.711,0,0,0,.021-1.462,11.712,11.712,0,0,0-.309-1.363c-.1-.353-.207-.706-.278-1.068-.028-.144-.057-.289-.079-.434-.06-.388-.113-.777-.176-1.165a.771.771,0,0,0-.24-.446c-.213-.2-.337-.135-.475.072a.649.649,0,0,0-.083.2,1.957,1.957,0,0,0-.042.585,8.222,8.222,0,0,0,.3,1.886,11.026,11.026,0,0,1,.274,1.22,5.866,5.866,0,0,1,.075.805q0,.773-.006,1.545a.27.27,0,0,1-.151.237,1.217,1.217,0,0,1-.483.175c-.322.025-.624.148-.947.165-.3.017-.575.136-.873.161a2.736,2.736,0,0,0-.427.114.56.56,0,0,0-.334.272,1.672,1.672,0,0,0-.093.2.143.143,0,0,0,.083.176c.069.028.137.057.207.08a.826.826,0,0,0,.439.025c.241-.051.483-.1.72-.168a2.1,2.1,0,0,1,.584-.08c.37,0,.74,0,1.11,0a4.854,4.854,0,0,0,.956-.092,6.682,6.682,0,0,0,.942-.185,7.877,7.877,0,0,0,2.121-.84c.172-.1.339-.2.508-.3a3.98,3.98,0,0,1,1.231-.489,3.547,3.547,0,0,0,1.453-.695,9.913,9.913,0,0,0,.879-.789,12.377,12.377,0,0,1,1.352-1.145.428.428,0,0,1,.136-.051.089.089,0,0,1,.115.064.463.463,0,0,1-.122.473,1.236,1.236,0,0,1-.229.185c-.33.217-.628.476-.934.724a3.346,3.346,0,0,0-.317.308,1.411,1.411,0,0,0-.3.505.9.9,0,0,0,.034.715,1.312,1.312,0,0,0,.312.407,2.228,2.228,0,0,0,.558.356,2.742,2.742,0,0,0,1.065.274q.482.013.962-.021a2.018,2.018,0,0,0,.293-.042c.626-.136,1.248-.287,1.868-.446.429-.11.857-.225,1.285-.34a1.844,1.844,0,0,1,.587-.049c.17.01.254.111.235.295a.824.824,0,0,1-.037.216,4.065,4.065,0,0,1-1.3,1.753,4.009,4.009,0,0,1-1.888.789c-.122.017-.245.029-.366.052a4.5,4.5,0,0,1-1.4.025c-.467-.06-.934-.083-1.4-.107-.2-.01-.394,0-.592,0a2.839,2.839,0,0,0-1.07.262,5.023,5.023,0,0,0-.962.545c-.261.186-.515.38-.772.571-.4.294-.789.591-1.185.884-.515.381-1.043.744-1.589,1.078a11.837,11.837,0,0,1-2.965,1.308c-.262.074-.531.108-.79.191a1.1,1.1,0,0,1-.293.035c-.2.007-.4.011-.592.008a2.021,2.021,0,0,1-1.4-.585,2.637,2.637,0,0,1-.42-.513,5.741,5.741,0,0,1-.345-.65,10.514,10.514,0,0,1-.825-2.817,3.764,3.764,0,0,1-.036-.44c-.009-.295-.018-.589-.016-.884q.01-1.251.029-2.5c.007-.54.033-1.079.063-1.618.038-.686.053-1.373.074-2.06.018-.589.036-1.177.084-1.764.039-.489.053-.981.067-1.471.017-.59.081-1.176.156-1.76a3.662,3.662,0,0,1,.772-1.808,4.3,4.3,0,0,1,1.032-.941,6.43,6.43,0,0,1,1.182-.6.832.832,0,0,1,.217-.04.131.131,0,0,1,.125.062,2.119,2.119,0,0,1,.136.261c.154.361.3.725.456,1.086a7.838,7.838,0,0,0,.708,1.291,6.547,6.547,0,0,0,4.013,2.812c.375.137.778.124,1.16.226.247.014.493.036.739.042.345.007.691,0,1.036,0a8.311,8.311,0,0,0,1.539-.192,8.032,8.032,0,0,0,2.867-1.32,9.084,9.084,0,0,0,.792-.664,4.191,4.191,0,0,0,.849-1.107c.115-.216.226-.436.328-.659q.322-.7.629-1.412a3.222,3.222,0,0,0,.24-.771c.031-.193.079-.385.122-.576a.555.555,0,0,1,.049-.138.383.383,0,0,1,.278-.219.958.958,0,0,1,.44.019c.238.072.485.088.725.142s.486.086.725.142c.624.144,1.257.246,1.883.378.53.112,1.062.215,1.59.335a4.367,4.367,0,0,1,1.106.4,3.109,3.109,0,0,1,1.461,1.6c.055.136.1.276.148.415.268.816.488,1.647.729,2.47.263.895.526,1.789.862,2.66a86.1,86.1,0,0,1,4.725,13.335.992.992,0,0,1,.014.147c.019.638.127,1.269.187,1.9.014.146.044.291.072.435a1.724,1.724,0,0,0,.444.835,3.159,3.159,0,0,0,.5.434c.361.258.736.494,1.114.727.314.194.627.391.935.6a2.481,2.481,0,0,1,.689.658.091.091,0,0,1-.026.126.928.928,0,0,1-.419.134,3.449,3.449,0,0,1-1.032-.039c-.169-.035-.34-.057-.51-.088a7.561,7.561,0,0,1-2.1-.677,5.447,5.447,0,0,1-1.376-.986c-.122-.121-.242-.246-.365-.366a1.734,1.734,0,0,0-.553-.36,1.367,1.367,0,0,0-.425-.12c-.172-.011-.345-.029-.517-.03a3.105,3.105,0,0,0-1.36.3c-.156.074-.314.143-.465.226a7.05,7.05,0,0,1-.811.354.312.312,0,0,1-.145,0,.1.1,0,0,1-.06-.04.121.121,0,0,1-.014-.132.446.446,0,0,1,.093-.113,1.709,1.709,0,0,1,.366-.248c.177-.086.355-.172.527-.266a2.992,2.992,0,0,0,.768-.57,2.012,2.012,0,0,0,.574-1.322,4.038,4.038,0,0,0-.122-1.239q-.124-.463-.265-.919c-.08-.258-.161-.515-.239-.773a5.841,5.841,0,0,1-.274-1.59,3.617,3.617,0,0,0-.552-1.81,4.618,4.618,0,0,0-.626-.818c-.152-.16-.311-.316-.471-.469a5.662,5.662,0,0,1-.949-1.219,7.372,7.372,0,0,1-.494-.987q-.637-1.568-1.285-3.133a9.448,9.448,0,0,1-.486-1.62c-.11-.5-.2-1.01-.3-1.515-.062-.313-.12-.626-.181-.939a1.952,1.952,0,0,0-.172-.485,1.37,1.37,0,0,0-.165-.243.384.384,0,0,0-.468-.1.31.31,0,0,0-.106.1.4.4,0,0,0-.081.278c.033.317.069.634.124.948.114.652.244,1.3.358,1.954.038.217.049.439.073.658Z" transform="translate(-38.118 -24.542)" fill="#cf001c"/>
    <path id="Path_108" data-name="Path 108" d="M95.254,145.262q-10.28,0-20.56,0a4.538,4.538,0,0,1-.927-.034.181.181,0,0,1-.107-.194c.015-.053.028-.108.044-.161.034-.107.068-.214.1-.32a11.707,11.707,0,0,0,.533-2.288,12.01,12.01,0,0,0,.1-1.761,5.644,5.644,0,0,0-.073-.922c-.07-.386-.08-.78-.16-1.166a20.255,20.255,0,0,0-.519-2.036c-.025-.079-.039-.163-.058-.245a.205.205,0,0,1,.16-.246c.084-.007.168-.019.253-.02.254,0,.507,0,.761,0h40.7c.338,0,.676.01,1.014.021a.234.234,0,0,1,.2.3c-.011.055-.013.111-.027.166-.021.082-.049.161-.07.242-.161.625-.255,1.263-.356,1.9-.025.165-.032.335-.041.5-.031.561-.028,1.121-.018,1.682a13.474,13.474,0,0,0,.281,2.249c.134.718.368,1.409.551,2.114a.194.194,0,0,1-.13.183c-.055.007-.11.023-.166.025-.112.006-.226.007-.338.008H95.254" transform="translate(-32.836 -61.019)" fill="#124b88"/>
    <path id="Path_109" data-name="Path 109" d="M99.27,126.177H84.376c-.31,0-.621-.006-.93-.02a.189.189,0,0,1-.193-.13,5.166,5.166,0,0,0-.207-.55.64.64,0,0,0-.29-.3A1.209,1.209,0,0,0,82.2,125H81.69a1.371,1.371,0,0,0-.568.148.712.712,0,0,0-.355.347c-.073.15-.127.31-.193.463a.285.285,0,0,1-.191.152.623.623,0,0,1-.167.02c-.141,0-.282,0-.423,0q-4.4,0-8.8,0c-.169,0-.338-.007-.507-.014a.356.356,0,0,1-.325-.409,6.071,6.071,0,0,1,.1-.665c.155-.655.274-1.317.386-1.98.075-.442.105-.891.146-1.338a2.961,2.961,0,0,0-.013-.42,11.149,11.149,0,0,0-.484-2.64,1.55,1.55,0,0,1-.081-.411.28.28,0,0,1,.186-.25c.056-.007.111-.02.167-.023.169-.009.339-.014.507-.02q.593-.019,1.18-.093c.335-.041.674-.055,1.012-.071.423-.019.844-.04,1.264-.1.306-.042.618-.055.927-.071a9.383,9.383,0,0,0,1.179-.1,6.619,6.619,0,0,1,.927-.071,7.837,7.837,0,0,0,1.095-.1,6.52,6.52,0,0,1,.927-.071,11.007,11.007,0,0,0,1.18-.1,8.266,8.266,0,0,1,.843-.065c.536-.02,1.07-.051,1.6-.106.42-.043.844-.049,1.267-.06.621-.015,1.241-.019,1.862-.031.423-.008.845-.036,1.267-.075.392-.037.788-.052,1.182-.067.507-.019,1.014-.039,1.519-.109a9.659,9.659,0,0,1,1.52-.061.557.557,0,0,1,.316.1c.137.1.276.193.415.29a4.778,4.778,0,0,0,1.611.721,5.665,5.665,0,0,0,1.5.2c.084,0,.17,0,.253-.01a7.179,7.179,0,0,0,2.125-.519c.154-.069.3-.15.458-.217a2.815,2.815,0,0,1,1.061-.25c.818-.02,1.636,0,2.453.033a2.827,2.827,0,0,1,.419.049,6.99,6.99,0,0,0,1.178.106c.339.008.676.023,1.015.02q3.935-.032,7.869-.071c.536-.006,1.072-.028,1.607-.039a1.79,1.79,0,0,1,.5.042.265.265,0,0,1,.2.235.938.938,0,0,1,0,.167c-.138.662-.144,1.338-.234,2a5.771,5.771,0,0,0-.049.67c-.008.561-.013,1.122,0,1.682,0,.28.04.559.066.838.013.14.04.278.052.418a12.62,12.62,0,0,0,.452,2.307c.052.189.094.381.138.571a.172.172,0,0,1-.144.174c-.282.007-.563.017-.845.017H99.27M88.011,124.67v-.014h.338a.426.426,0,0,0,.084-.008c.083-.018.166-.035.245-.06a.855.855,0,0,0,.151-.074.273.273,0,0,0,.076-.367.61.61,0,0,0-.59-.252,1.291,1.291,0,0,0-.825.382.279.279,0,0,0-.086.221c0,.064.1.141.184.147l.421.026m-1.093-3.717c.32,0,.487,0,.654,0a1.131,1.131,0,0,0,.163-.031.107.107,0,0,0,.1-.113.254.254,0,0,0-.039-.15,1.351,1.351,0,0,0-.49-.308.759.759,0,0,0-.957.275.485.485,0,0,0-.031.076.181.181,0,0,0,.089.2,1.346,1.346,0,0,0,.509.049m-6.353.348c-.1.009-.294.023-.485.045a.554.554,0,0,0-.151.058.2.2,0,0,0-.1.2.282.282,0,0,0,.151.179c.027,0,.054.011.081.013a3.3,3.3,0,0,0,1.064-.1.14.14,0,0,0,.073-.038.444.444,0,0,0,.083-.133c.018-.056-.076-.174-.129-.191a2.035,2.035,0,0,0-.583-.033m19.939-3.233c-.158.017-.3.028-.434.048a.48.48,0,0,0-.153.057.264.264,0,0,0-.126.2.255.255,0,0,0,.2.229c.028,0,.055.013.082.013a2.66,2.66,0,0,0,.891-.162.132.132,0,0,0,.082-.133.246.246,0,0,0-.23-.278l-.31.024m7.521,3.1c.16-.012.3-.019.435-.035.053-.006.1-.038.156-.049.07-.014.124-.12.13-.193a.234.234,0,0,0-.2-.222.787.787,0,0,0-.164-.008c-.244.045-.488.095-.731.144a.165.165,0,0,0-.106.192.2.2,0,0,0,.173.149c.109.013.22.016.309.022M74.2,122.645c-.252,0-.418,0-.583,0a.647.647,0,0,0-.158.038.087.087,0,0,0-.066.127.2.2,0,0,0,.171.15,4.858,4.858,0,0,0,.992,0,.214.214,0,0,0,.182-.141c.03-.066.013-.1-.053-.134a1.127,1.127,0,0,0-.485-.046m20.453.856c.16,0,.243,0,.326,0a1.1,1.1,0,0,0,.165-.017.106.106,0,0,0,.1-.1.113.113,0,0,0-.085-.125,1.94,1.94,0,0,0-.822-.015.3.3,0,0,0-.132.085.1.1,0,0,0-.013.079.088.088,0,0,0,.048.05.98.98,0,0,0,.414.046m-1.329-3.652c.127-.008.294-.014.46-.029a.5.5,0,0,0,.155-.048.161.161,0,0,0,.091-.124.213.213,0,0,0-.1-.205.543.543,0,0,0-.159-.04c-.3.014-.609.035-.914.056a.217.217,0,0,0-.075.03.161.161,0,0,0-.094.122c-.014.076.042.19.1.2a1.038,1.038,0,0,0,.161.035c.111.006.222,0,.372,0m7.792,2.516c.1-.009.232-.017.366-.036a.127.127,0,0,0,.029-.237.488.488,0,0,0-.15-.057,1.228,1.228,0,0,0-.558.089.131.131,0,0,0-.059.046.135.135,0,0,0-.018.078.089.089,0,0,0,.035.055.707.707,0,0,0,.354.063" transform="translate(-31.287 -52.379)" fill="#124b88"/>
    <path id="Path_110" data-name="Path 110" d="M91.413,157.267h24.326c.291,0,.583,0,.875.006a1.9,1.9,0,0,1,.259.038.329.329,0,0,1,.206.256c0,.174,0,.349-.018.52-.066.548-.086,1.1-.109,1.649-.025.608-.045,1.217-.079,1.825a6.28,6.28,0,0,0,.234,2.151c.058.194.115.389.164.586a1.493,1.493,0,0,1,.028.259.405.405,0,0,1-.306.377,2.917,2.917,0,0,1-.346.03c-.613,0-1.225,0-1.838,0H68.521c-.613,0-1.225,0-1.838,0a2.006,2.006,0,0,1-.434-.034.5.5,0,0,1-.382-.321,2.349,2.349,0,0,1-.127-.594,6.4,6.4,0,0,0-.154-1.119.9.9,0,0,1-.024-.172c-.054-.752-.139-1.5-.148-2.256-.01-.783-.011-1.566-.014-2.349,0-.087,0-.174.007-.261.02-.407.232-.508.546-.56a2.955,2.955,0,0,1,.436-.031c.291,0,.583,0,.875,0H91.413" transform="translate(-29.165 -70.63)" fill="#124b88"/>
    <path id="Path_111" data-name="Path 111" d="M109.113,28.182c-.009.286-.016.572-.027.858a6.9,6.9,0,0,1-.08.722c-.087.589-.221,1.17-.365,1.75-.156.622-.291,1.248-.442,1.871-.057.236-.124.471-.2.7a3.394,3.394,0,0,1-.51,1.02c-.176.239-.351.479-.531.715a.123.123,0,0,1-.135.023.106.106,0,0,1-.08-.1c0-.088,0-.176,0-.264.011-.286.028-.571.037-.857.008-.242.013-.484.011-.726a3.558,3.558,0,0,0-.025-.461,1.477,1.477,0,0,0-.919-1.2.825.825,0,0,0-.137-.047.444.444,0,0,0-.288.026,1.057,1.057,0,0,0-.347.243c-.271.285-.539.574-.808.86-.095.1-.189.2-.288.3a.119.119,0,0,1-.135.02.114.114,0,0,1-.08-.1,1.565,1.565,0,0,1-.008-.2c0-.132.016-.264.02-.4.007-.22.007-.44.016-.66a3.538,3.538,0,0,0-.146-1.044,1.794,1.794,0,0,0-.218-.489,1.274,1.274,0,0,0-.5-.473.917.917,0,0,0-.2-.086,2.106,2.106,0,0,0-.875-.059,5.871,5.871,0,0,0-.786.18A9.034,9.034,0,0,0,97.6,32.284a7.957,7.957,0,0,0-.844.918,2.578,2.578,0,0,0-.438.831c-.106.339-.165.688-.262,1.029-.06.214,0,.44-.07.653a.109.109,0,0,1-.116.06.829.829,0,0,1-.211-.059,5.3,5.3,0,0,1-.934-.531,2.589,2.589,0,0,1-1.009-1.349c-.168-.529-.295-1.067-.423-1.6-.087-.366-.176-.73-.3-1.089a3.068,3.068,0,0,0-.221-.489,1.6,1.6,0,0,0-.116-.169.412.412,0,0,0-.383-.15,3.519,3.519,0,0,0-.632.183,1.663,1.663,0,0,0-.585.4,4.111,4.111,0,0,0-.938,1.558,5.84,5.84,0,0,0-.283,1.625,1.791,1.791,0,0,1-.032.524c0,.014-.035.026-.055.03a.112.112,0,0,1-.064-.008.1.1,0,0,1-.053-.044c-.168-.436-.342-.872-.5-1.311a5.09,5.09,0,0,1-.316-1.352,11.711,11.711,0,0,1-.125-2.5,4.868,4.868,0,0,1,.085-.853,7.445,7.445,0,0,1,.181-.976,10.31,10.31,0,0,1,2.046-4.2,12.028,12.028,0,0,1,1.53-1.609,8.754,8.754,0,0,1,1.2-.884,7.8,7.8,0,0,1,2.835-1.08,1.824,1.824,0,0,1,.219-.028,12.174,12.174,0,0,1,1.923,0,1.2,1.2,0,0,1,.286.058c.23.078.459.16.684.249a6.1,6.1,0,0,0,.763.248c.332.083.662.173.99.267.284.081.576.119.862.188a1.953,1.953,0,0,0,.514.041,9.119,9.119,0,0,1,1.393.15,6.558,6.558,0,0,1,1.632.608,5.786,5.786,0,0,1,1.841,1.6,6.344,6.344,0,0,1,.957,1.85,10.748,10.748,0,0,1,.416,1.874,9.847,9.847,0,0,1,.059,1.253" transform="translate(-39.552 -8.875)" fill="#cf001c"/>
    <path id="Path_112" data-name="Path 112" d="M107.666,44.36c0,.525-.006.992,0,1.458a2.591,2.591,0,0,1-.112.8c-.26.869-.5,1.744-.764,2.613-.147.494-.327.977-.517,1.456a4.624,4.624,0,0,1-2.055,2.336,6.959,6.959,0,0,1-1.279.572,11.989,11.989,0,0,1-1.494.415,6.82,6.82,0,0,1-1.686.2,4.125,4.125,0,0,1-1.02-.112l-.013,0a5.372,5.372,0,0,1-1.541-.474,6.454,6.454,0,0,1-1.44-.894,7.051,7.051,0,0,1-2.221-3.155,8.784,8.784,0,0,1-.26-.921c-.175-.74-.334-1.485-.447-2.236a14.855,14.855,0,0,1-.216-1.9c-.006-.269-.034-.539-.059-.808a6.634,6.634,0,0,1,.113-1.832,3.675,3.675,0,0,1,.661-1.545c.044-.059.1-.111.146-.166a.166.166,0,0,1,.3.035c.05.138.1.277.141.418.1.378.2.758.3,1.137.134.5.268.995.439,1.481.049.139.1.278.15.415a3.174,3.174,0,0,0,1.161,1.49c.06.043.121.085.183.125a6.517,6.517,0,0,0,1.614.718.555.555,0,0,0,.429-.06.957.957,0,0,0,.491-.778,6.577,6.577,0,0,0,.018-.662,3.726,3.726,0,0,1,.67-2.046,4.585,4.585,0,0,1,.634-.741,10.258,10.258,0,0,1,1.382-1.118,5.936,5.936,0,0,1,1.806-.826,2.4,2.4,0,0,1,.878-.062.4.4,0,0,1,.2.091.764.764,0,0,1,.309.565,4.5,4.5,0,0,1-.062,1.319,6.059,6.059,0,0,0-.1,1.246c0,.1.012.2.022.293a.529.529,0,0,0,.432.445,2.438,2.438,0,0,0,.883-.036,1.931,1.931,0,0,0,1.141-.766c.1-.14.182-.29.269-.439.062-.105.115-.215.175-.322a.1.1,0,0,1,.058-.042.118.118,0,0,1,.124.062,1.133,1.133,0,0,1,.177.555q.009.294,0,.588c-.006.393-.016.786-.023,1.119M96.9,50.441v0c.009-.256.013-.378.018-.5a.177.177,0,0,0-.111-.17.206.206,0,0,0-.2.037.456.456,0,0,0-.05.053,1.406,1.406,0,0,0-.2.569,1.1,1.1,0,0,0,.1.847,1.317,1.317,0,0,0,.36.343,2.988,2.988,0,0,0,.684.283,7.4,7.4,0,0,0,.785.2,4.3,4.3,0,0,0,.939.072,1.4,1.4,0,0,0,.3-.042,2.959,2.959,0,0,0,.353-.108.616.616,0,0,0,.4-.4.48.48,0,0,0,.017-.144.107.107,0,0,0-.135-.115c-.187.063-.346.182-.537.24a1.547,1.547,0,0,1-.506.082,2.26,2.26,0,0,1-.366-.036c-.433-.089-.721-.129-1.161-.239a.789.789,0,0,1-.677-.668c-.011-.138-.012-.278-.012-.3m5.95-1.545c.216-.043.433-.077.647-.126a.48.48,0,0,0,.341-.251.182.182,0,0,0-.05-.193.454.454,0,0,0-.347-.085,3.246,3.246,0,0,1-.874.082h-.808c-.343,0-.686,0-1.028,0a2,2,0,0,0-.289.038.2.2,0,0,0-.111.29.3.3,0,0,0,.1.1,1.68,1.68,0,0,0,.335.147,4.6,4.6,0,0,0,2.089-.007m-.418-1.417h.008a2.8,2.8,0,0,1,1.054.154c.209.064.409.159.614.239a.3.3,0,0,0,.368-.159.191.191,0,0,0-.018-.205.51.51,0,0,0-.153-.153,1.751,1.751,0,0,0-.4-.181,4.1,4.1,0,0,0-1.231-.181,3.58,3.58,0,0,0-.694.072,2.326,2.326,0,0,1-.269.048,10.534,10.534,0,0,0-1.416.318c-.056.015-.091.039-.094.1a.085.085,0,0,0,.083.089,3.82,3.82,0,0,0,1.1-.06,5.483,5.483,0,0,1,1.048-.077M94.5,46.368a2.9,2.9,0,0,0-.662.053.408.408,0,0,0-.243.153c-.04.053-.04.083.025.112a.348.348,0,0,0,.064.032c.265.055.531.11.8.16.145.028.3.032.437.071a4.681,4.681,0,0,0,.878.117.1.1,0,0,0,.1-.083.122.122,0,0,0-.042-.131,1.839,1.839,0,0,0-1.207-.485c-.049,0-.1,0-.148,0m.959,1.7h.009c.188.017.382.036.576.051a.459.459,0,0,0,.145-.015.154.154,0,0,0,.1-.094.094.094,0,0,0-.03-.13.514.514,0,0,0-.263-.12c-.582-.091-1.159-.206-1.739-.307a.6.6,0,0,0-.147,0,.326.326,0,0,0-.246.139.11.11,0,0,0-.014.131.326.326,0,0,0,.219.181,6.734,6.734,0,0,0,1.391.165" transform="translate(-41.26 -17.816)" fill="#cf001c"/>
    <path id="Path_113" data-name="Path 113" d="M133.771,112.033c-.248.01-.445.017-.643.028-2.282.132-4.566.12-6.851.082a7.186,7.186,0,0,1-.843-.062c-.392-.053-.785-.081-1.18-.1a5.489,5.489,0,0,1-.674-.053,10.211,10.211,0,0,0-1.262-.12,6.826,6.826,0,0,1-.757-.071,2.031,2.031,0,0,0-.919.04,2.8,2.8,0,0,1-.5.063,2.291,2.291,0,0,1-1.721-.553,8.411,8.411,0,0,1-1.244-1.257,1.1,1.1,0,0,1-.085-.145.3.3,0,0,1,.06-.311,1.509,1.509,0,0,1,.26-.209c.3-.161.6-.317.9-.46a15.921,15.921,0,0,1,3.029-1.035,13.625,13.625,0,0,1,1.588-.23,5.17,5.17,0,0,0,.589-.056,7.147,7.147,0,0,1,1.688,0c.28.032.562.055.843.071a6.161,6.161,0,0,1,1.091.117,1.856,1.856,0,0,0,.335.043,7.469,7.469,0,0,1,1.089.142c.22.045.455.021.671.076.521.134,1.066.112,1.583.262.537.024,1.054.185,1.59.221a2.676,2.676,0,0,1,.417.063,4.094,4.094,0,0,0,.669.1,4.028,4.028,0,0,1,.585.085c.192.041.39.056.586.083.167.023.337.033.5.071a4.3,4.3,0,0,0,.669.1,3.889,3.889,0,0,1,.585.089,3.926,3.926,0,0,0,.5.073,4.568,4.568,0,0,1,.668.1,2.8,2.8,0,0,0,.417.063,5.036,5.036,0,0,1,.752.11,3.558,3.558,0,0,0,.5.068,3.951,3.951,0,0,1,.585.089,2.955,2.955,0,0,0,.417.068,6.224,6.224,0,0,1,.836.121,3.922,3.922,0,0,0,.468.088,1.5,1.5,0,0,1,.479.158.191.191,0,0,1,.057.056.182.182,0,0,1,.042.072,4.255,4.255,0,0,1,.016,1.339.528.528,0,0,1-.216.349.506.506,0,0,1-.224.11,3.094,3.094,0,0,1-.641.053c-.536,0-1.072,0-1.608,0q-2.03,0-4.061,0c-.564,0-1.128.01-1.641.015" transform="translate(-52.208 -48.295)" fill="#124b88"/>
    <path id="Path_114" data-name="Path 114" d="M65.684,112.573c.647-.018.676-.031,1.323-.056.259-.01-.1-.034.155-.073a9.065,9.065,0,0,1,.928-.086,5.661,5.661,0,0,0,.7-.056c.385-.067.771-.088,1.159-.124.67-.063,1.336-.166,2.008-.21a4.919,4.919,0,0,1,1-.12,1.646,1.646,0,0,0,.309-.028c.584-.14,1.187-.106,1.772-.227a3.449,3.449,0,0,1,.462-.063,6.285,6.285,0,0,0,1-.125,2.885,2.885,0,0,1,.463-.052,5.214,5.214,0,0,0,.771-.1,3.1,3.1,0,0,1,.462-.064,5.965,5.965,0,0,0,1-.129,2.318,2.318,0,0,1,.309-.039c.077-.007.155-.013.233-.013.365,0,.716-.117,1.078-.148a7.367,7.367,0,0,0,1.081-.116,1.306,1.306,0,0,1,.23-.037c1.059-.06,2.111-.247,3.176-.213.621.02,1.243.009,1.864.015a3.758,3.758,0,0,1,.772.08,4.24,4.24,0,0,0,.539.078,5.17,5.17,0,0,1,.613.1c.228.049.462.064.692.1a1.02,1.02,0,0,1,.44.15.127.127,0,0,1,.041.145.256.256,0,0,1-.029.078,3.924,3.924,0,0,1-1.668,1.461,3.059,3.059,0,0,1-1.048.287c-.414.026-.828.048-1.242.042l-1.01-.014a8.618,8.618,0,0,0-1.085.057c-.334.039-.672.051-1.008.066a11.528,11.528,0,0,0-1.238.1,7.277,7.277,0,0,1-.774.062,11.705,11.705,0,0,0-1.316.111,6.855,6.855,0,0,1-.775.059c-.414.019-.827.043-1.238.1a7.862,7.862,0,0,1-.852.065c-.673.025-1.346.043-2.016.126-.231.029-.465.032-.7.041a8.04,8.04,0,0,0-1.082.107,6.462,6.462,0,0,1-.773.067c-.362.019-.723.048-1.084.1-.307.04-.619.057-.929.067-.7.023-1.4.05-2.094.115-.412.039-.828.046-1.242.05-2.227.015-3.217.026-5.443.036a2.179,2.179,0,0,1-.541-.031.171.171,0,0,1-.1-.19,2.82,2.82,0,0,1,.162-.379,2.12,2.12,0,0,1,.937-.852,2.59,2.59,0,0,1,.664-.223,6.433,6.433,0,0,1,1.236-.115c.57.007,1.139,0,1.709,0v.013" transform="translate(-27.189 -49.624)" fill="#124b88"/>
    <path id="Path_115" data-name="Path 115" d="M68.38,107.114c.535-.006,1.069-.01,1.6-.018a11.6,11.6,0,0,0,1.6-.113c.264-.041.533-.044.8-.058a6.439,6.439,0,0,0,.877-.091,4.614,4.614,0,0,1,.557-.069,4.253,4.253,0,0,0,.873-.126.7.7,0,0,1,.158-.027c.348-.019.685-.12,1.028-.167s.681-.145,1.019-.22a6.594,6.594,0,0,0,1.008-.271c.782-.185,1.544-.444,2.322-.642a17.405,17.405,0,0,1,1.874-.438c.434-.154.9-.129,1.338-.266a1.678,1.678,0,0,1,.318-.039,3.711,3.711,0,0,0,.478-.054,6.14,6.14,0,0,1,1.356-.122c.454-.006.909-.006,1.364,0a4.676,4.676,0,0,1,1.273.137,9.95,9.95,0,0,1,1.409.307c.547.13,1.094.255,1.638.4.233.062.465.126.7.185a.815.815,0,0,1,.345.206,1.306,1.306,0,0,1,.354.552c.027.079.042.162.064.243a.85.85,0,0,1-.075.649.227.227,0,0,1-.112.111.852.852,0,0,1-.47.073,2.181,2.181,0,0,1-.472-.091c-.279-.105-.575-.128-.857-.216a3.059,3.059,0,0,0-.393-.078c-.184-.033-.369-.065-.554-.092s-.371-.06-.557-.069a25.134,25.134,0,0,0-2.726-.034c-.187.011-.374.014-.561.02-.134,0-.268,0-.4.015-.665.06-1.327.164-1.993.214a5.063,5.063,0,0,1-.954.126,2.407,2.407,0,0,0-.4.056,4.123,4.123,0,0,1-.8.1.772.772,0,0,0-.08.006c-.317.047-.634.106-.952.14a5.989,5.989,0,0,0-.954.123.349.349,0,0,1-.079.015c-.588.026-1.164.168-1.75.219a3.551,3.551,0,0,0-.477.061,5.363,5.363,0,0,1-.793.112,3.084,3.084,0,0,0-.476.071,5.047,5.047,0,0,1-.634.095c-.159.017-.317.049-.475.075s-.315.063-.474.08a4.494,4.494,0,0,0-.634.1,3.08,3.08,0,0,1-.4.063c-.132.017-.269.011-.4.04a8.425,8.425,0,0,1-1.514.164,2.331,2.331,0,0,0-.24.019,16.48,16.48,0,0,1-2.161.128,9.754,9.754,0,0,0-1.284.1c-.239.026-.48.034-.721.039-.721.017-.8.029-1.526.041a.16.16,0,0,1-.134-.068.114.114,0,0,1,0-.155,17.766,17.766,0,0,1,1.388-1.393.8.8,0,0,1,.132-.095.458.458,0,0,1,.223-.084c.187,0-.264-.014-.078-.014.7,0,.752,0,1.447,0v.017" transform="translate(-29.092 -46.882)" fill="#124b88"/>
    <path id="Path_116" data-name="Path 116" d="M140.862,105.6c-.013.175-.027.342-.039.508a.283.283,0,0,1-.2.219,2.339,2.339,0,0,1-.831-.035,10.644,10.644,0,0,0-1.206-.158c-.126-.01-.249-.046-.375-.066-.151-.024-.3-.052-.452-.063a5.4,5.4,0,0,1-.98-.13,2.214,2.214,0,0,0-.377-.045,3.832,3.832,0,0,1-.752-.109,2.111,2.111,0,0,0-.376-.057,5.435,5.435,0,0,1-.675-.111c-.372-.082-.748-.137-1.121-.217-.447-.1-.891-.2-1.34-.286-.424-.079-.84-.208-1.269-.25-.465-.145-.952-.144-1.421-.267a.783.783,0,0,0-.151-.025c-.91-.052-1.812-.217-2.727-.206s-1.823-.017-2.735-.025c-.279,0-.557.01-.836.008a7.773,7.773,0,0,0-2.882.657,8.691,8.691,0,0,1-.855.343.136.136,0,0,1-.142-.036.545.545,0,0,1,.066-.145c.072-.078.156-.143.233-.214a9.306,9.306,0,0,1,3.125-1.857,14.206,14.206,0,0,1,1.986-.542,7.8,7.8,0,0,1,.821-.162c.276-.026.549-.1.824-.145s.553-.073.83-.11a.645.645,0,0,1,.371.058.358.358,0,0,1,.213.223c.047.159.085.322.127.484a.584.584,0,0,0,.17.273,1.574,1.574,0,0,0,.381.272.862.862,0,0,0,.591.088,5.614,5.614,0,0,0,1.652-.6,3.266,3.266,0,0,1,.787-.3.687.687,0,0,1,.376.012,1.77,1.77,0,0,1,.736.42c.173.164.341.335.514.5a7.6,7.6,0,0,0,2.555,1.615,12.041,12.041,0,0,0,1.472.4.927.927,0,0,0,.151.019,13.32,13.32,0,0,0,2.353.014.694.694,0,0,0,.292-.083,1.024,1.024,0,0,0,.38-.4c.108-.193.116-.431.24-.613.024-.035.088-.042.134-.05.02,0,.048.019.066.036a.88.88,0,0,1,.273.581c.017.2.017.392.025.581" transform="translate(-53.121 -45.841)" fill="#124b88"/>
    <path id="Path_117" data-name="Path 117" d="M156.529,132.4a9.412,9.412,0,0,1-.485,2.968,15.027,15.027,0,0,1-.8,2.027c-.06.126-.123.252-.187.376-.462.9-.89,1.809-1.3,2.727-.138.306-.288.607-.44.906a.74.74,0,0,1-.16.188.1.1,0,0,1-.148,0c-.038-.04-.089-.082-.1-.13-.175-.792-.367-1.581-.51-2.378a8.662,8.662,0,0,1-.193-1.917c.007-.14,0-.28.018-.419a18.847,18.847,0,0,1,.337-2.154c.07-.3.16-.594.229-.894a2.169,2.169,0,0,1,.4-.825c.136-.178.275-.355.426-.521q.679-.747,1.369-1.485c.326-.348.662-.686.994-1.028a.157.157,0,0,1,.264.067,1.333,1.333,0,0,1,.055.158c.055.3.112.605.159.91a10.038,10.038,0,0,1,.075,1.425" transform="translate(-67.872 -58.291)" fill="#124b88"/>
    <path id="Path_118" data-name="Path 118" d="M155.747,120.327c0,.643,0,1.287,0,1.931a3.4,3.4,0,0,1-.019.419.679.679,0,0,1-.089.231,1.182,1.182,0,0,1-.151.2q-1.208,1.347-2.418,2.691a.406.406,0,0,1-.136.095.1.1,0,0,1-.142-.04,1.952,1.952,0,0,1-.141-.3,12.661,12.661,0,0,1-.591-2.954,21.073,21.073,0,0,1-.017-2.516,3.915,3.915,0,0,1,.127-.827c.1-.377.184-.761.285-1.139a3.269,3.269,0,0,1,.172-.472.239.239,0,0,1,.129-.094.45.45,0,0,1,.164-.031q1.139-.017,2.279-.029a1.75,1.75,0,0,1,.25.029.371.371,0,0,1,.264.294c.011.139.023.279.024.418,0,.7,0,1.4,0,2.1Z" transform="translate(-67.791 -52.765)" fill="#124b88"/>
    <path id="Path_119" data-name="Path 119" d="M132.257,98.123l-.6-.017c-.063,0-.1-.028-.1-.083a.094.094,0,0,1,.025-.061c.055-.047.114-.09.173-.132.2-.139.407-.273.606-.416a7.705,7.705,0,0,0,1.9-1.924.832.832,0,0,1,.23-.279.093.093,0,0,1,.127.026,1.3,1.3,0,0,1,.122.418,2.737,2.737,0,0,1,.1.723,1.985,1.985,0,0,1-.175.853.953.953,0,0,1-.428.489,2.306,2.306,0,0,1-.468.21,3.531,3.531,0,0,1-1.011.177c-.147,0-.294.008-.5.015" transform="translate(-58.671 -42.754)" fill="#cf001c"/>
    <path id="Path_120" data-name="Path 120" d="M114.451,115.482a4.94,4.94,0,0,1-1.482-.29,2.55,2.55,0,0,1-.627-.232c-.071-.047-.106-.146-.055-.2a.778.778,0,0,1,.05-.067c.534-.45,1.072-.894,1.632-1.312a.215.215,0,0,1,.233.015c.022.018.047.031.067.05q.77.709,1.538,1.421a.733.733,0,0,1,.089.138.113.113,0,0,1-.017.153,1,1,0,0,1-.516.256,3.472,3.472,0,0,1-.912.066" transform="translate(-50.064 -50.909)" fill="#124b88"/>
    <path id="Path_121" data-name="Path 121" d="M129.207,68.53a.632.632,0,0,1,.039.056.3.3,0,0,1,.024.058c-.044.023-.068,0-.064-.064a.281.281,0,0,1,.018-.066Z" transform="translate(-57.62 -30.77)" fill="#1a1818"/>
    <path id="Path_122" data-name="Path 122" d="M101.894,130.589l-.421-.026c-.084-.006-.18-.082-.185-.146a.278.278,0,0,1,.086-.222,1.291,1.291,0,0,1,.825-.382.61.61,0,0,1,.59.252.273.273,0,0,1-.076.367.854.854,0,0,1-.151.074c-.08.025-.163.042-.245.061a.428.428,0,0,1-.084.008h-.337v.014" transform="translate(-45.17 -58.299)" fill="#fff"/>
    <path id="Path_123" data-name="Path 123" d="M99.922,123.931a1.354,1.354,0,0,1-.509-.048.181.181,0,0,1-.089-.2.426.426,0,0,1,.031-.077.76.76,0,0,1,.957-.275,1.351,1.351,0,0,1,.49.308.251.251,0,0,1,.038.15.107.107,0,0,1-.1.113,1.127,1.127,0,0,1-.163.03c-.167,0-.335,0-.654,0" transform="translate(-44.291 -55.357)" fill="#fff"/>
    <path id="Path_124" data-name="Path 124" d="M88.346,125.109a2.055,2.055,0,0,1,.583.033c.052.017.146.135.129.191a.438.438,0,0,1-.083.133.145.145,0,0,1-.073.039,3.311,3.311,0,0,1-1.064.1c-.027,0-.054-.01-.081-.013a.284.284,0,0,1-.151-.18.2.2,0,0,1,.1-.2.538.538,0,0,1,.151-.059c.191-.023.383-.036.485-.045" transform="translate(-39.068 -56.187)" fill="#fff"/>
    <path id="Path_125" data-name="Path 125" d="M124.357,119.223l.31-.024a.245.245,0,0,1,.23.278.13.13,0,0,1-.082.132,2.66,2.66,0,0,1-.891.162c-.027,0-.054-.011-.081-.013a.254.254,0,0,1-.2-.228.263.263,0,0,1,.126-.2.482.482,0,0,1,.153-.058c.137-.02.275-.031.434-.048" transform="translate(-55.139 -53.533)" fill="#fff"/>
    <path id="Path_126" data-name="Path 126" d="M138.116,124.449c-.089-.006-.2-.009-.309-.022a.2.2,0,0,1-.172-.149.164.164,0,0,1,.106-.192c.243-.049.486-.1.731-.144a.789.789,0,0,1,.164.008.234.234,0,0,1,.2.222c-.007.073-.06.179-.13.193-.053.01-.1.042-.156.048-.137.016-.276.023-.435.035" transform="translate(-61.377 -55.663)" fill="#fff"/>
    <path id="Path_127" data-name="Path 127" d="M76.8,127.545a1.129,1.129,0,0,1,.485.046c.065.03.083.068.052.134a.214.214,0,0,1-.181.141,4.862,4.862,0,0,1-.993,0,.2.2,0,0,1-.17-.15.087.087,0,0,1,.065-.127.679.679,0,0,1,.158-.038c.166,0,.332,0,.583,0" transform="translate(-33.885 -57.279)" fill="#fff"/>
    <path id="Path_128" data-name="Path 128" d="M114,128.862a.981.981,0,0,1-.414-.046.087.087,0,0,1-.047-.05.1.1,0,0,1,.013-.079.3.3,0,0,1,.132-.085,1.934,1.934,0,0,1,.822.015.113.113,0,0,1,.085.125.105.105,0,0,1-.1.1,1.1,1.1,0,0,1-.165.018c-.083,0-.166,0-.326,0" transform="translate(-50.631 -57.74)" fill="#fff"/>
    <path id="Path_129" data-name="Path 129" d="M111.46,122.109c-.151,0-.262,0-.373,0a1.028,1.028,0,0,1-.16-.035c-.059-.013-.115-.126-.1-.2a.158.158,0,0,1,.093-.122.228.228,0,0,1,.075-.03c.3-.02.609-.041.914-.056a.561.561,0,0,1,.159.04.214.214,0,0,1,.1.205.16.16,0,0,1-.091.124.5.5,0,0,1-.155.048c-.166.015-.333.021-.46.029" transform="translate(-49.423 -54.64)" fill="#fff"/>
    <path id="Path_130" data-name="Path 130" d="M125.722,126.77a.707.707,0,0,1-.354-.063.089.089,0,0,1-.035-.055.136.136,0,0,1,.018-.078.131.131,0,0,1,.059-.046,1.228,1.228,0,0,1,.558-.089.488.488,0,0,1,.15.057.127.127,0,0,1-.029.237c-.134.019-.27.027-.366.036" transform="translate(-55.893 -56.785)" fill="#fff"/>
    <path id="Path_131" data-name="Path 131" d="M133.809,168.474c-.194,0-.388,0-.582,0a1.52,1.52,0,0,1-.163-.026c-.058-.008-.171-.107-.168-.164a.265.265,0,0,1,.042-.153,1.7,1.7,0,0,1,.676-.467.474.474,0,0,1,.325-.018,2.18,2.18,0,0,1,.8.435.222.222,0,0,1,.081.214.22.22,0,0,1-.177.156c-.275.023-.553.029-.829.041v-.017" transform="translate(-59.265 -75.282)" fill="#fff"/>
    <path id="Path_132" data-name="Path 132" d="M86.753,159.741a.233.233,0,0,1-.13.193.709.709,0,0,1-.155.059c-.416.045-.827.116-1.238.189a.944.944,0,0,1-.166-.008.151.151,0,0,1-.116-.181,1.076,1.076,0,0,1,.372-.441,1.017,1.017,0,0,1,1.172-.106.432.432,0,0,1,.2.145,1.183,1.183,0,0,1,.062.15" transform="translate(-37.88 -71.547)" fill="#fff"/>
    <path id="Path_133" data-name="Path 133" d="M110.5,164.538a1.838,1.838,0,0,1-.512-.031.151.151,0,0,1-.118-.106.167.167,0,0,1,.023-.154.492.492,0,0,1,.059-.058,1.441,1.441,0,0,1,.265-.2.73.73,0,0,1,.315-.106,1.024,1.024,0,0,1,.721.161,1.105,1.105,0,0,1,.258.21.135.135,0,0,1,.022.149.147.147,0,0,1-.124.1,2.265,2.265,0,0,1-.248.036c-.167.006-.336,0-.661,0" transform="translate(-48.995 -73.596)" fill="#fff"/>
    <path id="Path_134" data-name="Path 134" d="M122.033,166.139a1.99,1.99,0,0,1-.663-.064.181.181,0,0,1-.071-.207.388.388,0,0,1,.04-.072.686.686,0,0,1,.126-.108,1.327,1.327,0,0,1,.963-.182,1.272,1.272,0,0,1,.471.153.227.227,0,0,1,.011.3.619.619,0,0,1-.377.158c-.194.018-.389.021-.5.026" transform="translate(-54.089 -74.32)" fill="#fff"/>
    <path id="Path_135" data-name="Path 135" d="M98.816,162.462l-.233-.012a.227.227,0,0,1-.187-.137.152.152,0,0,1,.032-.153c.018-.021.032-.055.054-.062a2.788,2.788,0,0,1,.909-.081c.057,0,.144.115.14.179a.218.218,0,0,1-.2.221l-.517.044" transform="translate(-43.876 -72.762)" fill="#fff"/>
    <path id="Path_136" data-name="Path 136" d="M67.83,151.775c-.019-.011-.382-.035-.253-.486.056-.2.115-.389.18-.581.084-.247.179-.49.262-.737a1.408,1.408,0,0,0,.049-.256c.009-.072-.022-.115-.08-.112a.108.108,0,0,0-.075.03c-.607.742-1.183,1.508-1.747,2.282-.331.454.165.651.413.651h50.052a.574.574,0,0,0,.575-.573h-.039a.181.181,0,0,0,0-.045c0-.029,0-.058,0-.087q-.056-.911-.112-1.823c-.012-.2-.024-.405-.05-.607a2.555,2.555,0,0,0-.084-.327.121.121,0,0,0-.136-.09.217.217,0,0,0-.148.075,1.279,1.279,0,0,0-.149.226l-.111.112a.168.168,0,0,0-.066.051,1.309,1.309,0,0,0-.14.21c-.281.58-.576,1.155-.817,1.754a3.949,3.949,0,0,1-.17.384c-.01.019-.021.038-.032.056a1.051,1.051,0,0,1-.207.11h-3.133c-.283-.019-.566-.035-.848-.039-1.167-.016-2.334-.032-3.5-.033q-18.859,0-37.715,0h-.809a4.408,4.408,0,0,1-1.111-.143" transform="translate(-29.458 -66.924)" fill="#124b88"/>
    <path id="Path_137" data-name="Path 137" d="M115.381,13.373a1.491,1.491,0,0,0,.284-.04.086.086,0,0,0,.05-.113c-.041-.118-.149-.183-.235-.265-1.255-1.189-2.741-2.747-4-3.937-.139-.132-.276-.266-.411-.4a.725.725,0,0,1-.208-.448c-.009-.095-.012-.19-.013-.285a.184.184,0,0,1,.189-.172c.11.017.219.035.328.057a.656.656,0,0,1,.3.145c.086.074.173.148.256.226q.6.567,1.207,1.136c.961.907,1.913,1.822,2.843,2.76.169.171.337.342.5.519a3.6,3.6,0,0,1,.6.89,2.811,2.811,0,0,1,.25.746,3.477,3.477,0,0,1-.95,2.145,2.9,2.9,0,0,0-.707,1.607,12.882,12.882,0,0,1-.035,2.3c-.095.246-.178.5-.273.741a3.647,3.647,0,0,0-.182.913,1.241,1.241,0,0,0,.009.286c.018.143.049.283.07.425a4.4,4.4,0,0,0,.53,1.48,1.429,1.429,0,0,0,.168.232.367.367,0,0,0,.249.132,6.722,6.722,0,0,0,1.412-.047.444.444,0,0,0,.387-.433v-.024a1.964,1.964,0,0,0-.027-.213c-.122-.61-.25-1.219-.315-1.839a2.1,2.1,0,0,0-.028-.214,3.5,3.5,0,0,1,.472-2.909,1.464,1.464,0,0,0,.437-1.1,2.065,2.065,0,0,0-.059-.5,4.187,4.187,0,0,1-.118-.853,10.376,10.376,0,0,1,.009-1.364c.032-.406.063-.811.079-1.219a1.458,1.458,0,0,1,.038-.21.294.294,0,0,1,.211-.175c.168,0,.337,0,.5.012a9.734,9.734,0,0,0,1.083.025,1.646,1.646,0,0,0,.694-.174.335.335,0,0,0,.181-.287.86.86,0,0,0-.23-.589,4.711,4.711,0,0,0-.414-.4q-.861-.768-1.726-1.53-2.723-2.414-5.486-4.784a8.486,8.486,0,0,0-.73-.587,3.516,3.516,0,0,0-.83-.429,1.484,1.484,0,0,0-.422-.086c-.264-.012-.53-.015-.793-.042-.336-.035-.673-.04-1.01-.044-.361,0-.723,0-1.083-.03-.433-.035-.866-.039-1.3-.041s-.868,0-1.3-.027-.866-.035-1.3-.031c-.7.006-1.4.006-2.094-.04-.288-.019-.578-.006-.867,0a.972.972,0,0,0-.216.02.763.763,0,0,0-.6.464.537.537,0,0,0-.021.351,1.106,1.106,0,0,0,.28.5c.172.167.348.331.526.491q3.558,3.21,7.172,6.36c.109.095.217.189.327.282a2.058,2.058,0,0,0,.633.355,1,1,0,0,0,.325.06c.151,0,.3,0,.453,0,.722-.014,4.118.261,4.924.234" transform="translate(-44.917 -1.91)" fill="#124b88"/>
    <path id="Path_138" data-name="Path 138" d="M116.706,18a.275.275,0,0,0-.164-.13,3.056,3.056,0,0,0-.645-.055c-.433-.024-.867-.035-1.3-.076q-.539-.052-1.08-.075c-.337-.014-.675-.024-1.009-.065-.359-.044-.719-.067-1.08-.08a7.935,7.935,0,0,1-.935-.08,4.057,4.057,0,0,0-.5-.052.769.769,0,0,1-.513-.232c-.141-.13-.284-.258-.427-.386q-2.073-1.844-4.146-3.685c-.288-.255-.582-.5-.875-.75-.054-.046-.115-.085-.172-.128a.169.169,0,0,0-.239.078q-.51,1.608-1.018,3.217a1.224,1.224,0,0,0-.041.211,2.853,2.853,0,0,0,.3,1.74,4.6,4.6,0,0,0,.711.99,7.212,7.212,0,0,0,1.149.98,22.02,22.02,0,0,0,5.843,2.481.058.058,0,0,1,.023,0c.166.028.334.046.5.088s.311.078.468.116c.238.039.476.071.715.095a20.676,20.676,0,0,0,2.359.133.844.844,0,0,0,.258-.124.412.412,0,0,0,.216-.35c0-.167,0-.335,0-.5a1.7,1.7,0,0,1,.026-.286,2.31,2.31,0,0,1,.926-1.488,1.167,1.167,0,0,1,.119-.083,1.1,1.1,0,0,0,.572-.865,1.761,1.761,0,0,0,.032-.213,1.887,1.887,0,0,0-.019-.285.35.35,0,0,0-.051-.133" transform="translate(-45.725 -5.471)" fill="#124b88"/>
    <path id="Path_139" data-name="Path 139" d="M122.29,73.65a2.44,2.44,0,0,0,.068,2.009c.539.938,3.435,3.148,3.367,5.693s-.808,4.873-5.59,7.167S116.5,92.4,116.5,92.4a6.044,6.044,0,0,1,2.829-2.545c1.818-.67,7.678-3.014,8.218-6.363s-4.218-7.38-4.648-8.037c-.875-1.34-.606-1.809-.606-1.809" transform="translate(-51.899 -33.077)" fill="#124b88"/>
  </g>
</svg>
