<svg xmlns="http://www.w3.org/2000/svg" width="60" height="44" viewBox="0 0 60 44">
  <g id="Group_27" data-name="Group 27" transform="translate(-1470 -329.342)">
    <path id="Path_180" data-name="Path 180" d="M1,0H17V2H1A1,1,0,0,1,1,0Z" transform="translate(1470 371.342)" fill="#d1e6ff"/>
    <path id="Icon_metro-pencil" data-name="Icon metro-pencil" d="M40.41,2.464a6.875,6.875,0,0,1,5.5,11l-2.75,2.75L33.535,6.589l2.75-2.75A6.844,6.844,0,0,1,40.41,2.464ZM6.035,34.089,3.285,46.464l12.375-2.75L41.1,18.276,31.472,8.651Zm28-16-19.25,19.25-2.37-2.37,19.25-19.25,2.37,2.37Z" transform="translate(1482.715 326.878)" fill="#fff"/>
  </g>
</svg>
