<svg id="XMLID_129_" xmlns="http://www.w3.org/2000/svg" width="46" height="45.625" viewBox="0 0 46 45.625">
  <path id="XMLID_134_" d="M223.846,5.656H199.393a1.472,1.472,0,0,0-1.472,1.472V17.513l1.064-1.244a3.387,3.387,0,0,1,1.879-1.108V8.6h21.51V27.825h-21.51V24.607l-.663.775a3.418,3.418,0,0,1-2.281,1.178V29.3a1.471,1.471,0,0,0,1.472,1.472h7.942L203.3,49.086a1.522,1.522,0,0,0,2.973.656l4.179-18.974h2.429l4.179,18.974a1.522,1.522,0,1,0,2.973-.656L216,30.769h7.847a1.472,1.472,0,0,0,1.472-1.472V7.128A1.473,1.473,0,0,0,223.846,5.656Z" transform="translate(-179.317 -5.312)" fill="#555"/>
  <path id="XMLID_132_" d="M183.543,93.644a.568.568,0,0,0-.737-.32l-8.67,3.06a1.9,1.9,0,0,0-2.607.266l-2.751,3.213-2.439-2.091c.016.173.053.34.053.518v4.539l1.357,1.163a1.9,1.9,0,0,0,2.683-.207l3.275-3.83,2.641-1.545,6.951-4.067A.567.567,0,0,0,183.543,93.644Z" transform="translate(-150.704 -84.703)" fill="#555"/>
  <path id="XMLID_131_" d="M10.332,105.776H8.7a3.813,3.813,0,0,0-3.05,1.535L.634,111.928a1.9,1.9,0,0,0-.149,2.688l4.091,4.567a1.9,1.9,0,1,0,2.834-2.539l-2.82-3.149L8.6,109.91l-2.333,3.17,2.282,2.548a3.414,3.414,0,0,1-3.678,5.5s.018,8.8.018,18.232a2.283,2.283,0,1,0,4.567,0V125.754h1.523v13.608a3.776,3.776,0,0,1-.476,1.808,2.257,2.257,0,0,0,1.379.476,2.283,2.283,0,0,0,2.284-2.283c0-9.425,0-5.474,0-29.756A3.831,3.831,0,0,0,10.332,105.776Z" transform="translate(0 -96.021)" fill="#555"/>
  <path id="XMLID_130_" d="M56.293,10.38a4.278,4.278,0,0,0,4.068,0,4.451,4.451,0,1,0-4.068,0Z" transform="translate(-48.812 -1.995)" fill="#555"/>
</svg>
