<svg xmlns="http://www.w3.org/2000/svg" width="78.667" height="66.256" viewBox="0 0 78.667 66.256">
  <g id="Group_24" data-name="Group 24" transform="translate(-36.987)">
    <rect id="Rectangle_32" data-name="Rectangle 32" width="78.667" height="47.166" transform="translate(36.987 0)" fill="#fff"/>
    <circle id="Ellipse_9" data-name="Ellipse 9" cx="5.87" cy="5.87" r="5.87" transform="translate(71.817 13.633)" fill="#dec1a1"/>
    <path id="Path_164" data-name="Path 164" d="M238.924,217.4H224.2l.826-18.613.1-.107,1.462-1.542h4.648l1.725,1.67.136.133,3.67,3.517Z" transform="translate(-151.346 -170.23)" fill="#2b5d95"/>
    <path id="Path_165" data-name="Path 165" d="M490.992,389.13H479.8c-.074-7.123-.133-12.5-.133-12.5l.572-.348,0,0,6.274-3.809,1.317-2.14.007.076.387,4.51A77.557,77.557,0,0,1,490.992,389.13Z" transform="translate(-414.059 -341.964)" fill="#2f2e41"/>
    <path id="Path_166" data-name="Path 166" d="M566.67,389.13h-9.955a24.778,24.778,0,0,1-.689-6.627c.489-7.827-.639-12.168-.15-12.168l.258.2,3.071,2.425,4.044,1.482,2.806,1.029.489.179v.236C566.546,377.073,566.559,382.573,566.67,389.13Z" transform="translate(-474.515 -341.964)" fill="#2f2e41"/>
    <path id="Path_167" data-name="Path 167" d="M505.589,296.819s.5-.876.383-3.8,4.34-1.271,8.063-1.55,2.935,4.885,2.935,4.885a9.735,9.735,0,0,0,.844-2.8,8.137,8.137,0,0,0-.731-4.976c-.385-2.619-2.457-1.78-2.457-1.78a1.087,1.087,0,0,1,.806,1.219c-.845-1.481-2.917-.642-2.917-.642-2.764-1.735-5.566.55-5.566.55-3.339.758-1.381,3.413-1.381,3.413C502.21,293.035,505.589,296.819,505.589,296.819Z" transform="translate(-433.455 -275.48)" fill="#2f2e41"/>
    <path id="Path_168" data-name="Path 168" d="M464.534,412.151c.286-5.713.5-10.2.418-10.542-.241-.962,3.159-2.265,3.262-2.3l0,0h0l.649.349.475,12.5Z" transform="translate(-402.029 -364.985)" fill="#2f2e41"/>
    <path id="Path_169" data-name="Path 169" d="M595.177,404.91h-5.052l-1.446-14.282.6-.435.141.033a11.757,11.757,0,0,1,2.806,1.029,1.7,1.7,0,0,1,.489.415.5.5,0,0,1,.115.355C592.783,392.428,593.884,398.147,595.177,404.91Z" transform="translate(-500.681 -357.744)" fill="#2f2e41"/>
    <path id="Path_170" data-name="Path 170" d="M452.248,489.945H398.885a.775.775,0,1,0,0,1.549h53.362a.775.775,0,1,0,0-1.549Z" transform="translate(-349.246 -427.013)" fill="#fff"/>
    <path id="Path_171" data-name="Path 171" d="M437.788,489.945v1.549h-38.9a.775.775,0,1,1,0-1.549Z" transform="translate(-349.246 -427.013)" fill="#3f3d56"/>
    <circle id="Ellipse_10" data-name="Ellipse 10" cx="2.549" cy="2.549" r="2.549" transform="translate(85.993 61.158)" fill="#3f3d56"/>
  </g>
</svg>
